{
.appVersion = "895";
classes = (
{
automatic = 1;
code = "A Aacute Abreve Abreveacute Abrevedotbelow Abrevegrave Abrevehookabove Abrevetilde Acircumflex Acircumflexacute Acircumflexdotbelow Acircumflexgrave Acircumflexhookabove Acircumflextilde Adblgrave Adieresis Adotbelow Agrave Ahookabove Ainvertedbreve Amacron Aogonek Aring Aringacute Atilde AE AEacute B C Cacute Ccaron Ccedilla Ccircumflex Cdotaccent D DZ DZcaron Eth Dcaron Dcroat Dz Dzcaron E Eacute Ebreve Ecaron Ecircumflex Ecircumflexacute Ecircumflexdotbelow Ecircumflexgrave Ecircumflexhookabove Ecircumflextilde Edblgrave Edieresis Edotaccent Edotbelow Egrave Ehookabove Einvertedbreve Emacron Eogonek Etilde F G Gbreve Gcaron Gcircumflex Gcommaaccent Gdotaccent H Hbar Hcircumflex I Iacute Ibreve Icircumflex Idblgrave Idieresis Idotaccent Idotbelow Igrave Ihookabove Iinvertedbreve Imacron Iogonek Itilde J Jcircumflex K Kcommaaccent L LJ Lacute Lcaron Lcommaaccent Ldot Lj Lslash M N NJ Nacute Ncaron Ncommaaccent Eng Nj Ntilde O Oacute Obreve Ocircumflex Ocircumflexacute Ocircumflexdotbelow Ocircumflexgrave Ocircumflexhookabove Ocircumflextilde Odblgrave Odieresis Odieresismacron Odotaccentmacron Odotbelow Ograve Ohookabove Ohorn Ohornacute Ohorndotbelow Ohorngrave Ohornhookabove Ohorntilde Ohungarumlaut Oinvertedbreve Omacron Oogonek Oslash Oslashacute Otilde Otildemacron OE P Thorn Q R Racute Rcaron Rcommaaccent Rdblgrave Rinvertedbreve S Sacute Scaron Scedilla Scircumflex Scommaaccent Germandbls Schwa T Tbar Tcaron Tcedilla Tcommaaccent U Uacute Ubreve Ucircumflex Udblgrave Udieresis Udotbelow Ugrave Uhookabove Uhorn Uhornacute Uhorndotbelow Uhorngrave Uhornhookabove Uhorntilde Uhungarumlaut Uinvertedbreve Umacron Uogonek Uring Utilde V W Wacute Wcircumflex Wdieresis Wgrave X Y Yacute Ycircumflex Ydieresis Ydotbelow Ygrave Yhookabove Ymacron Ytilde Z Zacute Zcaron Zdotaccent Iacute_J.loclNLD";
name = Uppercase;
}
);

glyphs = (
{
color = 4;
glyphname = A;
layers = (
{
anchors = (
{
name = bottom;
position = "{298, 0}";
},
{
name = ogonek;
position = "{554, 0}";
},
{
name = top;
position = "{298, 633}";
}
);
layerId = "C9A88445-F9B1-43BF-9834-532EB19954E9";
paths = (
{
closed = 1;
nodes = (
"61 13 CURVE",
"300 567 LINE",
"536 13 LINE SMOOTH",
"541 1 OFFCURVE",
"551 -3 OFFCURVE",
"563 2 CURVE SMOOTH",
"576 8 OFFCURVE",
"580 17 OFFCURVE",
"574 30 CURVE SMOOTH",
"324 617 LINE SMOOTH",
"319 628 OFFCURVE",
"312 633 OFFCURVE",
"300 633 CURVE SMOOTH",
"297 633 LINE SMOOTH",
"285 633 OFFCURVE",
"277 628 OFFCURVE",
"273 617 CURVE SMOOTH",
"22 30 LINE SMOOTH",
"17 17 OFFCURVE",
"21 8 OFFCURVE",
"33 2 CURVE SMOOTH",
"46 -3 OFFCURVE",
"56 1 OFFCURVE"
);
},
{
closed = 1;
nodes = (
"455 179 LINE SMOOTH",
"469 179 OFFCURVE",
"476 186 OFFCURVE",
"476 200 CURVE SMOOTH",
"476 214 OFFCURVE",
"469 221 OFFCURVE",
"455 221 CURVE SMOOTH",
"140 221 LINE SMOOTH",
"127 221 OFFCURVE",
"119 214 OFFCURVE",
"119 200 CURVE SMOOTH",
"119 186 OFFCURVE",
"127 179 OFFCURVE",
"140 179 CURVE SMOOTH"
);
}
);
width = 597;
}
);
leftKerningGroup = A;
rightKerningGroup = A;
unicode = 0041;
},
{
color = 4;
glyphname = AE;
layers = (
{
anchors = (
{
name = bottom;
position = "{499, 0}";
},
{
name = top;
position = "{508, 633}";
}
);
layerId = "C9A88445-F9B1-43BF-9834-532EB19954E9";
paths = (
{
closed = 1;
nodes = (
"761 0 LINE SMOOTH",
"775 0 OFFCURVE",
"782 7 OFFCURVE",
"782 21 CURVE SMOOTH",
"782 35 OFFCURVE",
"775 42 OFFCURVE",
"761 42 CURVE SMOOTH",
"443 42 LINE",
"443 300 LINE",
"643 300 LINE SMOOTH",
"657 300 OFFCURVE",
"664 307 OFFCURVE",
"664 321 CURVE SMOOTH",
"664 335 OFFCURVE",
"657 342 OFFCURVE",
"643 342 CURVE SMOOTH",
"443 342 LINE",
"443 591 LINE",
"761 591 LINE SMOOTH",
"775 591 OFFCURVE",
"782 598 OFFCURVE",
"782 612 CURVE SMOOTH",
"782 626 OFFCURVE",
"775 633 OFFCURVE",
"761 633 CURVE SMOOTH",
"379 633 LINE SMOOTH",
"368 633 OFFCURVE",
"360 629 OFFCURVE",
"355 618 CURVE",
"24 32 LINE SMOOTH",
"17 20 OFFCURVE",
"20 10 OFFCURVE",
"32 3 CURVE SMOOTH",
"44 -4 OFFCURVE",
"54 -1 OFFCURVE",
"61 11 CURVE SMOOTH",
"156 180 LINE",
"401 179 LINE",
"401 21 LINE SMOOTH",
"401 7 OFFCURVE",
"408 0 OFFCURVE",
"422 0 CURVE SMOOTH"
);
},
{
closed = 1;
nodes = (
"387 591 LINE",
"401 591 LINE",
"401 221 LINE",
"179 221 LINE"
);
}
);
width = 817;
}
);
leftKerningGroup = A;
leftMetricsKey = A;
rightKerningGroup = E;
rightMetricsKey = E;
unicode = 00C6;
},
{
color = 4;
glyphname = B;
layers = (
{
anchors = (
{
name = bottom;
position = "{300, 0}";
},
{
name = top;
position = "{300, 633}";
}
);
layerId = "C9A88445-F9B1-43BF-9834-532EB19954E9";
paths = (
{
closed = 1;
nodes = (
"385 0 LINE SMOOTH",
"496 0 OFFCURVE",
"553 57 OFFCURVE",
"553 167 CURVE SMOOTH",
"553 198 LINE SMOOTH",
"553 308 OFFCURVE",
"496 364 OFFCURVE",
"385 364 CURVE SMOOTH",
"132 364 LINE SMOOTH",
"118 364 OFFCURVE",
"111 357 OFFCURVE",
"111 343 CURVE SMOOTH",
"111 329 OFFCURVE",
"118 322 OFFCURVE",
"132 322 CURVE SMOOTH",
"385 322 LINE SMOOTH",
"473 322 OFFCURVE",
"511 285 OFFCURVE",
"511 198 CURVE SMOOTH",
"511 167 LINE SMOOTH",
"511 80 OFFCURVE",
"473 42 OFFCURVE",
"385 42 CURVE SMOOTH",
"132 42 LINE",
"132 591 LINE",
"372 591 LINE SMOOTH",
"443 591 OFFCURVE",
"474 561 OFFCURVE",
"474 492 CURVE SMOOTH",
"474 465 LINE SMOOTH",
"474 402 OFFCURVE",
"449 369 OFFCURVE",
"393 365 CURVE SMOOTH",
"379 364 OFFCURVE",
"372 357 OFFCURVE",
"372 344 CURVE SMOOTH",
"372 330 OFFCURVE",
"380 332 OFFCURVE",
"394 333 CURVE SMOOTH",
"474 339 OFFCURVE",
"516 379 OFFCURVE",
"516 465 CURVE SMOOTH",
"516 492 LINE SMOOTH",
"516 585 OFFCURVE",
"467 633 OFFCURVE",
"372 633 CURVE SMOOTH",
"111 633 LINE SMOOTH",
"97 633 OFFCURVE",
"90 626 OFFCURVE",
"90 612 CURVE SMOOTH",
"90 21 LINE SMOOTH",
"90 7 OFFCURVE",
"97 0 OFFCURVE",
"111 0 CURVE SMOOTH"
);
}
);
width = 603;
}
);
leftKerningGroup = H;
leftMetricsKey = H;
rightKerningGroup = B;
unicode = 0042;
},
{
color = 4;
glyphname = C;
lastChange = "2016-07-31 01:33:46 +0000";
layers = (
{
anchors = (
{
name = bottom;
position = "{344, 0}";
},
{
name = top;
position = "{333, 633}";
}
);
layerId = "C9A88445-F9B1-43BF-9834-532EB19954E9";
paths = (
{
closed = 1;
nodes = (
"403 0 LINE SMOOTH",
"525 0 OFFCURVE",
"580 48 OFFCURVE",
"585 161 CURVE SMOOTH",
"586 175 OFFCURVE",
"579 183 OFFCURVE",
"565 183 CURVE SMOOTH",
"551 183 OFFCURVE",
"544 176 OFFCURVE",
"543 162 CURVE SMOOTH",
"539 72 OFFCURVE",
"501 42 OFFCURVE",
"403 42 CURVE SMOOTH",
"283 42 LINE SMOOTH",
"165 42 OFFCURVE",
"122 85 OFFCURVE",
"122 203 CURVE SMOOTH",
"122 430 LINE SMOOTH",
"122 549 OFFCURVE",
"164 591 OFFCURVE",
"282 591 CURVE SMOOTH",
"403 591 LINE SMOOTH",
"501 591 OFFCURVE",
"539 561 OFFCURVE",
"543 471 CURVE SMOOTH",
"544 457 OFFCURVE",
"551 450 OFFCURVE",
"565 450 CURVE SMOOTH",
"579 450 OFFCURVE",
"586 458 OFFCURVE",
"585 472 CURVE SMOOTH",
"580 585 OFFCURVE",
"525 633 OFFCURVE",
"403 633 CURVE SMOOTH",
"282 633 LINE SMOOTH",
"141 633 OFFCURVE",
"80 573 OFFCURVE",
"80 430 CURVE SMOOTH",
"80 203 LINE SMOOTH",
"80 61 OFFCURVE",
"141 0 OFFCURVE",
"283 0 CURVE SMOOTH"
);
}
);
width = 655;
}
);
leftKerningGroup = O;
leftMetricsKey = O;
rightKerningGroup = C;
unicode = 0043;
},
{
color = 4;
glyphname = D;
layers = (
{
anchors = (
{
name = bottom;
position = "{328, 0}";
},
{
name = center;
position = "{151, 321}";
},
{
name = top;
position = "{296, 633}";
}
);
layerId = "C9A88445-F9B1-43BF-9834-532EB19954E9";
paths = (
{
closed = 1;
nodes = (
"352 0 LINE SMOOTH",
"515 0 OFFCURVE",
"585 70 OFFCURVE",
"585 233 CURVE SMOOTH",
"585 400 LINE SMOOTH",
"585 563 OFFCURVE",
"515 633 OFFCURVE",
"352 633 CURVE SMOOTH",
"111 633 LINE SMOOTH",
"97 633 OFFCURVE",
"90 626 OFFCURVE",
"90 612 CURVE SMOOTH",
"90 21 LINE SMOOTH",
"90 7 OFFCURVE",
"97 0 OFFCURVE",
"111 0 CURVE SMOOTH"
);
},
{
closed = 1;
nodes = (
"132 591 LINE",
"352 591 LINE SMOOTH",
"491 591 OFFCURVE",
"543 539 OFFCURVE",
"543 400 CURVE SMOOTH",
"543 233 LINE SMOOTH",
"543 94 OFFCURVE",
"491 42 OFFCURVE",
"352 42 CURVE SMOOTH",
"132 42 LINE"
);
}
);
width = 665;
}
);
leftKerningGroup = H;
leftMetricsKey = H;
rightKerningGroup = O;
rightMetricsKey = O;
unicode = 0044;
},
{
color = 4;
glyphname = E;
layers = (
{
anchors = (
{
name = bottom;
position = "{299, 0}";
},
{
name = ogonek;
position = "{488, 0}";
},
{
name = top;
position = "{319, 633}";
},
{
name = topleft;
position = "{89, 633}";
}
);
layerId = "C9A88445-F9B1-43BF-9834-532EB19954E9";
paths = (
{
closed = 1;
nodes = (
"491 0 LINE SMOOTH",
"505 0 OFFCURVE",
"512 7 OFFCURVE",
"512 21 CURVE SMOOTH",
"512 35 OFFCURVE",
"505 42 OFFCURVE",
"491 42 CURVE SMOOTH",
"132 42 LINE",
"132 591 LINE",
"491 591 LINE SMOOTH",
"505 591 OFFCURVE",
"512 598 OFFCURVE",
"512 612 CURVE SMOOTH",
"512 626 OFFCURVE",
"505 633 OFFCURVE",
"491 633 CURVE SMOOTH",
"111 633 LINE SMOOTH",
"97 633 OFFCURVE",
"90 626 OFFCURVE",
"90 612 CURVE SMOOTH",
"90 21 LINE SMOOTH",
"90 7 OFFCURVE",
"97 0 OFFCURVE",
"111 0 CURVE SMOOTH"
);
},
{
closed = 1;
nodes = (
"373 300 LINE SMOOTH",
"387 300 OFFCURVE",
"394 307 OFFCURVE",
"394 321 CURVE SMOOTH",
"394 335 OFFCURVE",
"387 342 OFFCURVE",
"373 342 CURVE SMOOTH",
"132 342 LINE SMOOTH",
"118 342 OFFCURVE",
"111 335 OFFCURVE",
"111 321 CURVE SMOOTH",
"111 307 OFFCURVE",
"118 300 OFFCURVE",
"132 300 CURVE SMOOTH"
);
}
);
width = 547;
}
);
leftKerningGroup = H;
leftMetricsKey = H;
rightKerningGroup = E;
unicode = 0045;
},
{
color = 4;
glyphname = F;
layers = (
{
anchors = (
{
name = bottom;
position = "{111, 0}";
},
{
name = top;
position = "{305, 633}";
}
);
layerId = "C9A88445-F9B1-43BF-9834-532EB19954E9";
paths = (
{
closed = 1;
nodes = (
"132 21 CURVE SMOOTH",
"132 300 LINE",
"369 300 LINE SMOOTH",
"383 300 OFFCURVE",
"390 307 OFFCURVE",
"390 321 CURVE SMOOTH",
"390 335 OFFCURVE",
"383 342 OFFCURVE",
"369 342 CURVE SMOOTH",
"132 342 LINE",
"132 591 LINE",
"469 591 LINE SMOOTH",
"483 591 OFFCURVE",
"490 598 OFFCURVE",
"490 612 CURVE SMOOTH",
"490 626 OFFCURVE",
"483 633 OFFCURVE",
"469 633 CURVE SMOOTH",
"111 633 LINE SMOOTH",
"97 633 OFFCURVE",
"90 626 OFFCURVE",
"90 612 CURVE SMOOTH",
"90 21 LINE SMOOTH",
"90 7 OFFCURVE",
"97 0 OFFCURVE",
"111 0 CURVE SMOOTH",
"125 0 OFFCURVE",
"132 7 OFFCURVE"
);
}
);
width = 490;
}
);
leftKerningGroup = H;
leftMetricsKey = H;
rightKerningGroup = F;
unicode = 0046;
},
{
color = 4;
glyphname = G;
lastChange = "2016-07-31 01:33:46 +0000";
layers = (
{
anchors = (
{
name = bottom;
position = "{333, 0}";
},
{
name = top;
position = "{333, 633}";
}
);
layerId = "C9A88445-F9B1-43BF-9834-532EB19954E9";
paths = (
{
closed = 1;
nodes = (
"403 0 LINE SMOOTH",
"532 0 OFFCURVE",
"586 54 OFFCURVE",
"586 183 CURVE SMOOTH",
"586 272 LINE SMOOTH",
"586 286 OFFCURVE",
"579 293 OFFCURVE",
"565 293 CURVE SMOOTH",
"424 294 LINE SMOOTH",
"410 294 OFFCURVE",
"403 287 OFFCURVE",
"403 273 CURVE SMOOTH",
"403 259 OFFCURVE",
"410 252 OFFCURVE",
"424 252 CURVE SMOOTH",
"544 251 LINE",
"544 183 LINE SMOOTH",
"544 77 OFFCURVE",
"509 42 OFFCURVE",
"403 42 CURVE SMOOTH",
"283 42 LINE SMOOTH",
"165 42 OFFCURVE",
"122 85 OFFCURVE",
"122 203 CURVE SMOOTH",
"122 430 LINE SMOOTH",
"122 549 OFFCURVE",
"164 591 OFFCURVE",
"282 591 CURVE SMOOTH",
"403 591 LINE SMOOTH",
"501 591 OFFCURVE",
"539 561 OFFCURVE",
"543 471 CURVE SMOOTH",
"544 457 OFFCURVE",
"551 450 OFFCURVE",
"565 450 CURVE SMOOTH",
"579 450 OFFCURVE",
"586 458 OFFCURVE",
"585 472 CURVE SMOOTH",
"580 585 OFFCURVE",
"525 633 OFFCURVE",
"403 633 CURVE SMOOTH",
"282 633 LINE SMOOTH",
"141 633 OFFCURVE",
"80 573 OFFCURVE",
"80 430 CURVE SMOOTH",
"80 203 LINE SMOOTH",
"80 61 OFFCURVE",
"141 0 OFFCURVE",
"283 0 CURVE SMOOTH"
);
}
);
width = 656;
}
);
leftKerningGroup = O;
leftMetricsKey = O;
rightKerningGroup = C;
rightMetricsKey = C;
unicode = 0047;
},
{
color = 4;
glyphname = H;
layers = (
{
anchors = (
{
name = bottom;
position = "{344, 0}";
},
{
name = center;
position = "{344, 461}";
},
{
name = top;
position = "{344, 633}";
},
{
name = topleft;
position = "{90, 633}";
}
);
layerId = "C9A88445-F9B1-43BF-9834-532EB19954E9";
paths = (
{
closed = 1;
nodes = (
"132 21 CURVE SMOOTH",
"132 300 LINE",
"555 300 LINE",
"555 21 LINE SMOOTH",
"555 7 OFFCURVE",
"562 0 OFFCURVE",
"576 0 CURVE SMOOTH",
"590 0 OFFCURVE",
"597 7 OFFCURVE",
"597 21 CURVE SMOOTH",
"597 612 LINE SMOOTH",
"597 626 OFFCURVE",
"590 633 OFFCURVE",
"576 633 CURVE SMOOTH",
"562 633 OFFCURVE",
"555 626 OFFCURVE",
"555 612 CURVE SMOOTH",
"555 342 LINE",
"132 342 LINE",
"132 612 LINE SMOOTH",
"132 626 OFFCURVE",
"125 633 OFFCURVE",
"111 633 CURVE SMOOTH",
"97 633 OFFCURVE",
"90 626 OFFCURVE",
"90 612 CURVE SMOOTH",
"90 21 LINE SMOOTH",
"90 7 OFFCURVE",
"97 0 OFFCURVE",
"111 0 CURVE SMOOTH",
"125 0 OFFCURVE",
"132 7 OFFCURVE"
);
}
);
width = 687;
}
);
leftKerningGroup = H;
rightKerningGroup = H;
unicode = 0048;
},
{
color = 4;
glyphname = I;
layers = (
{
anchors = (
{
name = bottom;
position = "{111, 0}";
},
{
name = ogonek;
position = "{111, 0}";
},
{
name = top;
position = "{111, 633}";
},
{
name = topleft;
position = "{90, 633}";
}
);
layerId = "C9A88445-F9B1-43BF-9834-532EB19954E9";
paths = (
{
closed = 1;
nodes = (
"132 21 CURVE SMOOTH",
"132 613 LINE SMOOTH",
"132 625 OFFCURVE",
"123 634 OFFCURVE",
"111 634 CURVE SMOOTH",
"99 634 OFFCURVE",
"90 625 OFFCURVE",
"90 613 CURVE SMOOTH",
"90 21 LINE SMOOTH",
"90 9 OFFCURVE",
"99 0 OFFCURVE",
"111 0 CURVE SMOOTH",
"123 0 OFFCURVE",
"132 9 OFFCURVE"
);
}
);
width = 222;
}
);
leftKerningGroup = H;
leftMetricsKey = H;
rightKerningGroup = H;
rightMetricsKey = H;
unicode = 0049;
},
{
color = 4;
glyphname = J;
lastChange = "2016-07-31 01:33:46 +0000";
layers = (
{
anchors = (
{
name = bottom;
position = "{219, 0}";
},
{
name = top;
position = "{391, 633}";
}
);
layerId = "C9A88445-F9B1-43BF-9834-532EB19954E9";
paths = (
{
closed = 1;
nodes = (
"231 0 LINE SMOOTH",
"360 0 OFFCURVE",
"414 54 OFFCURVE",
"414 183 CURVE SMOOTH",
"414 612 LINE SMOOTH",
"414 626 OFFCURVE",
"407 633 OFFCURVE",
"393 633 CURVE SMOOTH",
"379 633 OFFCURVE",
"372 626 OFFCURVE",
"372 612 CURVE SMOOTH",
"372 183 LINE SMOOTH",
"372 77 OFFCURVE",
"337 42 OFFCURVE",
"231 42 CURVE SMOOTH",
"204 42 LINE SMOOTH",
"106 42 OFFCURVE",
"68 72 OFFCURVE",
"64 162 CURVE SMOOTH",
"63 176 OFFCURVE",
"56 183 OFFCURVE",
"42 183 CURVE SMOOTH",
"28 183 OFFCURVE",
"21 175 OFFCURVE",
"22 161 CURVE SMOOTH",
"27 48 OFFCURVE",
"82 0 OFFCURVE",
"204 0 CURVE SMOOTH"
);
}
);
width = 494;
}
);
leftKerningGroup = J;
rightKerningGroup = U;
rightMetricsKey = U;
unicode = 004A;
},
{
color = 4;
glyphname = K;
layers = (
{
anchors = (
{
name = bottom;
position = "{273, 0}";
},
{
name = top;
position = "{263, 633}";
}
);
layerId = "C9A88445-F9B1-43BF-9834-532EB19954E9";
paths = (
{
closed = 1;
nodes = (
"130 245 CURVE SMOOTH",
"473 596 LINE SMOOTH",
"482 606 OFFCURVE",
"482 617 OFFCURVE",
"472 626 CURVE SMOOTH",
"462 636 OFFCURVE",
"452 635 OFFCURVE",
"443 626 CURVE SMOOTH",
"100 275 LINE SMOOTH",
"90 265 OFFCURVE",
"90 254 OFFCURVE",
"100 245 CURVE SMOOTH",
"110 235 OFFCURVE",
"120 236 OFFCURVE"
);
},
{
closed = 1;
nodes = (
"132 21 CURVE SMOOTH",
"132 612 LINE SMOOTH",
"132 626 OFFCURVE",
"125 633 OFFCURVE",
"111 633 CURVE SMOOTH",
"97 633 OFFCURVE",
"90 626 OFFCURVE",
"90 612 CURVE SMOOTH",
"90 21 LINE SMOOTH",
"90 7 OFFCURVE",
"97 0 OFFCURVE",
"111 0 CURVE SMOOTH",
"125 0 OFFCURVE",
"132 7 OFFCURVE"
);
},
{
closed = 1;
nodes = (
"513 31 CURVE SMOOTH",
"241 368 LINE SMOOTH",
"233 379 OFFCURVE",
"222 380 OFFCURVE",
"212 371 CURVE SMOOTH",
"201 363 OFFCURVE",
"200 352 OFFCURVE",
"209 342 CURVE SMOOTH",
"481 4 LINE SMOOTH",
"489 -6 OFFCURVE",
"499 -8 OFFCURVE",
"510 1 CURVE SMOOTH",
"521 10 OFFCURVE",
"522 20 OFFCURVE"
);
}
);
width = 539;
}
);
leftKerningGroup = H;
leftMetricsKey = H;
rightKerningGroup = K;
unicode = 004B;
},
{
color = 4;
glyphname = L;
layers = (
{
anchors = (
{
name = bottom;
position = "{274, 0}";
},
{
name = center;
position = "{136, 317}";
},
{
name = top;
position = "{111, 633}";
},
{
name = topright;
position = "{212, 416}";
}
);
layerId = "C9A88445-F9B1-43BF-9834-532EB19954E9";
paths = (
{
closed = 1;
nodes = (
"445 0 LINE SMOOTH",
"459 0 OFFCURVE",
"466 7 OFFCURVE",
"466 21 CURVE SMOOTH",
"466 35 OFFCURVE",
"459 42 OFFCURVE",
"445 42 CURVE SMOOTH",
"132 42 LINE",
"132 612 LINE SMOOTH",
"132 626 OFFCURVE",
"125 633 OFFCURVE",
"111 633 CURVE SMOOTH",
"97 633 OFFCURVE",
"90 626 OFFCURVE",
"90 612 CURVE SMOOTH",
"90 21 LINE SMOOTH",
"90 7 OFFCURVE",
"97 0 OFFCURVE",
"111 0 CURVE SMOOTH"
);
}
);
width = 486;
}
);
leftKerningGroup = H;
leftMetricsKey = H;
rightKerningGroup = L;
unicode = 004C;
},
{
color = 4;
glyphname = M;
layers = (
{
anchors = (
{
name = bottom;
position = "{384, 0}";
},
{
name = top;
position = "{384, 633}";
}
);
layerId = "C9A88445-F9B1-43BF-9834-532EB19954E9";
paths = (
{
closed = 1;
nodes = (
"132 21 CURVE SMOOTH",
"132 561 LINE SMOOTH",
"132 578 OFFCURVE",
"111 588 OFFCURVE",
"118 571 CURVE SMOOTH",
"119 569 OFFCURVE",
"120 568 OFFCURVE",
"121 566 CURVE SMOOTH",
"359 200 LINE SMOOTH",
"365 190 OFFCURVE",
"373 186 OFFCURVE",
"384 186 CURVE SMOOTH",
"395 186 OFFCURVE",
"403 190 OFFCURVE",
"409 200 CURVE SMOOTH",
"647 566 LINE SMOOTH",
"656 580 OFFCURVE",
"660 591 OFFCURVE",
"656 591 CURVE SMOOTH",
"642 591 OFFCURVE",
"635 584 OFFCURVE",
"635 570 CURVE SMOOTH",
"635 21 LINE SMOOTH",
"635 7 OFFCURVE",
"642 0 OFFCURVE",
"656 0 CURVE SMOOTH",
"670 0 OFFCURVE",
"677 7 OFFCURVE",
"677 21 CURVE SMOOTH",
"677 612 LINE SMOOTH",
"677 626 OFFCURVE",
"670 633 OFFCURVE",
"657 633 CURVE SMOOTH",
"646 633 OFFCURVE",
"638 629 OFFCURVE",
"632 619 CURVE SMOOTH",
"379 229 LINE",
"389 230 LINE",
"136 619 LINE SMOOTH",
"130 629 OFFCURVE",
"122 633 OFFCURVE",
"111 633 CURVE SMOOTH",
"97 633 OFFCURVE",
"90 626 OFFCURVE",
"90 612 CURVE SMOOTH",
"90 21 LINE SMOOTH",
"90 7 OFFCURVE",
"97 0 OFFCURVE",
"111 0 CURVE SMOOTH",
"125 0 OFFCURVE",
"132 7 OFFCURVE"
);
}
);
width = 767;
}
);
leftKerningGroup = H;
leftMetricsKey = H;
rightKerningGroup = H;
rightMetricsKey = H;
unicode = 004D;
},
{
color = 4;
glyphname = N;
layers = (
{
anchors = (
{
name = bottom;
position = "{353, 0}";
},
{
name = top;
position = "{353, 633}";
}
);
layerId = "C9A88445-F9B1-43BF-9834-532EB19954E9";
paths = (
{
closed = 1;
nodes = (
"132 21 CURVE SMOOTH",
"132 560 LINE",
"123 565 LINE",
"554 12 LINE SMOOTH",
"561 4 OFFCURVE",
"567 0 OFFCURVE",
"576 0 CURVE SMOOTH",
"590 0 OFFCURVE",
"597 7 OFFCURVE",
"597 21 CURVE SMOOTH",
"597 612 LINE SMOOTH",
"597 626 OFFCURVE",
"590 633 OFFCURVE",
"576 633 CURVE SMOOTH",
"562 633 OFFCURVE",
"555 626 OFFCURVE",
"555 612 CURVE SMOOTH",
"555 73 LINE",
"564 68 LINE",
"133 621 LINE SMOOTH",
"126 629 OFFCURVE",
"120 633 OFFCURVE",
"111 633 CURVE SMOOTH",
"97 633 OFFCURVE",
"90 626 OFFCURVE",
"90 612 CURVE SMOOTH",
"90 21 LINE SMOOTH",
"90 7 OFFCURVE",
"97 0 OFFCURVE",
"111 0 CURVE SMOOTH",
"125 0 OFFCURVE",
"132 7 OFFCURVE"
);
}
);
width = 687;
}
);
leftKerningGroup = H;
leftMetricsKey = H;
rightKerningGroup = H;
rightMetricsKey = H;
unicode = 004E;
},
{
color = 4;
glyphname = Eng;
layers = (
{
components = (
{
name = N;
}
);
layerId = "C9A88445-F9B1-43BF-9834-532EB19954E9";
paths = (
{
closed = 1;
nodes = (
"474 -200 LINE SMOOTH",
"559 -200 OFFCURVE",
"597 -162 OFFCURVE",
"597 -77 CURVE SMOOTH",
"597 140 LINE SMOOTH",
"597 154 OFFCURVE",
"590 161 OFFCURVE",
"576 161 CURVE SMOOTH",
"562 161 OFFCURVE",
"555 154 OFFCURVE",
"555 140 CURVE SMOOTH",
"555 -77 LINE SMOOTH",
"555 -139 OFFCURVE",
"536 -158 OFFCURVE",
"474 -158 CURVE SMOOTH",
"365 -158 LINE SMOOTH",
"311 -158 OFFCURVE",
"288 -144 OFFCURVE",
"285 -98 CURVE SMOOTH",
"284 -84 OFFCURVE",
"277 -77 OFFCURVE",
"263 -77 CURVE SMOOTH",
"250 -77 OFFCURVE",
"242 -85 OFFCURVE",
"243 -99 CURVE SMOOTH",
"248 -169 OFFCURVE",
"287 -200 OFFCURVE",
"365 -200 CURVE SMOOTH"
);
}
);
width = 687;
}
);
leftKerningGroup = H;
leftMetricsKey = N;
rightKerningGroup = H;
rightMetricsKey = N;
unicode = 014A;
},
{
color = 4;
glyphname = O;
layers = (
{
anchors = (
{
name = bottom;
position = "{343, 0}";
},
{
name = center;
position = "{343, 317}";
},
{
name = ogonek;
position = "{508, 20}";
},
{
name = top;
position = "{343, 633}";
},
{
name = topleft;
position = "{80, 633}";
},
{
name = topright;
position = "{533, 604}";
}
);
layerId = "C9A88445-F9B1-43BF-9834-532EB19954E9";
paths = (
{
closed = 1;
nodes = (
"403 0 LINE SMOOTH",
"545 0 OFFCURVE",
"606 61 OFFCURVE",
"606 203 CURVE SMOOTH",
"606 430 LINE SMOOTH",
"606 572 OFFCURVE",
"545 633 OFFCURVE",
"403 633 CURVE SMOOTH",
"282 633 LINE SMOOTH",
"141 634 OFFCURVE",
"80 573 OFFCURVE",
"80 430 CURVE SMOOTH",
"80 203 LINE SMOOTH",
"80 61 OFFCURVE",
"141 0 OFFCURVE",
"283 0 CURVE SMOOTH"
);
},
{
closed = 1;
nodes = (
"122 203 CURVE SMOOTH",
"122 430 LINE SMOOTH",
"122 549 OFFCURVE",
"164 592 OFFCURVE",
"282 591 CURVE SMOOTH",
"403 591 LINE SMOOTH",
"521 591 OFFCURVE",
"564 548 OFFCURVE",
"564 430 CURVE SMOOTH",
"564 203 LINE SMOOTH",
"564 85 OFFCURVE",
"521 42 OFFCURVE",
"403 42 CURVE SMOOTH",
"283 42 LINE SMOOTH",
"165 42 OFFCURVE",
"122 85 OFFCURVE"
);
}
);
width = 686;
}
);
leftKerningGroup = O;
rightKerningGroup = O;
unicode = 004F;
},
{
color = 4;
glyphname = OE;
layers = (
{
layerId = "C9A88445-F9B1-43BF-9834-532EB19954E9";
paths = (
{
closed = 1;
nodes = (
"463 42 LINE",
"463 300 LINE",
"634 300 LINE SMOOTH",
"648 300 OFFCURVE",
"655 307 OFFCURVE",
"655 321 CURVE SMOOTH",
"655 335 OFFCURVE",
"648 342 OFFCURVE",
"634 342 CURVE SMOOTH",
"463 342 LINE",
"463 591 LINE",
"752 591 LINE SMOOTH",
"766 591 OFFCURVE",
"773 598 OFFCURVE",
"773 612 CURVE SMOOTH",
"773 626 OFFCURVE",
"766 633 OFFCURVE",
"752 633 CURVE SMOOTH",
"282 633 LINE SMOOTH",
"141 633 OFFCURVE",
"80 573 OFFCURVE",
"80 430 CURVE SMOOTH",
"80 203 LINE SMOOTH",
"80 61 OFFCURVE",
"141 0 OFFCURVE",
"283 0 CURVE SMOOTH",
"752 0 LINE SMOOTH",
"766 0 OFFCURVE",
"773 7 OFFCURVE",
"773 21 CURVE SMOOTH",
"773 35 OFFCURVE",
"766 42 OFFCURVE",
"752 42 CURVE SMOOTH"
);
},
{
closed = 1;
nodes = (
"122 430 LINE SMOOTH",
"122 549 OFFCURVE",
"164 591 OFFCURVE",
"282 591 CURVE SMOOTH",
"421 591 LINE",
"421 42 LINE",
"283 42 LINE SMOOTH",
"165 42 OFFCURVE",
"122 85 OFFCURVE",
"122 203 CURVE SMOOTH"
);
}
);
width = 808;
}
);
leftKerningGroup = O;
leftMetricsKey = O;
rightKerningGroup = E;
rightMetricsKey = E;
unicode = 0152;
},
{
color = 4;
glyphname = P;
layers = (
{
anchors = (
{
name = bottom;
position = "{110, 0}";
},
{
name = top;
position = "{270, 633}";
}
);
layerId = "C9A88445-F9B1-43BF-9834-532EB19954E9";
paths = (
{
closed = 1;
nodes = (
"132 21 CURVE SMOOTH",
"132 591 LINE",
"345 591 LINE SMOOTH",
"432 591 OFFCURVE",
"471 552 OFFCURVE",
"471 465 CURVE SMOOTH",
"471 435 LINE SMOOTH",
"471 348 OFFCURVE",
"432 309 OFFCURVE",
"345 309 CURVE SMOOTH",
"132 309 LINE SMOOTH",
"118 309 OFFCURVE",
"111 302 OFFCURVE",
"111 288 CURVE SMOOTH",
"111 274 OFFCURVE",
"118 267 OFFCURVE",
"132 267 CURVE SMOOTH",
"345 267 LINE SMOOTH",
"456 267 OFFCURVE",
"513 324 OFFCURVE",
"513 435 CURVE SMOOTH",
"513 465 LINE SMOOTH",
"513 576 OFFCURVE",
"456 633 OFFCURVE",
"345 633 CURVE SMOOTH",
"111 633 LINE SMOOTH",
"97 633 OFFCURVE",
"90 626 OFFCURVE",
"90 612 CURVE SMOOTH",
"90 21 LINE SMOOTH",
"90 7 OFFCURVE",
"97 0 OFFCURVE",
"111 0 CURVE SMOOTH",
"125 0 OFFCURVE",
"132 7 OFFCURVE"
);
}
);
width = 543;
}
);
leftKerningGroup = H;
leftMetricsKey = H;
rightKerningGroup = P;
unicode = 0050;
},
{
color = 4;
glyphname = Thorn;
layers = (
{
layerId = "C9A88445-F9B1-43BF-9834-532EB19954E9";
paths = (
{
closed = 1;
nodes = (
"297 178 LINE SMOOTH",
"408 178 OFFCURVE",
"465 235 OFFCURVE",
"465 346 CURVE SMOOTH",
"465 376 LINE SMOOTH",
"465 487 OFFCURVE",
"408 544 OFFCURVE",
"297 544 CURVE SMOOTH",
"132 544 LINE SMOOTH",
"118 544 OFFCURVE",
"111 537 OFFCURVE",
"111 523 CURVE SMOOTH",
"111 509 OFFCURVE",
"118 502 OFFCURVE",
"132 502 CURVE SMOOTH",
"297 502 LINE SMOOTH",
"384 502 OFFCURVE",
"423 463 OFFCURVE",
"423 376 CURVE SMOOTH",
"423 346 LINE SMOOTH",
"423 259 OFFCURVE",
"384 220 OFFCURVE",
"297 220 CURVE SMOOTH",
"132 220 LINE SMOOTH",
"118 220 OFFCURVE",
"111 213 OFFCURVE",
"111 199 CURVE SMOOTH",
"111 185 OFFCURVE",
"118 178 OFFCURVE",
"132 178 CURVE SMOOTH"
);
},
{
closed = 1;
nodes = (
"125 0 OFFCURVE",
"132 7 OFFCURVE",
"132 21 CURVE SMOOTH",
"132 612 LINE SMOOTH",
"132 626 OFFCURVE",
"125 633 OFFCURVE",
"111 633 CURVE SMOOTH",
"97 633 OFFCURVE",
"90 626 OFFCURVE",
"90 612 CURVE SMOOTH",
"90 21 LINE SMOOTH",
"90 7 OFFCURVE",
"97 0 OFFCURVE",
"111 0 CURVE SMOOTH"
);
}
);
width = 495;
}
);
leftKerningGroup = H;
leftMetricsKey = H;
rightKerningGroup = P;
rightMetricsKey = P;
unicode = 00DE;
},
{
color = 4;
glyphname = Q;
lastChange = "2016-07-31 01:33:46 +0000";
layers = (
{
anchors = (
{
name = bottom;
position = "{343, 0}";
},
{
name = top;
position = "{343, 633}";
}
);
components = (
{
name = O;
}
);
layerId = "C9A88445-F9B1-43BF-9834-532EB19954E9";
paths = (
{
closed = 1;
nodes = (
"598 2 CURVE SMOOTH",
"477 125 LINE SMOOTH",
"467 135 OFFCURVE",
"457 135 OFFCURVE",
"447 125 CURVE SMOOTH",
"437 115 OFFCURVE",
"437 105 OFFCURVE",
"447 95 CURVE SMOOTH",
"568 -28 LINE SMOOTH",
"578 -38 OFFCURVE",
"588 -38 OFFCURVE",
"598 -28 CURVE SMOOTH",
"608 -18 OFFCURVE",
"608 -8 OFFCURVE"
);
}
);
width = 686;
}
);
leftKerningGroup = O;
leftMetricsKey = O;
rightKerningGroup = O;
rightMetricsKey = O;
unicode = 0051;
},
{
color = 4;
glyphname = R;
layers = (
{
anchors = (
{
name = bottom;
position = "{291, 0}";
},
{
name = top;
position = "{291, 633}";
}
);
components = (
{
name = P;
}
);
layerId = "C9A88445-F9B1-43BF-9834-532EB19954E9";
paths = (
{
closed = 1;
nodes = (
"532 28 CURVE SMOOTH",
"363 294 LINE",
"356 306 OFFCURVE",
"346 308 OFFCURVE",
"334 301 CURVE SMOOTH",
"322 294 OFFCURVE",
"320 284 OFFCURVE",
"327 272 CURVE",
"497 5 LINE SMOOTH",
"504 -6 OFFCURVE",
"514 -8 OFFCURVE",
"526 -1 CURVE SMOOTH",
"538 6 OFFCURVE",
"540 16 OFFCURVE"
);
}
);
width = 582;
}
);
leftKerningGroup = H;
leftMetricsKey = H;
rightKerningGroup = R;
unicode = 0052;
},
{
color = 4;
glyphname = S;
layers = (
{
anchors = (
{
name = bottom;
position = "{326, 0}";
},
{
name = top;
position = "{326, 633}";
}
);
layerId = "C9A88445-F9B1-43BF-9834-532EB19954E9";
paths = (
{
closed = 1;
nodes = (
"398 1 LINE SMOOTH",
"519 1 OFFCURVE",
"572 54 OFFCURVE",
"572 174 CURVE SMOOTH",
"572 294 OFFCURVE",
"519 347 OFFCURVE",
"398 347 CURVE SMOOTH",
"257 347 LINE SMOOTH",
"166 347 OFFCURVE",
"134 379 OFFCURVE",
"134 469 CURVE SMOOTH",
"134 559 OFFCURVE",
"166 591 OFFCURVE",
"256 591 CURVE SMOOTH",
"403 591 LINE SMOOTH",
"493 591 OFFCURVE",
"525 559 OFFCURVE",
"525 470 CURVE SMOOTH",
"525 458 OFFCURVE",
"534 449 OFFCURVE",
"546 449 CURVE SMOOTH",
"558 449 OFFCURVE",
"567 458 OFFCURVE",
"567 470 CURVE SMOOTH",
"567 583 OFFCURVE",
"517 633 OFFCURVE",
"403 633 CURVE SMOOTH",
"256 633 LINE SMOOTH",
"142 633 OFFCURVE",
"92 583 OFFCURVE",
"92 469 CURVE SMOOTH",
"92 355 OFFCURVE",
"142 305 OFFCURVE",
"257 305 CURVE SMOOTH",
"398 305 LINE SMOOTH",
"496 305 OFFCURVE",
"530 271 OFFCURVE",
"530 174 CURVE SMOOTH",
"530 77 OFFCURVE",
"496 43 OFFCURVE",
"398 43 CURVE SMOOTH",
"254 43 LINE SMOOTH",
"156 43 OFFCURVE",
"122 77 OFFCURVE",
"122 174 CURVE SMOOTH",
"122 186 OFFCURVE",
"113 195 OFFCURVE",
"101 195 CURVE SMOOTH",
"89 195 OFFCURVE",
"80 186 OFFCURVE",
"80 174 CURVE SMOOTH",
"80 54 OFFCURVE",
"133 1 OFFCURVE",
"254 1 CURVE SMOOTH"
);
}
);
width = 652;
}
);
leftKerningGroup = S;
leftMetricsKey = O;
rightKerningGroup = S;
rightMetricsKey = O;
unicode = 0053;
},
{
color = 4;
glyphname = Germandbls;
layers = (
{
layerId = "C9A88445-F9B1-43BF-9834-532EB19954E9";
paths = (
{
closed = 1;
nodes = (
"125 0 OFFCURVE",
"132 7 OFFCURVE",
"132 21 CURVE SMOOTH",
"132 480 LINE SMOOTH",
"132 570 OFFCURVE",
"164 602 OFFCURVE",
"254 602 CURVE SMOOTH",
"262 602 LINE SMOOTH",
"349 602 OFFCURVE",
"381 572 OFFCURVE",
"383 489 CURVE",
"300 398 LINE",
"300 362 LINE",
"395 298 OFFCURVE",
"431 240 OFFCURVE",
"431 160 CURVE SMOOTH",
"431 73 OFFCURVE",
"400 42 OFFCURVE",
"313 42 CURVE SMOOTH",
"243 42 LINE SMOOTH",
"229 42 OFFCURVE",
"222 35 OFFCURVE",
"222 21 CURVE SMOOTH",
"222 7 OFFCURVE",
"229 0 OFFCURVE",
"243 0 CURVE SMOOTH",
"313 0 LINE SMOOTH",
"424 0 OFFCURVE",
"473 49 OFFCURVE",
"473 160 CURVE SMOOTH",
"473 248 OFFCURVE",
"434 316 OFFCURVE",
"343 383 CURVE",
"415 462 LINE SMOOTH",
"422 470 OFFCURVE",
"425 477 OFFCURVE",
"425 488 CURVE SMOOTH",
"423 596 OFFCURVE",
"372 644 OFFCURVE",
"262 644 CURVE SMOOTH",
"254 644 LINE SMOOTH",
"140 644 OFFCURVE",
"90 594 OFFCURVE",
"90 480 CURVE SMOOTH",
"90 21 LINE SMOOTH",
"90 7 OFFCURVE",
"97 0 OFFCURVE",
"111 0 CURVE SMOOTH"
);
}
);
width = 553;
}
);
leftKerningGroup = H;
leftMetricsKey = n;
rightKerningGroup = Germandbls;
rightMetricsKey = o;
unicode = 1E9E;
},
{
color = 4;
glyphname = Schwa;
layers = (
{
layerId = "C9A88445-F9B1-43BF-9834-532EB19954E9";
paths = (
{
closed = 1;
nodes = (
"403 1 LINE SMOOTH",
"545 1 OFFCURVE",
"606 62 OFFCURVE",
"606 204 CURVE SMOOTH",
"606 430 LINE SMOOTH",
"606 572 OFFCURVE",
"545 633 OFFCURVE",
"403 633 CURVE SMOOTH",
"283 633 LINE SMOOTH",
"141 633 OFFCURVE",
"80 572 OFFCURVE",
"80 430 CURVE SMOOTH",
"80 418 OFFCURVE",
"89 409 OFFCURVE",
"101 409 CURVE SMOOTH",
"113 409 OFFCURVE",
"122 418 OFFCURVE",
"122 430 CURVE SMOOTH",
"122 548 OFFCURVE",
"165 591 OFFCURVE",
"283 591 CURVE SMOOTH",
"403 591 LINE SMOOTH",
"521 591 OFFCURVE",
"564 548 OFFCURVE",
"564 430 CURVE SMOOTH",
"564 288 LINE",
"80 288 LINE",
"80 204 LINE SMOOTH",
"80 62 OFFCURVE",
"141 1 OFFCURVE",
"283 1 CURVE SMOOTH"
);
},
{
closed = 1;
nodes = (
"165 43 OFFCURVE",
"122 86 OFFCURVE",
"122 204 CURVE SMOOTH",
"122 246 LINE",
"564 246 LINE",
"564 204 LINE SMOOTH",
"564 86 OFFCURVE",
"521 43 OFFCURVE",
"403 43 CURVE SMOOTH",
"283 43 LINE SMOOTH"
);
}
);
width = 686;
}
);
leftKerningGroup = O;
leftMetricsKey = O;
rightKerningGroup = O;
rightMetricsKey = O;
unicode = 018F;
},
{
color = 4;
glyphname = T;
layers = (
{
anchors = (
{
name = bottom;
position = "{276, 0}";
},
{
name = center;
position = "{276, 317}";
},
{
name = top;
position = "{276, 633}";
}
);
layerId = "C9A88445-F9B1-43BF-9834-532EB19954E9";
paths = (
{
closed = 1;
nodes = (
"297 20 CURVE SMOOTH",
"297 592 LINE",
"516 592 LINE SMOOTH",
"528 592 OFFCURVE",
"537 601 OFFCURVE",
"537 613 CURVE SMOOTH",
"537 625 OFFCURVE",
"528 634 OFFCURVE",
"516 634 CURVE SMOOTH",
"36 634 LINE SMOOTH",
"24 634 OFFCURVE",
"15 625 OFFCURVE",
"15 613 CURVE SMOOTH",
"15 601 OFFCURVE",
"24 592 OFFCURVE",
"36 592 CURVE SMOOTH",
"255 592 LINE",
"255 20 LINE SMOOTH",
"255 8 OFFCURVE",
"264 -1 OFFCURVE",
"276 -1 CURVE SMOOTH",
"288 -1 OFFCURVE",
"297 8 OFFCURVE"
);
}
);
width = 552;
}
);
leftKerningGroup = T;
rightKerningGroup = T;
unicode = 0054;
},
{
color = 4;
glyphname = U;
layers = (
{
anchors = (
{
name = bottom;
position = "{343, 0}";
},
{
name = ogonek;
position = "{556, 59}";
},
{
name = top;
position = "{343, 633}";
},
{
name = topright;
position = "{585, 633}";
}
);
layerId = "C9A88445-F9B1-43BF-9834-532EB19954E9";
paths = (
{
closed = 1;
nodes = (
"403 0 LINE SMOOTH",
"545 0 OFFCURVE",
"606 61 OFFCURVE",
"606 203 CURVE SMOOTH",
"606 612 LINE SMOOTH",
"606 624 OFFCURVE",
"597 633 OFFCURVE",
"585 633 CURVE SMOOTH",
"573 633 OFFCURVE",
"564 624 OFFCURVE",
"564 612 CURVE SMOOTH",
"564 203 LINE SMOOTH",
"564 85 OFFCURVE",
"521 42 OFFCURVE",
"403 42 CURVE SMOOTH",
"283 42 LINE SMOOTH",
"165 42 OFFCURVE",
"122 85 OFFCURVE",
"122 203 CURVE SMOOTH",
"122 612 LINE SMOOTH",
"122 624 OFFCURVE",
"113 633 OFFCURVE",
"101 633 CURVE SMOOTH",
"89 633 OFFCURVE",
"80 624 OFFCURVE",
"80 612 CURVE SMOOTH",
"80 203 LINE SMOOTH",
"80 61 OFFCURVE",
"141 0 OFFCURVE",
"283 0 CURVE SMOOTH"
);
}
);
width = 686;
}
);
leftKerningGroup = U;
leftMetricsKey = "=H-10";
rightKerningGroup = U;
rightMetricsKey = "=H-10";
unicode = 0055;
},
{
color = 4;
glyphname = V;
layers = (
{
anchors = (
{
name = bottom;
position = "{298, 0}";
},
{
name = top;
position = "{298, 633}";
}
);
layerId = "C9A88445-F9B1-43BF-9834-532EB19954E9";
paths = (
{
closed = 1;
nodes = (
"301 0 LINE",
"310 0 OFFCURVE",
"317 5 OFFCURVE",
"320 13 CURVE SMOOTH",
"584 603 LINE SMOOTH",
"592 621 OFFCURVE",
"580 633 OFFCURVE",
"565 633 CURVE SMOOTH",
"556 633 OFFCURVE",
"549 628 OFFCURVE",
"546 620 CURVE SMOOTH",
"298 66 LINE",
"50 620 LINE SMOOTH",
"47 628 OFFCURVE",
"40 633 OFFCURVE",
"31 633 CURVE SMOOTH",
"18 633 OFFCURVE",
"4 621 OFFCURVE",
"12 603 CURVE SMOOTH",
"276 13 LINE SMOOTH",
"279 5 OFFCURVE",
"286 0 OFFCURVE",
"295 0 CURVE"
);
}
);
width = 597;
}
);
leftKerningGroup = V;
rightKerningGroup = V;
unicode = 0056;
},
{
color = 4;
glyphname = W;
layers = (
{
anchors = (
{
name = bottom;
position = "{420, 0}";
},
{
name = top;
position = "{420, 633}";
}
);
layerId = "C9A88445-F9B1-43BF-9834-532EB19954E9";
paths = (
{
closed = 1;
nodes = (
"231 0 LINE",
"242 0 OFFCURVE",
"248 5 OFFCURVE",
"251 15 CURVE SMOOTH",
"433 600 LINE",
"407 600 LINE",
"589 15 LINE SMOOTH",
"592 5 OFFCURVE",
"598 0 OFFCURVE",
"609 0 CURVE",
"615 0 LINE",
"625 0 OFFCURVE",
"632 5 OFFCURVE",
"635 15 CURVE SMOOTH",
"829 605 LINE SMOOTH",
"833 618 OFFCURVE",
"829 633 OFFCURVE",
"809 633 CURVE SMOOTH",
"799 633 OFFCURVE",
"792 628 OFFCURVE",
"789 618 CURVE SMOOTH",
"598 38 LINE",
"625 38 LINE",
"445 618 LINE SMOOTH",
"442 628 OFFCURVE",
"436 633 OFFCURVE",
"425 633 CURVE",
"415 633 LINE",
"404 633 OFFCURVE",
"398 628 OFFCURVE",
"395 618 CURVE SMOOTH",
"215 38 LINE",
"242 38 LINE",
"51 618 LINE SMOOTH",
"48 628 OFFCURVE",
"41 633 OFFCURVE",
"31 633 CURVE SMOOTH",
"13 633 OFFCURVE",
"7 617 OFFCURVE",
"11 605 CURVE SMOOTH",
"205 15 LINE SMOOTH",
"208 5 OFFCURVE",
"215 0 OFFCURVE",
"225 0 CURVE"
);
}
);
width = 841;
}
);
leftKerningGroup = V;
leftMetricsKey = V;
rightKerningGroup = V;
rightMetricsKey = V;
unicode = 0057;
},
{
color = 4;
glyphname = X;
layers = (
{
anchors = (
{
name = bottom;
position = "{272, 0}";
},
{
name = top;
position = "{270, 633}";
}
);
layerId = "C9A88445-F9B1-43BF-9834-532EB19954E9";
paths = (
{
closed = 1;
nodes = (
"72 11 CURVE SMOOTH",
"270 299 LINE",
"478 10 LINE SMOOTH",
"486 -1 OFFCURVE",
"496 -3 OFFCURVE",
"507 5 CURVE SMOOTH",
"518 13 OFFCURVE",
"520 23 OFFCURVE",
"512 34 CURVE SMOOTH",
"299 331 LINE",
"496 599 LINE SMOOTH",
"504 610 OFFCURVE",
"503 620 OFFCURVE",
"492 628 CURVE SMOOTH",
"481 636 OFFCURVE",
"470 635 OFFCURVE",
"462 624 CURVE SMOOTH",
"272 368 LINE",
"90 623 LINE SMOOTH",
"82 634 OFFCURVE",
"71 636 OFFCURVE",
"60 628 CURVE SMOOTH",
"49 620 OFFCURVE",
"47 610 OFFCURVE",
"55 599 CURVE SMOOTH",
"244 335 LINE",
"37 34 LINE SMOOTH",
"30 23 OFFCURVE",
"32 13 OFFCURVE",
"43 5 CURVE SMOOTH",
"54 -3 OFFCURVE",
"64 -1 OFFCURVE"
);
}
);
width = 559;
}
);
leftKerningGroup = X;
rightKerningGroup = X;
unicode = 0058;
},
{
color = 4;
glyphname = Y;
layers = (
{
anchors = (
{
name = bottom;
position = "{259, 0}";
},
{
name = top;
position = "{259, 633}";
},
{
name = topleft;
position = "{24, 633}";
}
);
layerId = "C9A88445-F9B1-43BF-9834-532EB19954E9";
paths = (
{
closed = 1;
nodes = (
"465 623 CURVE SMOOTH",
"257 295 LINE",
"50 622 LINE",
"43 634 OFFCURVE",
"32 636 OFFCURVE",
"21 629 CURVE SMOOTH",
"9 621 OFFCURVE",
"7 611 OFFCURVE",
"14 600 CURVE",
"236 250 LINE",
"236 21 LINE SMOOTH",
"236 7 OFFCURVE",
"243 0 OFFCURVE",
"257 0 CURVE SMOOTH",
"271 0 OFFCURVE",
"278 7 OFFCURVE",
"278 21 CURVE SMOOTH",
"278 250 LINE",
"500 600 LINE",
"508 612 OFFCURVE",
"506 622 OFFCURVE",
"494 629 CURVE SMOOTH",
"482 636 OFFCURVE",
"472 634 OFFCURVE"
);
}
);
width = 515;
}
);
leftKerningGroup = Y;
leftMetricsKey = V;
rightKerningGroup = Y;
rightMetricsKey = V;
unicode = 0059;
},
{
color = 4;
glyphname = Z;
layers = (
{
anchors = (
{
name = bottom;
position = "{309, 0}";
},
{
name = top;
position = "{318, 633}";
}
);
layerId = "C9A88445-F9B1-43BF-9834-532EB19954E9";
paths = (
{
closed = 1;
nodes = (
"413 0 LINE SMOOTH",
"500 0 OFFCURVE",
"549 41 OFFCURVE",
"555 121 CURVE SMOOTH",
"556 135 OFFCURVE",
"548 143 OFFCURVE",
"534 143 CURVE SMOOTH",
"521 143 OFFCURVE",
"514 136 OFFCURVE",
"513 122 CURVE",
"507 66 OFFCURVE",
"476 42 OFFCURVE",
"413 42 CURVE SMOOTH",
"97 42 LINE",
"107 23 LINE",
"524 584 LINE SMOOTH",
"531 593 OFFCURVE",
"533 600 OFFCURVE",
"533 612 CURVE SMOOTH",
"533 626 OFFCURVE",
"526 633 OFFCURVE",
"512 633 CURVE SMOOTH",
"182 633 LINE SMOOTH",
"95 633 OFFCURVE",
"46 592 OFFCURVE",
"40 512 CURVE SMOOTH",
"39 498 OFFCURVE",
"47 490 OFFCURVE",
"60 490 CURVE SMOOTH",
"74 490 OFFCURVE",
"81 497 OFFCURVE",
"82 511 CURVE",
"88 567 OFFCURVE",
"119 591 OFFCURVE",
"182 591 CURVE SMOOTH",
"497 591 LINE",
"484 601 LINE",
"68 47 LINE SMOOTH",
"61 37 OFFCURVE",
"57 31 OFFCURVE",
"57 21 CURVE SMOOTH",
"57 7 OFFCURVE",
"65 0 OFFCURVE",
"80 0 CURVE SMOOTH"
);
}
);
width = 595;
}
);
leftKerningGroup = Z;
rightKerningGroup = Z;
unicode = 005A;
},
{
color = 4;
glyphname = Iacute_J.loclNLD;
lastChange = "2016-07-31 02:08:05 +0000";
layers = (
{
layerId = "C9A88445-F9B1-43BF-9834-532EB19954E9";
paths = (
{
closed = 1;
nodes = (
"299 0 LINE SMOOTH",
"428 0 OFFCURVE",
"482 54 OFFCURVE",
"482 183 CURVE SMOOTH",
"482 612 LINE SMOOTH",
"482 626 OFFCURVE",
"475 633 OFFCURVE",
"461 633 CURVE SMOOTH",
"447 633 OFFCURVE",
"440 626 OFFCURVE",
"440 612 CURVE SMOOTH",
"440 183 LINE SMOOTH",
"440 77 OFFCURVE",
"405 42 OFFCURVE",
"299 42 CURVE SMOOTH",
"272 42 LINE SMOOTH",
"174 42 OFFCURVE",
"136 72 OFFCURVE",
"132 162 CURVE SMOOTH",
"131 176 OFFCURVE",
"124 183 OFFCURVE",
"110 183 CURVE SMOOTH",
"96 183 OFFCURVE",
"89 175 OFFCURVE",
"90 161 CURVE SMOOTH",
"95 48 OFFCURVE",
"150 0 OFFCURVE",
"272 0 CURVE SMOOTH"
);
},
{
closed = 1;
nodes = (
"124 249 OFFCURVE",
"133 258 OFFCURVE",
"133 270 CURVE SMOOTH",
"133 613 LINE SMOOTH",
"133 625 OFFCURVE",
"124 634 OFFCURVE",
"112 634 CURVE SMOOTH",
"100 634 OFFCURVE",
"91 625 OFFCURVE",
"91 613 CURVE SMOOTH",
"91 270 LINE SMOOTH",
"91 258 OFFCURVE",
"100 249 OFFCURVE",
"112 249 CURVE SMOOTH"
);
},
{
closed = 1;
nodes = (
"108 686 OFFCURVE",
"119 687 OFFCURVE",
"128 698 CURVE SMOOTH",
"218 804 LINE",
"226 815 OFFCURVE",
"225 825 OFFCURVE",
"215 834 CURVE SMOOTH",
"205 843 OFFCURVE",
"194 842 OFFCURVE",
"185 831 CURVE SMOOTH",
"95 725 LINE",
"87 714 OFFCURVE",
"88 704 OFFCURVE",
"98 695 CURVE SMOOTH"
);
},
{
closed = 1;
nodes = (
"459 686 OFFCURVE",
"470 687 OFFCURVE",
"479 698 CURVE SMOOTH",
"569 804 LINE",
"577 815 OFFCURVE",
"576 825 OFFCURVE",
"566 834 CURVE SMOOTH",
"556 843 OFFCURVE",
"545 842 OFFCURVE",
"536 831 CURVE SMOOTH",
"446 725 LINE",
"438 714 OFFCURVE",
"439 704 OFFCURVE",
"449 695 CURVE SMOOTH"
);
}
);
width = 594;
}
);
leftKerningGroup = H;
leftMetricsKey = H;
rightKerningGroup = U;
},
{
color = 4;
glyphname = a;
layers = (
{
anchors = (
{
name = bottom;
position = "{284, 0}";
},
{
name = ogonek;
position = "{468, 0}";
},
{
name = top;
position = "{284, 461}";
}
);
layerId = "C9A88445-F9B1-43BF-9834-532EB19954E9";
paths = (
{
closed = 1;
nodes = (
"490 21 CURVE SMOOTH",
"490 286 LINE SMOOTH",
"490 408 OFFCURVE",
"437 461 OFFCURVE",
"315 461 CURVE SMOOTH",
"257 461 LINE SMOOTH",
"143 461 OFFCURVE",
"84 428 OFFCURVE",
"79 352 CURVE SMOOTH",
"78 338 OFFCURVE",
"86 330 OFFCURVE",
"100 330 CURVE SMOOTH",
"113 330 OFFCURVE",
"119 337 OFFCURVE",
"121 350 CURVE SMOOTH",
"129 400 OFFCURVE",
"166 419 OFFCURVE",
"257 419 CURVE SMOOTH",
"315 419 LINE SMOOTH",
"413 419 OFFCURVE",
"448 384 OFFCURVE",
"448 286 CURVE SMOOTH",
"448 21 LINE SMOOTH",
"448 7 OFFCURVE",
"455 0 OFFCURVE",
"469 0 CURVE SMOOTH",
"483 0 OFFCURVE",
"490 7 OFFCURVE"
);
},
{
closed = 1;
nodes = (
"271 0 LINE SMOOTH",
"391 0 OFFCURVE",
"460 53 OFFCURVE",
"469 150 CURVE SMOOTH",
"469 164 OFFCURVE",
"469 172 OFFCURVE",
"468 172 CURVE SMOOTH",
"455 172 OFFCURVE",
"448 165 OFFCURVE",
"447 152 CURVE SMOOTH",
"438 79 OFFCURVE",
"380 42 OFFCURVE",
"271 42 CURVE SMOOTH",
"215 42 LINE SMOOTH",
"138 42 OFFCURVE",
"112 68 OFFCURVE",
"112 145 CURVE SMOOTH",
"112 223 OFFCURVE",
"138 249 OFFCURVE",
"215 249 CURVE SMOOTH",
"448 249 LINE SMOOTH",
"462 249 OFFCURVE",
"469 256 OFFCURVE",
"469 270 CURVE SMOOTH",
"469 284 OFFCURVE",
"462 291 OFFCURVE",
"448 291 CURVE SMOOTH",
"215 291 LINE SMOOTH",
"115 291 OFFCURVE",
"70 246 OFFCURVE",
"70 145 CURVE SMOOTH",
"70 44 OFFCURVE",
"114 0 OFFCURVE",
"215 0 CURVE SMOOTH"
);
}
);
width = 571;
}
);
leftKerningGroup = a;
leftMetricsKey = "=n-20";
rightKerningGroup = n;
rightMetricsKey = n;
unicode = 0061;
},
{
color = 4;
glyphname = ae;
layers = (
{
anchors = (
{
name = bottom;
position = "{445, 0}";
},
{
name = top;
position = "{445, 461}";
}
);
layerId = "C9A88445-F9B1-43BF-9834-532EB19954E9";
paths = (
{
closed = 1;
nodes = (
"659 -1 LINE SMOOTH",
"777 -1 OFFCURVE",
"830 40 OFFCURVE",
"830 135 CURVE SMOOTH",
"830 147 OFFCURVE",
"821 156 OFFCURVE",
"809 156 CURVE SMOOTH",
"797 156 OFFCURVE",
"788 147 OFFCURVE",
"788 135 CURVE SMOOTH",
"788 66 OFFCURVE",
"755 41 OFFCURVE",
"659 41 CURVE SMOOTH",
"598 41 LINE SMOOTH",
"504 41 OFFCURVE",
"470 77 OFFCURVE",
"470 176 CURVE SMOOTH",
"470 249 LINE",
"809 249 LINE SMOOTH",
"822 249 OFFCURVE",
"830 256 OFFCURVE",
"830 270 CURVE SMOOTH",
"830 402 OFFCURVE",
"777 461 OFFCURVE",
"659 461 CURVE SMOOTH",
"599 461 LINE SMOOTH",
"523 462 OFFCURVE",
"474 437 OFFCURVE",
"449 382 CURVE",
"423 437 OFFCURVE",
"373 462 OFFCURVE",
"295 462 CURVE SMOOTH",
"257 462 LINE SMOOTH",
"133 462 OFFCURVE",
"78 423 OFFCURVE",
"78 331 CURVE SMOOTH",
"78 319 OFFCURVE",
"87 310 OFFCURVE",
"99 310 CURVE SMOOTH",
"111 310 OFFCURVE",
"120 319 OFFCURVE",
"120 331 CURVE SMOOTH",
"120 396 OFFCURVE",
"154 420 OFFCURVE",
"257 420 CURVE SMOOTH",
"295 420 LINE SMOOTH",
"392 420 OFFCURVE",
"427 386 OFFCURVE",
"428 291 CURVE",
"215 291 LINE SMOOTH",
"114 291 OFFCURVE",
"70 247 OFFCURVE",
"70 146 CURVE SMOOTH",
"70 45 OFFCURVE",
"114 1 OFFCURVE",
"215 1 CURVE SMOOTH",
"251 1 LINE SMOOTH",
"346 1 OFFCURVE",
"411 31 OFFCURVE",
"445 88 CURVE",
"468 27 OFFCURVE",
"518 -1 OFFCURVE",
"598 -1 CURVE SMOOTH"
);
},
{
closed = 1;
nodes = (
"138 43 OFFCURVE",
"112 69 OFFCURVE",
"112 146 CURVE SMOOTH",
"112 223 OFFCURVE",
"138 249 OFFCURVE",
"215 249 CURVE SMOOTH",
"428 249 LINE",
"428 172 LINE SMOOTH",
"428 86 OFFCURVE",
"370 43 OFFCURVE",
"251 43 CURVE SMOOTH",
"215 43 LINE SMOOTH"
);
},
{
closed = 1;
nodes = (
"471 386 OFFCURVE",
"505 420 OFFCURVE",
"599 419 CURVE SMOOTH",
"659 419 LINE SMOOTH",
"747 419 OFFCURVE",
"783 384 OFFCURVE",
"788 291 CURVE",
"470 291 LINE"
);
}
);
width = 910;
}
);
leftKerningGroup = a;
leftMetricsKey = a;
rightKerningGroup = e;
rightMetricsKey = e;
unicode = 00E6;
},
{
color = 4;
glyphname = b;
lastChange = "2016-07-31 01:33:46 +0000";
layers = (
{
anchors = (
{
name = bottom;
position = "{324, 0}";
},
{
name = top;
position = "{324, 461}";
}
);
layerId = "C9A88445-F9B1-43BF-9834-532EB19954E9";
paths = (
{
closed = 1;
nodes = (
"347 0 LINE SMOOTH",
"469 0 OFFCURVE",
"522 53 OFFCURVE",
"522 175 CURVE SMOOTH",
"522 287 LINE SMOOTH",
"522 409 OFFCURVE",
"469 462 OFFCURVE",
"347 462 CURVE SMOOTH",
"309 462 LINE SMOOTH",
"177 462 OFFCURVE",
"121 410 OFFCURVE",
"111 313 CURVE SMOOTH",
"110 299 OFFCURVE",
"98 291 OFFCURVE",
"112 291 CURVE SMOOTH",
"125 291 OFFCURVE",
"132 298 OFFCURVE",
"132 311 CURVE SMOOTH",
"132 384 OFFCURVE",
"200 420 OFFCURVE",
"309 420 CURVE SMOOTH",
"347 420 LINE SMOOTH",
"445 420 OFFCURVE",
"480 385 OFFCURVE",
"480 287 CURVE SMOOTH",
"480 175 LINE SMOOTH",
"480 77 OFFCURVE",
"445 42 OFFCURVE",
"347 42 CURVE SMOOTH",
"309 42 LINE SMOOTH",
"200 42 OFFCURVE",
"131 78 OFFCURVE",
"132 151 CURVE SMOOTH",
"132 164 OFFCURVE",
"125 171 OFFCURVE",
"112 171 CURVE SMOOTH",
"98 171 OFFCURVE",
"110 163 OFFCURVE",
"111 149 CURVE SMOOTH",
"121 52 OFFCURVE",
"177 0 OFFCURVE",
"309 0 CURVE SMOOTH"
);
},
{
closed = 1;
nodes = (
"132 21 CURVE SMOOTH",
"132 669 LINE SMOOTH",
"132 683 OFFCURVE",
"125 690 OFFCURVE",
"111 690 CURVE SMOOTH",
"97 690 OFFCURVE",
"90 683 OFFCURVE",
"90 669 CURVE SMOOTH",
"90 21 LINE SMOOTH",
"90 7 OFFCURVE",
"97 0 OFFCURVE",
"111 0 CURVE SMOOTH",
"125 0 OFFCURVE",
"132 7 OFFCURVE"
);
}
);
width = 602;
}
);
leftKerningGroup = h;
leftMetricsKey = n;
rightKerningGroup = o;
rightMetricsKey = o;
unicode = 0062;
},
{
color = 4;
glyphname = c;
lastChange = "2016-07-31 01:33:46 +0000";
layers = (
{
anchors = (
{
name = bottom;
position = "{298, 0}";
},
{
name = top;
position = "{298, 461}";
}
);
layerId = "C9A88445-F9B1-43BF-9834-532EB19954E9";
paths = (
{
closed = 1;
nodes = (
"337 0 LINE SMOOTH",
"435 0 OFFCURVE",
"483 32 OFFCURVE",
"491 103 CURVE SMOOTH",
"492 117 OFFCURVE",
"484 125 OFFCURVE",
"470 125 CURVE SMOOTH",
"457 125 OFFCURVE",
"451 118 OFFCURVE",
"449 105 CURVE SMOOTH",
"443 59 OFFCURVE",
"412 42 OFFCURVE",
"337 42 CURVE SMOOTH",
"255 42 LINE SMOOTH",
"157 42 OFFCURVE",
"122 77 OFFCURVE",
"122 175 CURVE SMOOTH",
"122 287 LINE",
"122 386 OFFCURVE",
"157 420 OFFCURVE",
"255 419 CURVE SMOOTH",
"337 419 LINE SMOOTH",
"412 419 OFFCURVE",
"443 402 OFFCURVE",
"449 356 CURVE SMOOTH",
"451 343 OFFCURVE",
"457 336 OFFCURVE",
"470 336 CURVE SMOOTH",
"484 336 OFFCURVE",
"492 344 OFFCURVE",
"491 358 CURVE SMOOTH",
"483 429 OFFCURVE",
"435 461 OFFCURVE",
"337 461 CURVE SMOOTH",
"255 461 LINE SMOOTH",
"133 462 OFFCURVE",
"80 409 OFFCURVE",
"80 287 CURVE SMOOTH",
"80 175 LINE SMOOTH",
"80 53 OFFCURVE",
"133 0 OFFCURVE",
"255 0 CURVE SMOOTH"
);
}
);
width = 551;
}
);
leftKerningGroup = o;
leftMetricsKey = o;
rightKerningGroup = c;
rightMetricsKey = "=o-20";
unicode = 0063;
},
{
color = 4;
glyphname = d;
lastChange = "2016-07-31 01:33:46 +0000";
layers = (
{
anchors = (
{
name = bottom;
position = "{270, 0}";
},
{
name = center;
position = "{454, 571}";
},
{
name = top;
position = "{323, 461}";
},
{
name = topright;
position = "{553, 461}";
}
);
layerId = "C9A88445-F9B1-43BF-9834-532EB19954E9";
paths = (
{
closed = 1;
nodes = (
"293 0 LINE SMOOTH",
"425 0 OFFCURVE",
"481 52 OFFCURVE",
"491 149 CURVE SMOOTH",
"492 163 OFFCURVE",
"504 171 OFFCURVE",
"490 171 CURVE SMOOTH",
"477 171 OFFCURVE",
"470 164 OFFCURVE",
"470 151 CURVE SMOOTH",
"470 78 OFFCURVE",
"402 42 OFFCURVE",
"293 42 CURVE SMOOTH",
"255 42 LINE SMOOTH",
"157 42 OFFCURVE",
"122 77 OFFCURVE",
"122 175 CURVE SMOOTH",
"122 286 LINE SMOOTH",
"122 384 OFFCURVE",
"157 419 OFFCURVE",
"255 419 CURVE SMOOTH",
"470 419 LINE SMOOTH",
"484 419 OFFCURVE",
"491 426 OFFCURVE",
"491 440 CURVE SMOOTH",
"491 454 OFFCURVE",
"484 461 OFFCURVE",
"470 461 CURVE SMOOTH",
"255 461 LINE SMOOTH",
"133 461 OFFCURVE",
"80 408 OFFCURVE",
"80 286 CURVE SMOOTH",
"80 175 LINE SMOOTH",
"80 53 OFFCURVE",
"133 0 OFFCURVE",
"255 0 CURVE SMOOTH"
);
},
{
closed = 1;
nodes = (
"512 21 CURVE SMOOTH",
"512 669 LINE SMOOTH",
"512 683 OFFCURVE",
"505 690 OFFCURVE",
"491 690 CURVE SMOOTH",
"477 690 OFFCURVE",
"470 683 OFFCURVE",
"470 669 CURVE SMOOTH",
"470 21 LINE SMOOTH",
"470 7 OFFCURVE",
"477 0 OFFCURVE",
"491 0 CURVE SMOOTH",
"505 0 OFFCURVE",
"512 7 OFFCURVE"
);
}
);
width = 593;
}
);
leftKerningGroup = o;
leftMetricsKey = o;
rightKerningGroup = d;
rightMetricsKey = n;
unicode = 0064;
},
{
color = 4;
glyphname = eth;
layers = (
{
layerId = "C9A88445-F9B1-43BF-9834-532EB19954E9";
paths = (
{
closed = 1;
nodes = (
"153 712 LINE SMOOTH",
"139 716 OFFCURVE",
"130 710 OFFCURVE",
"127 697 CURVE SMOOTH",
"124 684 OFFCURVE",
"129 675 OFFCURVE",
"142 671 CURVE",
"373 613 LINE SMOOTH",
"426 599 OFFCURVE",
"455 540 OFFCURVE",
"465 413 CURVE",
"437 446 OFFCURVE",
"392 462 OFFCURVE",
"337 462 CURVE SMOOTH",
"255 462 LINE SMOOTH",
"133 463 OFFCURVE",
"80 410 OFFCURVE",
"80 287 CURVE SMOOTH",
"80 175 LINE SMOOTH",
"80 54 OFFCURVE",
"133 1 OFFCURVE",
"255 1 CURVE SMOOTH",
"337 1 LINE SMOOTH",
"459 1 OFFCURVE",
"512 54 OFFCURVE",
"512 176 CURVE SMOOTH",
"512 311 LINE SMOOTH",
"510 531 OFFCURVE",
"472 631 OFFCURVE",
"383 653 CURVE SMOOTH"
);
},
{
closed = 1;
nodes = (
"470 78 OFFCURVE",
"435 43 OFFCURVE",
"337 43 CURVE SMOOTH",
"255 43 LINE SMOOTH",
"157 43 OFFCURVE",
"122 78 OFFCURVE",
"122 175 CURVE SMOOTH",
"122 287 LINE SMOOTH",
"122 386 OFFCURVE",
"157 421 OFFCURVE",
"255 420 CURVE SMOOTH",
"337 420 LINE SMOOTH",
"416 420 OFFCURVE",
"470 394 OFFCURVE",
"470 311 CURVE SMOOTH",
"470 176 LINE"
);
},
{
closed = 1;
nodes = (
"361 711 LINE SMOOTH",
"371 721 OFFCURVE",
"371 731 OFFCURVE",
"362 741 CURVE SMOOTH",
"353 751 OFFCURVE",
"342 751 OFFCURVE",
"332 742 CURVE SMOOTH",
"179 599 LINE SMOOTH",
"169 589 OFFCURVE",
"169 579 OFFCURVE",
"178 569 CURVE SMOOTH",
"187 559 OFFCURVE",
"198 559 OFFCURVE",
"208 568 CURVE SMOOTH"
);
}
);
width = 592;
}
);
leftKerningGroup = o;
leftMetricsKey = o;
rightKerningGroup = o;
rightMetricsKey = o;
unicode = 00F0;
},
{
color = 4;
glyphname = e;
lastChange = "2016-07-31 01:33:46 +0000";
layers = (
{
anchors = (
{
name = bottom;
position = "{304, 0}";
},
{
name = ogonek;
position = "{471, 44}";
},
{
name = top;
position = "{304, 461}";
}
);
layerId = "C9A88445-F9B1-43BF-9834-532EB19954E9";
paths = (
{
closed = 1;
nodes = (
"337 0 LINE SMOOTH",
"449 0 OFFCURVE",
"504 38 OFFCURVE",
"511 123 CURVE SMOOTH",
"512 137 OFFCURVE",
"504 145 OFFCURVE",
"491 145 CURVE SMOOTH",
"477 145 OFFCURVE",
"470 138 OFFCURVE",
"469 124 CURVE SMOOTH",
"463 64 OFFCURVE",
"427 42 OFFCURVE",
"337 42 CURVE SMOOTH",
"255 42 LINE SMOOTH",
"157 42 OFFCURVE",
"122 77 OFFCURVE",
"122 174 CURVE SMOOTH",
"122 286 LINE SMOOTH",
"122 385 OFFCURVE",
"157 420 OFFCURVE",
"255 419 CURVE SMOOTH",
"337 419 LINE SMOOTH",
"435 419 OFFCURVE",
"470 384 OFFCURVE",
"470 286 CURVE SMOOTH",
"470 257 LINE",
"122 257 LINE SMOOTH",
"108 257 OFFCURVE",
"100.997 250.002 OFFCURVE",
"101 236 CURVE SMOOTH",
"101 223 OFFCURVE",
"108 215 OFFCURVE",
"122 215 CURVE SMOOTH",
"491 215 LINE SMOOTH",
"505 215 OFFCURVE",
"512 223 OFFCURVE",
"512 236 CURVE SMOOTH",
"512 286 LINE",
"512 408 OFFCURVE",
"459 461 OFFCURVE",
"337 461 CURVE SMOOTH",
"255 461 LINE SMOOTH",
"133 462 OFFCURVE",
"80 409 OFFCURVE",
"80 286 CURVE SMOOTH",
"80 174 LINE SMOOTH",
"80 53 OFFCURVE",
"133 0 OFFCURVE",
"255 0 CURVE SMOOTH"
);
}
);
width = 592;
}
);
leftKerningGroup = o;
leftMetricsKey = o;
rightKerningGroup = o;
rightMetricsKey = o;
unicode = 0065;
},
{
color = 4;
glyphname = f;
lastChange = "2016-07-31 01:33:46 +0000";
layers = (
{
layerId = "C9A88445-F9B1-43BF-9834-532EB19954E9";
paths = (
{
closed = 1;
nodes = (
"137 21 CURVE SMOOTH",
"137 518 LINE",
"137 614 OFFCURVE",
"171 648 OFFCURVE",
"267 648 CURVE SMOOTH",
"281 648 OFFCURVE",
"289 655 OFFCURVE",
"289 669 CURVE SMOOTH",
"289 683 OFFCURVE",
"281 690 OFFCURVE",
"267 690 CURVE SMOOTH",
"147 690 OFFCURVE",
"95 638 OFFCURVE",
"95 518 CURVE SMOOTH",
"95 21 LINE SMOOTH",
"95 7 OFFCURVE",
"102 0 OFFCURVE",
"116 0 CURVE SMOOTH",
"130 0 OFFCURVE",
"137 7 OFFCURVE"
);
},
{
closed = 1;
nodes = (
"268 419 LINE SMOOTH",
"282 419 OFFCURVE",
"289 426 OFFCURVE",
"289 440 CURVE SMOOTH",
"289 454 OFFCURVE",
"282 461 OFFCURVE",
"268 461 CURVE SMOOTH",
"51 461 LINE SMOOTH",
"37 461 OFFCURVE",
"30 454 OFFCURVE",
"30 440 CURVE SMOOTH",
"30 426 OFFCURVE",
"37 419 OFFCURVE",
"51 419 CURVE SMOOTH"
);
}
);
width = 309;
}
);
leftKerningGroup = f;
rightKerningGroup = f;
unicode = 0066;
},
{
color = 4;
glyphname = g;
lastChange = "2016-07-31 01:33:46 +0000";
layers = (
{
anchors = (
{
name = bottom;
position = "{289, -200}";
},
{
name = top;
position = "{301, 461}";
}
);
layerId = "C9A88445-F9B1-43BF-9834-532EB19954E9";
paths = (
{
closed = 1;
nodes = (
"389 -200 LINE SMOOTH",
"474 -200 OFFCURVE",
"512 -162 OFFCURVE",
"512 -77 CURVE SMOOTH",
"512 440 LINE SMOOTH",
"512 454 OFFCURVE",
"505 461 OFFCURVE",
"491 461 CURVE SMOOTH",
"477 461 OFFCURVE",
"470 454 OFFCURVE",
"470 440 CURVE SMOOTH",
"470 -77 LINE SMOOTH",
"470 -139 OFFCURVE",
"451 -158 OFFCURVE",
"389 -158 CURVE SMOOTH",
"203 -158 LINE SMOOTH",
"149 -158 OFFCURVE",
"127 -144 OFFCURVE",
"123 -98 CURVE SMOOTH",
"122 -84 OFFCURVE",
"115 -77 OFFCURVE",
"101 -77 CURVE SMOOTH",
"88 -77 OFFCURVE",
"80 -85 OFFCURVE",
"81 -99 CURVE SMOOTH",
"87 -169 OFFCURVE",
"125 -200 OFFCURVE",
"203 -200 CURVE SMOOTH"
);
},
{
closed = 1;
nodes = (
"293 0 LINE SMOOTH",
"425 0 OFFCURVE",
"482 52 OFFCURVE",
"492 149 CURVE SMOOTH",
"493 163 OFFCURVE",
"504 171 OFFCURVE",
"490 171 CURVE SMOOTH",
"477 171 OFFCURVE",
"470 164 OFFCURVE",
"470 151 CURVE SMOOTH",
"470 78 OFFCURVE",
"402 42 OFFCURVE",
"293 42 CURVE SMOOTH",
"255 42 LINE SMOOTH",
"157 42 OFFCURVE",
"122 77 OFFCURVE",
"122 174 CURVE SMOOTH",
"122 286 LINE SMOOTH",
"122 385 OFFCURVE",
"157 420 OFFCURVE",
"255 419 CURVE SMOOTH",
"337 419 LINE SMOOTH",
"428 419 OFFCURVE",
"470 389 OFFCURVE",
"470 307 CURVE SMOOTH",
"470 293 OFFCURVE",
"477 286 OFFCURVE",
"491 286 CURVE SMOOTH",
"504 286 OFFCURVE",
"493 294 OFFCURVE",
"492 308 CURVE SMOOTH",
"486 414 OFFCURVE",
"451 461 OFFCURVE",
"337 461 CURVE SMOOTH",
"255 461 LINE SMOOTH",
"133 462 OFFCURVE",
"80 409 OFFCURVE",
"80 286 CURVE SMOOTH",
"80 174 LINE SMOOTH",
"80 53 OFFCURVE",
"133 0 OFFCURVE",
"255 0 CURVE SMOOTH"
);
}
);
width = 593;
}
);
leftKerningGroup = o;
leftMetricsKey = o;
rightKerningGroup = u;
rightMetricsKey = n;
unicode = 0067;
},
{
color = 4;
glyphname = h;
lastChange = "2016-07-31 01:33:46 +0000";
layers = (
{
anchors = (
{
name = bottom;
position = "{316, 0}";
},
{
name = center;
position = "{151, 571}";
},
{
name = top;
position = "{114, 673}";
}
);
layerId = "C9A88445-F9B1-43BF-9834-532EB19954E9";
paths = (
{
closed = 1;
nodes = (
"512 21 CURVE SMOOTH",
"512 287 LINE SMOOTH",
"512 409 OFFCURVE",
"459 462 OFFCURVE",
"337 462 CURVE SMOOTH",
"309 462 LINE SMOOTH",
"189 462 OFFCURVE",
"120 410 OFFCURVE",
"111 313 CURVE SMOOTH",
"111 299 OFFCURVE",
"111 291 OFFCURVE",
"112 291 CURVE SMOOTH",
"125 291 OFFCURVE",
"132 298 OFFCURVE",
"133 311 CURVE SMOOTH",
"142 384 OFFCURVE",
"200 420 OFFCURVE",
"309 420 CURVE SMOOTH",
"337 420 LINE SMOOTH",
"435 420 OFFCURVE",
"470 385 OFFCURVE",
"470 287 CURVE SMOOTH",
"470 21 LINE SMOOTH",
"470 7 OFFCURVE",
"477 0 OFFCURVE",
"491 0 CURVE SMOOTH",
"505 0 OFFCURVE",
"512 7 OFFCURVE"
);
},
{
closed = 1;
nodes = (
"132 21 CURVE SMOOTH",
"132 669 LINE SMOOTH",
"132 683 OFFCURVE",
"125 690 OFFCURVE",
"111 690 CURVE SMOOTH",
"97 690 OFFCURVE",
"90 683 OFFCURVE",
"90 669 CURVE SMOOTH",
"90 21 LINE SMOOTH",
"90 7 OFFCURVE",
"97 0 OFFCURVE",
"111 0 CURVE SMOOTH",
"125 0 OFFCURVE",
"132 7 OFFCURVE"
);
}
);
width = 593;
}
);
leftKerningGroup = h;
leftMetricsKey = n;
rightKerningGroup = n;
rightMetricsKey = n;
unicode = 0068;
},
{
color = 4;
glyphname = idotless;
lastChange = "2016-07-31 01:33:46 +0000";
layers = (
{
anchors = (
{
name = bottom;
position = "{111, 0}";
},
{
name = ogonek;
position = "{111, 0}";
},
{
name = top;
position = "{111, 461}";
}
);
layerId = "C9A88445-F9B1-43BF-9834-532EB19954E9";
paths = (
{
closed = 1;
nodes = (
"125 0 OFFCURVE",
"132 7 OFFCURVE",
"132 21 CURVE SMOOTH",
"132 440 LINE SMOOTH",
"132 454 OFFCURVE",
"125 461 OFFCURVE",
"111 461 CURVE SMOOTH",
"97 461 OFFCURVE",
"90 454 OFFCURVE",
"90 440 CURVE SMOOTH",
"90 21 LINE SMOOTH",
"90 7 OFFCURVE",
"97 0 OFFCURVE",
"111 0 CURVE SMOOTH"
);
}
);
width = 222;
}
);
leftKerningGroup = n;
leftMetricsKey = n;
rightKerningGroup = u;
rightMetricsKey = u;
unicode = 0131;
},
{
color = 4;
glyphname = jdotless;
layers = (
{
anchors = (
{
name = bottom;
position = "{42, -200}";
},
{
name = top;
position = "{111, 461}";
}
);
layerId = "C9A88445-F9B1-43BF-9834-532EB19954E9";
paths = (
{
closed = 1;
nodes = (
"-22 -193 OFFCURVE",
"-11 -200 OFFCURVE",
"1 -200 CURVE SMOOTH",
"91 -200 OFFCURVE",
"132 -159 OFFCURVE",
"132 -69 CURVE SMOOTH",
"132 440 LINE SMOOTH",
"132 454 OFFCURVE",
"124 461 OFFCURVE",
"111 461 CURVE SMOOTH",
"97 461 OFFCURVE",
"90 454 OFFCURVE",
"90 440 CURVE SMOOTH",
"90 -69 LINE SMOOTH",
"90 -136 OFFCURVE",
"68 -158 OFFCURVE",
"1 -158 CURVE SMOOTH",
"-11 -158 OFFCURVE",
"-22 -165 OFFCURVE",
"-22 -179 CURVE SMOOTH"
);
}
);
width = 222;
}
);
leftKerningGroup = jdotless;
rightKerningGroup = jdotless;
rightMetricsKey = idotless;
unicode = 0237;
},
{
color = 4;
glyphname = k;
lastChange = "2016-07-31 01:33:46 +0000";
layers = (
{
anchors = (
{
name = bottom;
position = "{233, 0}";
},
{
name = top;
position = "{111, 690}";
}
);
layerId = "C9A88445-F9B1-43BF-9834-532EB19954E9";
paths = (
{
closed = 1;
nodes = (
"418 431 LINE SMOOTH",
"428 440 OFFCURVE",
"429 451 OFFCURVE",
"420 461 CURVE SMOOTH",
"411 471 OFFCURVE",
"401 472 OFFCURVE",
"391 463 CURVE SMOOTH",
"101 214 LINE SMOOTH",
"91 206 OFFCURVE",
"90 195 OFFCURVE",
"99 185 CURVE SMOOTH",
"108 174 OFFCURVE",
"118 174 OFFCURVE",
"129 183 CURVE SMOOTH"
);
},
{
closed = 1;
nodes = (
"132 21 CURVE SMOOTH",
"132 669 LINE SMOOTH",
"132 683 OFFCURVE",
"125 690 OFFCURVE",
"111 690 CURVE SMOOTH",
"97 690 OFFCURVE",
"90 683 OFFCURVE",
"90 669 CURVE SMOOTH",
"90 21 LINE SMOOTH",
"90 7 OFFCURVE",
"97 0 OFFCURVE",
"111 0 CURVE SMOOTH",
"125 0 OFFCURVE",
"132 7 OFFCURVE"
);
},
{
closed = 1;
nodes = (
"442 36 CURVE SMOOTH",
"234 272 LINE SMOOTH",
"225 282 OFFCURVE",
"214 283 OFFCURVE",
"204 274 CURVE SMOOTH",
"194 265 OFFCURVE",
"193 255 OFFCURVE",
"202 244 CURVE SMOOTH",
"411 8 LINE SMOOTH",
"420 -2 OFFCURVE",
"430 -3 OFFCURVE",
"440 6 CURVE SMOOTH",
"451 15 OFFCURVE",
"451 26 OFFCURVE"
);
}
);
width = 469;
}
);
leftKerningGroup = h;
leftMetricsKey = n;
rightKerningGroup = k;
unicode = 006B;
},
{
color = 4;
glyphname = kgreenlandic;
lastChange = "2016-07-31 01:33:46 +0000";
layers = (
{
anchors = (
{
name = bottom;
position = "{243, 0}";
},
{
name = top;
position = "{246, 461}";
}
);
layerId = "C9A88445-F9B1-43BF-9834-532EB19954E9";
paths = (
{
closed = 1;
nodes = (
"418 431 LINE SMOOTH",
"428 440 OFFCURVE",
"429 451 OFFCURVE",
"420 461 CURVE SMOOTH",
"411 471 OFFCURVE",
"401 472 OFFCURVE",
"391 463 CURVE SMOOTH",
"101 214 LINE SMOOTH",
"91 206 OFFCURVE",
"90 195 OFFCURVE",
"99 185 CURVE SMOOTH",
"108 174 OFFCURVE",
"118 174 OFFCURVE",
"129 183 CURVE SMOOTH"
);
},
{
closed = 1;
nodes = (
"125 0 OFFCURVE",
"132 7 OFFCURVE",
"132 21 CURVE SMOOTH",
"132 440 LINE SMOOTH",
"132 454 OFFCURVE",
"125 461 OFFCURVE",
"111 461 CURVE SMOOTH",
"97 461 OFFCURVE",
"90 454 OFFCURVE",
"90 440 CURVE SMOOTH",
"90 21 LINE SMOOTH",
"90 7 OFFCURVE",
"97 0 OFFCURVE",
"111 0 CURVE SMOOTH"
);
},
{
closed = 1;
nodes = (
"451 15 OFFCURVE",
"451 26 OFFCURVE",
"442 36 CURVE SMOOTH",
"234 272 LINE SMOOTH",
"225 282 OFFCURVE",
"214 283 OFFCURVE",
"204 274 CURVE SMOOTH",
"194 265 OFFCURVE",
"193 255 OFFCURVE",
"202 244 CURVE SMOOTH",
"411 8 LINE SMOOTH",
"420 -2 OFFCURVE",
"430 -3 OFFCURVE",
"440 6 CURVE SMOOTH"
);
}
);
width = 469;
}
);
leftKerningGroup = n;
leftMetricsKey = n;
rightKerningGroup = k;
rightMetricsKey = k;
unicode = 0138;
},
{
color = 4;
glyphname = l;
lastChange = "2016-07-31 01:33:46 +0000";
layers = (
{
anchors = (
{
name = bottom;
position = "{178, 0}";
},
{
name = center;
position = "{127.007, 341}";
},
{
name = top;
position = "{111, 690}";
},
{
name = topright;
position = "{177, 461}";
}
);
layerId = "C9A88445-F9B1-43BF-9834-532EB19954E9";
paths = (
{
closed = 1;
nodes = (
"244 21 CURVE SMOOTH",
"244 35 OFFCURVE",
"236 42 OFFCURVE",
"222 42 CURVE SMOOTH",
"154 42 OFFCURVE",
"132 63 OFFCURVE",
"132 131 CURVE SMOOTH",
"132 669 LINE SMOOTH",
"132 683 OFFCURVE",
"125 690 OFFCURVE",
"111 690 CURVE SMOOTH",
"97 690 OFFCURVE",
"90 683 OFFCURVE",
"90 669 CURVE SMOOTH",
"90 131 LINE SMOOTH",
"90 40 OFFCURVE",
"131 0 OFFCURVE",
"223 0 CURVE SMOOTH",
"236 0 OFFCURVE",
"244 7 OFFCURVE"
);
}
);
width = 274;
}
);
leftKerningGroup = h;
leftMetricsKey = n;
rightKerningGroup = l;
unicode = 006C;
},
{
color = 4;
glyphname = lslash;
layers = (
{
anchors = (
{
name = _center;
position = "{117, 341}";
}
);
components = (
{
name = l;
}
);
layerId = "C9A88445-F9B1-43BF-9834-532EB19954E9";
paths = (
{
closed = 1;
nodes = (
"19 241 OFFCURVE",
"23 242 OFFCURVE",
"27 245 CURVE SMOOTH",
"223 392 LINE SMOOTH",
"229 397 OFFCURVE",
"232 402 OFFCURVE",
"232 409 CURVE SMOOTH",
"232 421 OFFCURVE",
"223 430 OFFCURVE",
"211 430 CURVE SMOOTH",
"206 430 OFFCURVE",
"202 429 OFFCURVE",
"198 426 CURVE SMOOTH",
"2 279 LINE SMOOTH",
"-4 275 OFFCURVE",
"-7 269 OFFCURVE",
"-7 262 CURVE SMOOTH",
"-7 250 OFFCURVE",
"2 241 OFFCURVE",
"14 241 CURVE SMOOTH"
);
}
);
width = 272;
}
);
leftKerningGroup = hbar;
rightKerningGroup = l;
unicode = 0142;
},
{
color = 4;
glyphname = m;
layers = (
{
anchors = (
{
name = bottom;
position = "{416, 0}";
},
{
name = top;
position = "{424, 461}";
}
);
layerId = "C9A88445-F9B1-43BF-9834-532EB19954E9";
paths = (
{
closed = 1;
nodes = (
"132 20 CURVE SMOOTH",
"132 291 LINE SMOOTH",
"132 383 OFFCURVE",
"168 420 OFFCURVE",
"259 420 CURVE SMOOTH",
"301 420 LINE SMOOTH",
"372 420 OFFCURVE",
"400 383 OFFCURVE",
"400 291 CURVE SMOOTH",
"400 20 LINE SMOOTH",
"400 6 OFFCURVE",
"407 -1 OFFCURVE",
"421 -1 CURVE SMOOTH",
"435 -1 OFFCURVE",
"442 6 OFFCURVE",
"442 20 CURVE SMOOTH",
"442 291 LINE SMOOTH",
"442 383 OFFCURVE",
"478 420 OFFCURVE",
"569 420 CURVE SMOOTH",
"611 420 LINE SMOOTH",
"682 420 OFFCURVE",
"710 383 OFFCURVE",
"710 291 CURVE SMOOTH",
"710 20 LINE SMOOTH",
"710 6 OFFCURVE",
"717 -1 OFFCURVE",
"731 -1 CURVE SMOOTH",
"745 -1 OFFCURVE",
"752 6 OFFCURVE",
"752 20 CURVE SMOOTH",
"752 291 LINE SMOOTH",
"752 413 OFFCURVE",
"712 462 OFFCURVE",
"611 462 CURVE SMOOTH",
"569 462 LINE SMOOTH",
"487 462 OFFCURVE",
"444 431 OFFCURVE",
"419 354 CURVE",
"435 371 LINE",
"410 436 OFFCURVE",
"371 462 OFFCURVE",
"301 462 CURVE SMOOTH",
"259 462 LINE SMOOTH",
"196 462 OFFCURVE",
"159 443 OFFCURVE",
"132 396 CURVE",
"132 440 LINE SMOOTH",
"132 454 OFFCURVE",
"125 461 OFFCURVE",
"111 461 CURVE SMOOTH",
"97 461 OFFCURVE",
"90 454 OFFCURVE",
"90 440 CURVE SMOOTH",
"90 20 LINE SMOOTH",
"90 6 OFFCURVE",
"97 -1 OFFCURVE",
"111 -1 CURVE SMOOTH",
"125 -1 OFFCURVE",
"132 6 OFFCURVE"
);
}
);
width = 833;
}
);
leftKerningGroup = n;
leftMetricsKey = n;
rightKerningGroup = n;
rightMetricsKey = n;
unicode = 006D;
},
{
color = 4;
glyphname = n;
lastChange = "2016-07-31 01:33:46 +0000";
layers = (
{
anchors = (
{
name = bottom;
position = "{332, 0}";
},
{
name = top;
position = "{322, 461}";
}
);
layerId = "C9A88445-F9B1-43BF-9834-532EB19954E9";
paths = (
{
closed = 1;
nodes = (
"512 21 CURVE SMOOTH",
"512 286 LINE SMOOTH",
"512 408 OFFCURVE",
"459 461 OFFCURVE",
"337 461 CURVE SMOOTH",
"309 461 LINE SMOOTH",
"189 461 OFFCURVE",
"120 409 OFFCURVE",
"111 312 CURVE SMOOTH",
"111 298 OFFCURVE",
"111 290 OFFCURVE",
"112 290 CURVE SMOOTH",
"125 290 OFFCURVE",
"132 297 OFFCURVE",
"133 310 CURVE SMOOTH",
"142 383 OFFCURVE",
"200 419 OFFCURVE",
"309 419 CURVE SMOOTH",
"337 419 LINE SMOOTH",
"435 419 OFFCURVE",
"470 384 OFFCURVE",
"470 286 CURVE SMOOTH",
"470 21 LINE SMOOTH",
"470 7 OFFCURVE",
"477 0 OFFCURVE",
"491 0 CURVE SMOOTH",
"505 0 OFFCURVE",
"512 7 OFFCURVE"
);
},
{
closed = 1;
nodes = (
"132 21 CURVE SMOOTH",
"132 440 LINE SMOOTH",
"132 454 OFFCURVE",
"125 461 OFFCURVE",
"111 461 CURVE SMOOTH",
"97 461 OFFCURVE",
"90 454 OFFCURVE",
"90 440 CURVE SMOOTH",
"90 21 LINE SMOOTH",
"90 7 OFFCURVE",
"97 0 OFFCURVE",
"111 0 CURVE SMOOTH",
"125 0 OFFCURVE",
"132 7 OFFCURVE"
);
}
);
width = 593;
}
);
leftKerningGroup = n;
rightKerningGroup = n;
unicode = 006E;
},
{
color = 4;
glyphname = eng;
layers = (
{
components = (
{
name = n;
}
);
layerId = "C9A88445-F9B1-43BF-9834-532EB19954E9";
paths = (
{
closed = 1;
nodes = (
"389 -203 LINE SMOOTH",
"474 -203 OFFCURVE",
"512 -165 OFFCURVE",
"512 -79 CURVE SMOOTH",
"512 141 LINE SMOOTH",
"512 155 OFFCURVE",
"505 162 OFFCURVE",
"491 162 CURVE SMOOTH",
"477 162 OFFCURVE",
"470 155 OFFCURVE",
"470 141 CURVE",
"470 -79 LINE",
"470 -142 OFFCURVE",
"450 -161 OFFCURVE",
"389 -161 CURVE SMOOTH",
"293 -161 LINE SMOOTH",
"232 -161 OFFCURVE",
"212 -142 OFFCURVE",
"212 -79 CURVE SMOOTH",
"212 -65 OFFCURVE",
"205 -58 OFFCURVE",
"191 -58 CURVE SMOOTH",
"177 -58 OFFCURVE",
"170 -65 OFFCURVE",
"170 -79 CURVE SMOOTH",
"170 -165 OFFCURVE",
"208 -203 OFFCURVE",
"293 -203 CURVE SMOOTH"
);
}
);
width = 592;
}
);
leftKerningGroup = n;
rightKerningGroup = j;
unicode = 014B;
},
{
color = 4;
glyphname = o;
layers = (
{
anchors = (
{
name = bottom;
position = "{296, 0}";
},
{
name = center;
position = "{296, 231}";
},
{
name = ogonek;
position = "{462, 44}";
},
{
name = top;
position = "{296, 461}";
},
{
name = topright;
position = "{452, 434}";
}
);
layerId = "C9A88445-F9B1-43BF-9834-532EB19954E9";
paths = (
{
closed = 1;
nodes = (
"337 0 LINE SMOOTH",
"459 0 OFFCURVE",
"512 53 OFFCURVE",
"512 175 CURVE SMOOTH",
"512 286 LINE SMOOTH",
"512 408 OFFCURVE",
"459 461 OFFCURVE",
"337 461 CURVE SMOOTH",
"255 461 LINE SMOOTH",
"133 462 OFFCURVE",
"80 409 OFFCURVE",
"80 286 CURVE SMOOTH",
"80 174 LINE SMOOTH",
"80 53 OFFCURVE",
"133 0 OFFCURVE",
"255 0 CURVE SMOOTH"
);
},
{
closed = 1;
nodes = (
"122 174 CURVE SMOOTH",
"122 286 LINE SMOOTH",
"122 385 OFFCURVE",
"157 420 OFFCURVE",
"255 419 CURVE SMOOTH",
"337 419 LINE SMOOTH",
"435 419 OFFCURVE",
"470 384 OFFCURVE",
"470 286 CURVE SMOOTH",
"470 175 LINE SMOOTH",
"470 77 OFFCURVE",
"435 42 OFFCURVE",
"337 42 CURVE SMOOTH",
"255 42 LINE SMOOTH",
"157 42 OFFCURVE",
"122 77 OFFCURVE"
);
}
);
width = 592;
}
);
leftKerningGroup = o;
rightKerningGroup = o;
unicode = 006F;
},
{
color = 4;
glyphname = oslash;
layers = (
{
anchors = (
{
name = top;
position = "{296, 461}";
}
);
components = (
{
name = o;
}
);
layerId = "C9A88445-F9B1-43BF-9834-532EB19954E9";
paths = (
{
closed = 1;
nodes = (
"132 -67 OFFCURVE",
"139 -65 OFFCURVE",
"145 -55 CURVE SMOOTH",
"191 19 LINE",
"197 28 LINE",
"432 413 LINE",
"437 421 LINE",
"475 483 LINE SMOOTH",
"484 498 OFFCURVE",
"480 510 OFFCURVE",
"462 515 CURVE SMOOTH",
"452 518 OFFCURVE",
"445 516 OFFCURVE",
"439 506 CURVE SMOOTH",
"399 439 LINE",
"394 432 LINE",
"156 42 LINE",
"152 36 LINE",
"110 -32 LINE SMOOTH",
"101 -46 OFFCURVE",
"105 -60 OFFCURVE",
"121 -64 CURVE SMOOTH"
);
}
);
width = 592;
}
);
leftKerningGroup = o;
rightKerningGroup = o;
unicode = 00F8;
},
{
color = 4;
glyphname = oe;
layers = (
{
anchors = (
{
name = bottom;
position = "{456, 0}";
},
{
name = top;
position = "{456, 461}";
}
);
layerId = "C9A88445-F9B1-43BF-9834-532EB19954E9";
paths = (
{
closed = 1;
nodes = (
"307 1 LINE SMOOTH",
"385 1 OFFCURVE",
"435 23 OFFCURVE",
"461 71 CURVE",
"486 23 OFFCURVE",
"535 1 OFFCURVE",
"610 1 CURVE SMOOTH",
"671 1 LINE SMOOTH",
"789 1 OFFCURVE",
"842 42 OFFCURVE",
"842 137 CURVE SMOOTH",
"842 149 OFFCURVE",
"833 158 OFFCURVE",
"821 158 CURVE SMOOTH",
"809 158 OFFCURVE",
"800 149 OFFCURVE",
"800 137 CURVE SMOOTH",
"800 68 OFFCURVE",
"767 43 OFFCURVE",
"671 43 CURVE SMOOTH",
"610 43 LINE SMOOTH",
"516 43 OFFCURVE",
"482 79 OFFCURVE",
"482 178 CURVE SMOOTH",
"482 241 LINE",
"821 241 LINE SMOOTH",
"834 241 OFFCURVE",
"842 248 OFFCURVE",
"842 262 CURVE SMOOTH",
"842 401 OFFCURVE",
"790 462 OFFCURVE",
"671 462 CURVE SMOOTH",
"611 462 LINE SMOOTH",
"535 463 OFFCURVE",
"486 441 OFFCURVE",
"461 392 CURVE",
"435 440 OFFCURVE",
"385 462 OFFCURVE",
"307 462 CURVE SMOOTH",
"255 462 LINE SMOOTH",
"133 463 OFFCURVE",
"80 410 OFFCURVE",
"80 287 CURVE SMOOTH",
"80 175 LINE SMOOTH",
"80 54 OFFCURVE",
"133 1 OFFCURVE",
"255 1 CURVE SMOOTH"
);
},
{
closed = 1;
nodes = (
"157 43 OFFCURVE",
"122 78 OFFCURVE",
"122 175 CURVE SMOOTH",
"122 287 LINE SMOOTH",
"122 386 OFFCURVE",
"157 421 OFFCURVE",
"255 420 CURVE SMOOTH",
"307 420 LINE SMOOTH",
"405 420 OFFCURVE",
"440 385 OFFCURVE",
"440 287 CURVE SMOOTH",
"440 176 LINE SMOOTH",
"440 78 OFFCURVE",
"405 43 OFFCURVE",
"307 43 CURVE SMOOTH",
"255 43 LINE SMOOTH"
);
},
{
closed = 1;
nodes = (
"482 383 OFFCURVE",
"512 421 OFFCURVE",
"611 420 CURVE SMOOTH",
"671 420 LINE SMOOTH",
"760 420 OFFCURVE",
"795 384 OFFCURVE",
"800 283 CURVE",
"482 283 LINE"
);
}
);
width = 922;
}
);
leftKerningGroup = o;
leftMetricsKey = o;
rightKerningGroup = e;
rightMetricsKey = e;
unicode = 0153;
},
{
color = 4;
glyphname = p;
layers = (
{
anchors = (
{
name = bottom;
position = "{303, 0}";
},
{
name = bottomleft;
position = "{111, -200}";
},
{
name = center;
position = "{328, 240}";
},
{
name = top;
position = "{323, 461}";
}
);
layerId = "C9A88445-F9B1-43BF-9834-532EB19954E9";
paths = (
{
closed = 1;
nodes = (
"347 0 LINE SMOOTH",
"469 0 OFFCURVE",
"522 53 OFFCURVE",
"522 175 CURVE SMOOTH",
"522 286 LINE SMOOTH",
"522 408 OFFCURVE",
"469 461 OFFCURVE",
"347 461 CURVE SMOOTH",
"309 461 LINE SMOOTH",
"177 461 OFFCURVE",
"121 409 OFFCURVE",
"111 312 CURVE SMOOTH",
"110 298 OFFCURVE",
"98 290 OFFCURVE",
"112 290 CURVE SMOOTH",
"125 290 OFFCURVE",
"132 297 OFFCURVE",
"133 310 CURVE SMOOTH",
"142 383 OFFCURVE",
"200 419 OFFCURVE",
"309 419 CURVE SMOOTH",
"347 419 LINE SMOOTH",
"445 419 OFFCURVE",
"480 384 OFFCURVE",
"480 286 CURVE SMOOTH",
"480 175 LINE SMOOTH",
"480 77 OFFCURVE",
"445 42 OFFCURVE",
"347 42 CURVE SMOOTH",
"132 42 LINE SMOOTH",
"118 42 OFFCURVE",
"111 35 OFFCURVE",
"111 21 CURVE SMOOTH",
"111 7 OFFCURVE",
"118 0 OFFCURVE",
"132 0 CURVE SMOOTH"
);
},
{
closed = 1;
nodes = (
"132 -179 CURVE SMOOTH",
"132 440 LINE SMOOTH",
"132 454 OFFCURVE",
"125 461 OFFCURVE",
"111 461 CURVE SMOOTH",
"97 461 OFFCURVE",
"90 454 OFFCURVE",
"90 440 CURVE SMOOTH",
"90 -179 LINE SMOOTH",
"90 -193 OFFCURVE",
"97 -200 OFFCURVE",
"111 -200 CURVE SMOOTH",
"125 -200 OFFCURVE",
"132 -193 OFFCURVE"
);
}
);
width = 602;
}
);
leftKerningGroup = n;
leftMetricsKey = n;
rightKerningGroup = o;
rightMetricsKey = o;
unicode = 0070;
},
{
color = 4;
glyphname = thorn;
layers = (
{
layerId = "C9A88445-F9B1-43BF-9834-532EB19954E9";
paths = (
{
closed = 1;
nodes = (
"125 -200 OFFCURVE",
"132 -193 OFFCURVE",
"132 -179 CURVE SMOOTH",
"132 1 LINE",
"347 1 LINE SMOOTH",
"469 1 OFFCURVE",
"522 54 OFFCURVE",
"522 176 CURVE SMOOTH",
"522 287 LINE SMOOTH",
"522 409 OFFCURVE",
"469 462 OFFCURVE",
"347 462 CURVE SMOOTH",
"309 462 LINE SMOOTH",
"228 462 OFFCURVE",
"169 436 OFFCURVE",
"132 386 CURVE",
"132 623 LINE SMOOTH",
"132 637 OFFCURVE",
"125 644 OFFCURVE",
"111 644 CURVE SMOOTH",
"97 644 OFFCURVE",
"90 637 OFFCURVE",
"90 623 CURVE SMOOTH",
"90 -179 LINE SMOOTH",
"90 -193 OFFCURVE",
"97 -200 OFFCURVE",
"111 -200 CURVE SMOOTH"
);
},
{
closed = 1;
nodes = (
"132 291 LINE SMOOTH",
"132 377 OFFCURVE",
"190 420 OFFCURVE",
"309 420 CURVE SMOOTH",
"347 420 LINE SMOOTH",
"445 420 OFFCURVE",
"480 385 OFFCURVE",
"480 287 CURVE SMOOTH",
"480 176 LINE SMOOTH",
"480 78 OFFCURVE",
"445 43 OFFCURVE",
"347 43 CURVE SMOOTH",
"132 43 LINE"
);
}
);
width = 602;
}
);
leftKerningGroup = h;
leftMetricsKey = h;
rightKerningGroup = o;
rightMetricsKey = o;
unicode = 00FE;
},
{
color = 4;
glyphname = q;
lastChange = "2016-07-31 01:33:46 +0000";
layers = (
{
anchors = (
{
name = bottom;
position = "{286, 0}";
},
{
name = top;
position = "{286, 461}";
}
);
layerId = "C9A88445-F9B1-43BF-9834-532EB19954E9";
paths = (
{
closed = 1;
nodes = (
"80 286 CURVE SMOOTH",
"80 175 LINE SMOOTH",
"80 53 OFFCURVE",
"133 0 OFFCURVE",
"255 0 CURVE SMOOTH",
"470 0 LINE SMOOTH",
"484 0 OFFCURVE",
"491 7 OFFCURVE",
"491 21 CURVE SMOOTH",
"491 35 OFFCURVE",
"484 42 OFFCURVE",
"470 42 CURVE SMOOTH",
"255 42 LINE SMOOTH",
"157 42 OFFCURVE",
"122 77 OFFCURVE",
"122 175 CURVE SMOOTH",
"122 286 LINE SMOOTH",
"122 384 OFFCURVE",
"157 419 OFFCURVE",
"255 419 CURVE SMOOTH",
"293 419 LINE SMOOTH",
"402 419 OFFCURVE",
"470 383 OFFCURVE",
"470 310 CURVE SMOOTH",
"470 297 OFFCURVE",
"477 290 OFFCURVE",
"490 290 CURVE SMOOTH",
"504 290 OFFCURVE",
"492 298 OFFCURVE",
"491 312 CURVE SMOOTH",
"481 409 OFFCURVE",
"425 461 OFFCURVE",
"293 461 CURVE SMOOTH",
"255 461 LINE SMOOTH",
"133 461 OFFCURVE",
"80 408 OFFCURVE"
);
},
{
closed = 1;
nodes = (
"470 440 CURVE SMOOTH",
"470 -179 LINE SMOOTH",
"470 -193 OFFCURVE",
"477 -200 OFFCURVE",
"491 -200 CURVE SMOOTH",
"505 -200 OFFCURVE",
"512 -193 OFFCURVE",
"512 -179 CURVE SMOOTH",
"512 440 LINE SMOOTH",
"512 454 OFFCURVE",
"505 461 OFFCURVE",
"491 461 CURVE SMOOTH",
"477 461 OFFCURVE",
"470 454 OFFCURVE"
);
}
);
width = 593;
}
);
leftKerningGroup = o;
leftMetricsKey = o;
rightKerningGroup = q;
rightMetricsKey = n;
unicode = 0071;
},
{
color = 4;
glyphname = r;
lastChange = "2016-07-31 01:33:46 +0000";
layers = (
{
anchors = (
{
name = bottom;
position = "{112, -1}";
},
{
name = top;
position = "{218, 461}";
}
);
layerId = "C9A88445-F9B1-43BF-9834-532EB19954E9";
paths = (
{
closed = 1;
nodes = (
"133 251 CURVE SMOOTH",
"140 360 OFFCURVE",
"209 419 OFFCURVE",
"329 419 CURVE SMOOTH",
"343 419 OFFCURVE",
"350 426 OFFCURVE",
"350 440 CURVE SMOOTH",
"350 454 OFFCURVE",
"344 461 OFFCURVE",
"329 461 CURVE SMOOTH",
"198 461 OFFCURVE",
"118 384 OFFCURVE",
"111 252 CURVE SMOOTH",
"111 238 OFFCURVE",
"111 230 OFFCURVE",
"111 230 CURVE SMOOTH",
"125 230 OFFCURVE",
"132 237 OFFCURVE"
);
},
{
closed = 1;
nodes = (
"132 21 CURVE SMOOTH",
"132 440 LINE SMOOTH",
"132 454 OFFCURVE",
"125 461 OFFCURVE",
"111 461 CURVE SMOOTH",
"97 461 OFFCURVE",
"90 454 OFFCURVE",
"90 440 CURVE SMOOTH",
"90 21 LINE SMOOTH",
"90 7 OFFCURVE",
"97 0 OFFCURVE",
"111 0 CURVE SMOOTH",
"125 0 OFFCURVE",
"132 7 OFFCURVE"
);
}
);
width = 360;
}
);
leftKerningGroup = n;
leftMetricsKey = n;
rightKerningGroup = r;
unicode = 0072;
},
{
color = 4;
glyphname = s;
layers = (
{
anchors = (
{
name = bottom;
position = "{266, 0}";
},
{
name = top;
position = "{266, 461}";
}
);
layerId = "C9A88445-F9B1-43BF-9834-532EB19954E9";
paths = (
{
closed = 1;
nodes = (
"352 1 LINE SMOOTH",
"441 1 OFFCURVE",
"481 41 OFFCURVE",
"481 130 CURVE SMOOTH",
"481 219 OFFCURVE",
"441 259 OFFCURVE",
"352 259 CURVE SMOOTH",
"190 259 LINE SMOOTH",
"129 259 OFFCURVE",
"109 279 OFFCURVE",
"109 339 CURVE SMOOTH",
"109 400 OFFCURVE",
"129 420 OFFCURVE",
"190 420 CURVE SMOOTH",
"347 420 LINE SMOOTH",
"400 420 OFFCURVE",
"422 405 OFFCURVE",
"426 361 CURVE SMOOTH",
"428 347 OFFCURVE",
"434 340 OFFCURVE",
"448 340 CURVE SMOOTH",
"462 340 OFFCURVE",
"470 348 OFFCURVE",
"468 362 CURVE SMOOTH",
"462 430 OFFCURVE",
"423 462 OFFCURVE",
"347 462 CURVE SMOOTH",
"190 462 LINE SMOOTH",
"106 462 OFFCURVE",
"67 424 OFFCURVE",
"67 339 CURVE SMOOTH",
"67 255 OFFCURVE",
"106 217 OFFCURVE",
"190 217 CURVE SMOOTH",
"352 217 LINE SMOOTH",
"418 217 OFFCURVE",
"439 195 OFFCURVE",
"439 130 CURVE SMOOTH",
"439 65 OFFCURVE",
"418 43 OFFCURVE",
"352 43 CURVE SMOOTH",
"188 43 LINE SMOOTH",
"131 43 OFFCURVE",
"107 60 OFFCURVE",
"102 109 CURVE SMOOTH",
"101 123 OFFCURVE",
"94 130 OFFCURVE",
"81 130 CURVE SMOOTH",
"67 130 OFFCURVE",
"59 122 OFFCURVE",
"60 108 CURVE SMOOTH",
"67 35 OFFCURVE",
"107 1 OFFCURVE",
"188 1 CURVE SMOOTH"
);
}
);
width = 541;
}
);
leftKerningGroup = s;
rightKerningGroup = s;
unicode = 0073;
},
{
color = 4;
glyphname = germandbls;
layers = (
{
layerId = "C9A88445-F9B1-43BF-9834-532EB19954E9";
paths = (
{
closed = 1;
nodes = (
"125 1 OFFCURVE",
"132 8 OFFCURVE",
"132 22 CURVE SMOOTH",
"132 526 LINE SMOOTH",
"132 616 OFFCURVE",
"164 648 OFFCURVE",
"254 648 CURVE SMOOTH",
"343 648 OFFCURVE",
"375 616 OFFCURVE",
"375 527 CURVE SMOOTH",
"375 445 OFFCURVE",
"349 412 OFFCURVE",
"275 407 CURVE SMOOTH",
"261 406 OFFCURVE",
"254 399 OFFCURVE",
"254 385 CURVE SMOOTH",
"254 371 OFFCURVE",
"261 364 OFFCURVE",
"275 364 CURVE SMOOTH",
"304 364 LINE SMOOTH",
"401 364 OFFCURVE",
"435 330 OFFCURVE",
"435 233 CURVE SMOOTH",
"435 174 LINE SMOOTH",
"435 77 OFFCURVE",
"401 43 OFFCURVE",
"304 43 CURVE SMOOTH",
"243 43 LINE SMOOTH",
"229 43 OFFCURVE",
"222 36 OFFCURVE",
"222 22 CURVE SMOOTH",
"222 8 OFFCURVE",
"229 1 OFFCURVE",
"243 1 CURVE SMOOTH",
"304 1 LINE SMOOTH",
"425 1 OFFCURVE",
"477 53 OFFCURVE",
"477 174 CURVE SMOOTH",
"477 233 LINE SMOOTH",
"477 328 OFFCURVE",
"439 376 OFFCURVE",
"353 394 CURVE",
"397 421 OFFCURVE",
"417 467 OFFCURVE",
"417 527 CURVE SMOOTH",
"417 640 OFFCURVE",
"367 690 OFFCURVE",
"254 690 CURVE SMOOTH",
"140 690 OFFCURVE",
"90 640 OFFCURVE",
"90 526 CURVE SMOOTH",
"90 22 LINE SMOOTH",
"90 8 OFFCURVE",
"97 1 OFFCURVE",
"111 1 CURVE SMOOTH"
);
}
);
width = 517;
}
);
leftKerningGroup = h;
leftMetricsKey = n;
rightKerningGroup = germandbls;
unicode = 00DF;
},
{
color = 4;
glyphname = t;
lastChange = "2016-07-31 01:33:46 +0000";
layers = (
{
anchors = (
{
name = bottom;
position = "{194, 0}";
},
{
name = center;
position = "{164, 311}";
},
{
name = top;
position = "{125, 601}";
},
{
name = topright;
position = "{203, 461}";
}
);
layerId = "C9A88445-F9B1-43BF-9834-532EB19954E9";
paths = (
{
closed = 1;
nodes = (
"298 21 CURVE SMOOTH",
"298 34 OFFCURVE",
"293 42 OFFCURVE",
"276 42 CURVE SMOOTH",
"179 42 OFFCURVE",
"146 75 OFFCURVE",
"146 171 CURVE SMOOTH",
"146 580 LINE SMOOTH",
"146 594 OFFCURVE",
"139 601 OFFCURVE",
"125 601 CURVE SMOOTH",
"111 601 OFFCURVE",
"104 594 OFFCURVE",
"104 580 CURVE SMOOTH",
"104 171 LINE SMOOTH",
"104 52 OFFCURVE",
"156 0 OFFCURVE",
"276 0 CURVE SMOOTH",
"291 0 OFFCURVE",
"298 7 OFFCURVE"
);
},
{
closed = 1;
nodes = (
"275 419 LINE SMOOTH",
"289 419 OFFCURVE",
"296 426 OFFCURVE",
"296 440 CURVE SMOOTH",
"296 454 OFFCURVE",
"289 461 OFFCURVE",
"275 461 CURVE SMOOTH",
"41 461 LINE SMOOTH",
"27 461 OFFCURVE",
"20 454 OFFCURVE",
"20 440 CURVE SMOOTH",
"20 426 OFFCURVE",
"27 419 OFFCURVE",
"41 419 CURVE SMOOTH"
);
}
);
width = 338;
}
);
leftKerningGroup = t;
rightKerningGroup = t;
unicode = 0074;
},
{
color = 4;
glyphname = tbar;
layers = (
{
components = (
{
name = t;
}
);
layerId = "C9A88445-F9B1-43BF-9834-532EB19954E9";
paths = (
{
closed = 1;
nodes = (
"275 290 LINE SMOOTH",
"289 290 OFFCURVE",
"296 297 OFFCURVE",
"296 311 CURVE SMOOTH",
"296 325 OFFCURVE",
"289 332 OFFCURVE",
"275 332 CURVE SMOOTH",
"41 332 LINE SMOOTH",
"27 332 OFFCURVE",
"20 325 OFFCURVE",
"20 311 CURVE SMOOTH",
"20 297 OFFCURVE",
"27 290 OFFCURVE",
"41 290 CURVE SMOOTH"
);
}
);
width = 328;
}
);
leftKerningGroup = t;
rightKerningGroup = t;
unicode = 0167;
},
{
color = 4;
glyphname = v;
layers = (
{
anchors = (
{
name = bottom;
position = "{240, 0}";
},
{
name = top;
position = "{246, 461}";
}
);
layerId = "C9A88445-F9B1-43BF-9834-532EB19954E9";
paths = (
{
closed = 1;
nodes = (
"266 16 CURVE SMOOTH",
"469 431 LINE SMOOTH",
"475 444 OFFCURVE",
"470 454 OFFCURVE",
"458 459 CURVE SMOOTH",
"445 464 OFFCURVE",
"436 461 OFFCURVE",
"430 448 CURVE",
"225 25 LINE",
"255 25 LINE",
"61 448 LINE SMOOTH",
"56 460 OFFCURVE",
"46 464 OFFCURVE",
"34 459 CURVE SMOOTH",
"21 454 OFFCURVE",
"17 444 OFFCURVE",
"22 432 CURVE SMOOTH",
"213 16 LINE SMOOTH",
"218 5 OFFCURVE",
"225 0 OFFCURVE",
"239 0 CURVE SMOOTH",
"250 0 OFFCURVE",
"259 2 OFFCURVE"
);
}
);
width = 492;
}
);
leftKerningGroup = v;
rightKerningGroup = v;
unicode = 0076;
},
{
color = 4;
glyphname = w;
layers = (
{
anchors = (
{
name = bottom;
position = "{344, 0}";
},
{
name = top;
position = "{345, 461}";
}
);
layerId = "C9A88445-F9B1-43BF-9834-532EB19954E9";
paths = (
{
closed = 1;
nodes = (
"481 0 CURVE SMOOTH",
"495 0 OFFCURVE",
"503 5 OFFCURVE",
"507 17 CURVE SMOOTH",
"662 432 LINE SMOOTH",
"666 445 OFFCURVE",
"662 454 OFFCURVE",
"649 459 CURVE SMOOTH",
"636 464 OFFCURVE",
"627 459 OFFCURVE",
"622 446 CURVE SMOOTH",
"468 23 LINE",
"496 23 LINE",
"366 436 LINE SMOOTH",
"362 447 OFFCURVE",
"355 453 OFFCURVE",
"343 453 CURVE SMOOTH",
"331 453 OFFCURVE",
"323 447 OFFCURVE",
"319 436 CURVE",
"180 23 LINE",
"206 23 LINE",
"61 446 LINE SMOOTH",
"57 459 OFFCURVE",
"48 463 OFFCURVE",
"35 459 CURVE SMOOTH",
"22 455 OFFCURVE",
"17 445 OFFCURVE",
"22 432 CURVE SMOOTH",
"164 17 LINE SMOOTH",
"168 5 OFFCURVE",
"175 0 OFFCURVE",
"190 0 CURVE SMOOTH",
"201 0 OFFCURVE",
"211 2 OFFCURVE",
"217 17 CURVE",
"355 411 LINE",
"337 387 LINE",
"454 17 LINE SMOOTH",
"458 4 OFFCURVE",
"466 0 OFFCURVE"
);
}
);
width = 684;
}
);
leftKerningGroup = v;
leftMetricsKey = v;
rightKerningGroup = v;
rightMetricsKey = v;
unicode = 0077;
},
{
color = 4;
glyphname = x;
lastChange = "2016-07-31 01:33:46 +0000";
layers = (
{
anchors = (
{
name = bottom;
position = "{239.004, 0}";
},
{
name = top;
position = "{239.004, 461}";
}
);
layerId = "C9A88445-F9B1-43BF-9834-532EB19954E9";
paths = (
{
closed = 1;
nodes = (
"419 35 CURVE SMOOTH",
"93 452 LINE SMOOTH",
"84 463 OFFCURVE",
"74 464 OFFCURVE",
"63 456 CURVE SMOOTH",
"53 447 OFFCURVE",
"51 437 OFFCURVE",
"60 426 CURVE SMOOTH",
"386 9 LINE SMOOTH",
"395 -2 OFFCURVE",
"405 -3 OFFCURVE",
"416 6 CURVE SMOOTH",
"427 14 OFFCURVE",
"428 24 OFFCURVE"
);
},
{
closed = 1;
nodes = (
"83 9 CURVE SMOOTH",
"247 209 LINE SMOOTH",
"255 220 OFFCURVE",
"254 230 OFFCURVE",
"244 239 CURVE SMOOTH",
"233 247 OFFCURVE",
"223 246 OFFCURVE",
"214 235 CURVE SMOOTH",
"51 36 LINE SMOOTH",
"42 25 OFFCURVE",
"43 15 OFFCURVE",
"54 6 CURVE SMOOTH",
"64 -3 OFFCURVE",
"75 -1 OFFCURVE"
);
},
{
closed = 1;
nodes = (
"259 218 CURVE SMOOTH",
"431 426 LINE SMOOTH",
"440 436 OFFCURVE",
"439 446 OFFCURVE",
"428 455 CURVE SMOOTH",
"418 464 OFFCURVE",
"407 463 OFFCURVE",
"398 452 CURVE SMOOTH",
"227 244 LINE SMOOTH",
"218 234 OFFCURVE",
"219 223 OFFCURVE",
"230 215 CURVE SMOOTH",
"240 206 OFFCURVE",
"251 207 OFFCURVE"
);
}
);
width = 482;
}
);
leftKerningGroup = x;
rightKerningGroup = x;
unicode = 0078;
},
{
color = 4;
glyphname = y;
layers = (
{
anchors = (
{
name = bottom;
position = "{586, 0}";
},
{
name = top;
position = "{287, 461}";
}
);
layerId = "C9A88445-F9B1-43BF-9834-532EB19954E9";
paths = (
{
closed = 1;
nodes = (
"370 -200 LINE SMOOTH",
"455 -200 OFFCURVE",
"493 -162 OFFCURVE",
"493 -76 CURVE SMOOTH",
"493 441 LINE SMOOTH",
"493 455 OFFCURVE",
"486 462 OFFCURVE",
"472 462 CURVE SMOOTH",
"458 462 OFFCURVE",
"451 455 OFFCURVE",
"451 441 CURVE SMOOTH",
"451 170 LINE SMOOTH",
"451 84 OFFCURVE",
"393 41 OFFCURVE",
"274 41 CURVE SMOOTH",
"253 41 LINE SMOOTH",
"156 41 OFFCURVE",
"123 74 OFFCURVE",
"123 170 CURVE SMOOTH",
"123 441 LINE SMOOTH",
"123 455 OFFCURVE",
"116 462 OFFCURVE",
"102 462 CURVE SMOOTH",
"88 462 OFFCURVE",
"81 455 OFFCURVE",
"81 441 CURVE SMOOTH",
"81 170 LINE SMOOTH",
"81 51 OFFCURVE",
"133 -1 OFFCURVE",
"253 -1 CURVE SMOOTH",
"274 -1 LINE SMOOTH",
"355 -1 OFFCURVE",
"414 18 OFFCURVE",
"451 65 CURVE",
"451 -76 LINE SMOOTH",
"451 -139 OFFCURVE",
"431 -158 OFFCURVE",
"370 -158 CURVE SMOOTH",
"204 -158 LINE SMOOTH",
"143 -158 OFFCURVE",
"123 -139 OFFCURVE",
"123 -76 CURVE SMOOTH",
"123 -62 OFFCURVE",
"116 -55 OFFCURVE",
"102 -55 CURVE SMOOTH",
"88 -55 OFFCURVE",
"81 -62 OFFCURVE",
"81 -76 CURVE SMOOTH",
"81 -162 OFFCURVE",
"119 -200 OFFCURVE",
"204 -200 CURVE SMOOTH"
);
}
);
width = 583;
}
);
leftKerningGroup = u;
leftMetricsKey = u;
rightKerningGroup = u;
rightMetricsKey = u;
unicode = 0079;
},
{
color = 4;
glyphname = z;
lastChange = "2016-07-31 01:33:46 +0000";
layers = (
{
anchors = (
{
name = bottom;
position = "{259, 0}";
},
{
name = top;
position = "{259, 461}";
}
);
layerId = "C9A88445-F9B1-43BF-9834-532EB19954E9";
paths = (
{
closed = 1;
nodes = (
"349 0 LINE SMOOTH",
"423 0 OFFCURVE",
"464 34 OFFCURVE",
"471 101 CURVE SMOOTH",
"473 115 OFFCURVE",
"465 123 OFFCURVE",
"451 123 CURVE SMOOTH",
"437 123 OFFCURVE",
"431 116 OFFCURVE",
"429 102 CURVE SMOOTH",
"424 59 OFFCURVE",
"400 42 OFFCURVE",
"349 42 CURVE SMOOTH",
"96 42 LINE",
"117 37 LINE",
"424 416 LINE SMOOTH",
"431 425 OFFCURVE",
"433 431 OFFCURVE",
"433 440 CURVE SMOOTH",
"433 454 OFFCURVE",
"426 461 OFFCURVE",
"412 461 CURVE SMOOTH",
"167 461 LINE SMOOTH",
"90 461 OFFCURVE",
"51 430 OFFCURVE",
"45 360 CURVE SMOOTH",
"44 346 OFFCURVE",
"52 338 OFFCURVE",
"66 338 CURVE SMOOTH",
"79 338 OFFCURVE",
"86 345 OFFCURVE",
"87 359 CURVE SMOOTH",
"92 405 OFFCURVE",
"113 419 OFFCURVE",
"167 419 CURVE SMOOTH",
"406 419 LINE",
"380 428 LINE",
"68 44 LINE SMOOTH",
"62 36 OFFCURVE",
"59 29 OFFCURVE",
"59 21 CURVE SMOOTH",
"59 7 OFFCURVE",
"67 0 OFFCURVE",
"80 0 CURVE SMOOTH"
);
}
);
width = 506;
}
);
leftKerningGroup = z;
rightKerningGroup = z;
unicode = 007A;
},
{
color = 4;
glyphname = a.ss01;
lastChange = "2016-07-31 02:08:06 +0000";
layers = (
{
layerId = "C9A88445-F9B1-43BF-9834-532EB19954E9";
paths = (
{
closed = 1;
nodes = (
"293 0 LINE SMOOTH",
"418 0 OFFCURVE",
"490 54 OFFCURVE",
"499 151 CURVE",
"470 151 LINE",
"470 78 OFFCURVE",
"402 42 OFFCURVE",
"293 42 CURVE SMOOTH",
"252 42 LINE SMOOTH",
"155 42 OFFCURVE",
"122 75 OFFCURVE",
"122 171 CURVE SMOOTH",
"122 286 LINE SMOOTH",
"122 389 OFFCURVE",
"153 420 OFFCURVE",
"251 419 CURVE SMOOTH",
"341 419 LINE SMOOTH",
"432 419 OFFCURVE",
"465 392 OFFCURVE",
"470 306 CURVE",
"491 306 LINE",
"487 416 OFFCURVE",
"442 461 OFFCURVE",
"341 461 CURVE SMOOTH",
"251 461 LINE SMOOTH",
"129 462 OFFCURVE",
"80 412 OFFCURVE",
"80 286 CURVE SMOOTH",
"80 171 LINE SMOOTH",
"80 52 OFFCURVE",
"132 0 OFFCURVE",
"252 0 CURVE SMOOTH"
);
},
{
closed = 1;
nodes = (
"574 0 OFFCURVE",
"582 8 OFFCURVE",
"582 22 CURVE SMOOTH",
"582 35 OFFCURVE",
"575 41 OFFCURVE",
"561 43 CURVE SMOOTH",
"524 47 OFFCURVE",
"512 66 OFFCURVE",
"512 112 CURVE SMOOTH",
"512 439 LINE SMOOTH",
"512 453 OFFCURVE",
"505 460 OFFCURVE",
"491 460 CURVE SMOOTH",
"477 460 OFFCURVE",
"470 453 OFFCURVE",
"470 439 CURVE SMOOTH",
"470 112 LINE SMOOTH",
"470 43 OFFCURVE",
"499 7 OFFCURVE",
"560 1 CURVE SMOOTH"
);
}
);
width = 612;
}
);
leftKerningGroup = o;
leftMetricsKey = o;
rightKerningGroup = l;
rightMetricsKey = l;
},
{
color = 4;
glyphname = f_f;
lastChange = "2016-07-31 02:08:06 +0000";
layers = (
{
components = (
{
name = f;
transform = "{1, 0, 0, 1, 292, 0}";
}
);
layerId = "C9A88445-F9B1-43BF-9834-532EB19954E9";
paths = (
{
closed = 1;
nodes = (
"130 0 OFFCURVE",
"137 7 OFFCURVE",
"137 21 CURVE SMOOTH",
"137 518 LINE SMOOTH",
"137 614 OFFCURVE",
"171 648 OFFCURVE",
"267 648 CURVE SMOOTH",
"281 648 OFFCURVE",
"289 655 OFFCURVE",
"289 669 CURVE SMOOTH",
"289 683 OFFCURVE",
"281 690 OFFCURVE",
"267 690 CURVE SMOOTH",
"147 690 OFFCURVE",
"95 638 OFFCURVE",
"95 518 CURVE SMOOTH",
"95 21 LINE SMOOTH",
"95 7 OFFCURVE",
"102 0 OFFCURVE",
"116 0 CURVE SMOOTH"
);
},
{
closed = 1;
nodes = (
"379 419 LINE SMOOTH",
"393 419 OFFCURVE",
"400 426 OFFCURVE",
"400 440 CURVE SMOOTH",
"400 454 OFFCURVE",
"393 461 OFFCURVE",
"379 461 CURVE SMOOTH",
"51 461 LINE SMOOTH",
"37 461 OFFCURVE",
"30 454 OFFCURVE",
"30 440 CURVE SMOOTH",
"30 426 OFFCURVE",
"37 419 OFFCURVE",
"51 419 CURVE SMOOTH"
);
}
);
width = 601;
}
);
leftKerningGroup = f;
leftMetricsKey = f;
rightKerningGroup = f;
rightMetricsKey = f;
},
{
color = 4;
glyphname = f_f_i;
lastChange = "2016-07-31 02:08:06 +0000";
layers = (
{
components = (
{
name = fi;
transform = "{1, 0, 0, 1, 292, 0}";
}
);
layerId = "C9A88445-F9B1-43BF-9834-532EB19954E9";
paths = (
{
closed = 1;
nodes = (
"130 0 OFFCURVE",
"137 7 OFFCURVE",
"137 21 CURVE SMOOTH",
"137 518 LINE SMOOTH",
"137 614 OFFCURVE",
"171 648 OFFCURVE",
"267 648 CURVE SMOOTH",
"281 648 OFFCURVE",
"289 655 OFFCURVE",
"289 669 CURVE SMOOTH",
"289 683 OFFCURVE",
"281 690 OFFCURVE",
"267 690 CURVE SMOOTH",
"147 690 OFFCURVE",
"95 638 OFFCURVE",
"95 518 CURVE SMOOTH",
"95 21 LINE SMOOTH",
"95 7 OFFCURVE",
"102 0 OFFCURVE",
"116 0 CURVE SMOOTH"
);
},
{
closed = 1;
nodes = (
"379 419 LINE SMOOTH",
"393 419 OFFCURVE",
"400 426 OFFCURVE",
"400 440 CURVE SMOOTH",
"400 454 OFFCURVE",
"393 461 OFFCURVE",
"379 461 CURVE SMOOTH",
"51 461 LINE SMOOTH",
"37 461 OFFCURVE",
"30 454 OFFCURVE",
"30 440 CURVE SMOOTH",
"30 426 OFFCURVE",
"37 419 OFFCURVE",
"51 419 CURVE SMOOTH"
);
}
);
width = 808;
}
);
leftKerningGroup = f;
leftMetricsKey = f;
rightKerningGroup = dotless;
rightMetricsKey = i;
},
{
color = 4;
glyphname = f_f_l;
lastChange = "2016-07-31 02:08:06 +0000";
layers = (
{
components = (
{
name = fl;
transform = "{1, 0, 0, 1, 292, 0}";
}
);
layerId = "C9A88445-F9B1-43BF-9834-532EB19954E9";
paths = (
{
closed = 1;
nodes = (
"130 0 OFFCURVE",
"137 7 OFFCURVE",
"137 21 CURVE SMOOTH",
"137 518 LINE SMOOTH",
"137 614 OFFCURVE",
"171 648 OFFCURVE",
"267 648 CURVE SMOOTH",
"281 648 OFFCURVE",
"289 655 OFFCURVE",
"289 669 CURVE SMOOTH",
"289 683 OFFCURVE",
"281 690 OFFCURVE",
"267 690 CURVE SMOOTH",
"147 690 OFFCURVE",
"95 638 OFFCURVE",
"95 518 CURVE SMOOTH",
"95 21 LINE SMOOTH",
"95 7 OFFCURVE",
"102 0 OFFCURVE",
"116 0 CURVE SMOOTH"
);
},
{
closed = 1;
nodes = (
"379 419 LINE SMOOTH",
"393 419 OFFCURVE",
"400 426 OFFCURVE",
"400 440 CURVE SMOOTH",
"400 454 OFFCURVE",
"393 461 OFFCURVE",
"379 461 CURVE SMOOTH",
"51 461 LINE SMOOTH",
"37 461 OFFCURVE",
"30 454 OFFCURVE",
"30 440 CURVE SMOOTH",
"30 426 OFFCURVE",
"37 419 OFFCURVE",
"51 419 CURVE SMOOTH"
);
}
);
width = 840;
}
);
leftKerningGroup = f;
leftMetricsKey = f;
rightKerningGroup = l;
rightMetricsKey = l;
},
{
color = 4;
glyphname = fi;
layers = (
{
components = (
{
alignment = -1;
name = idotless;
transform = "{1, 0, 0, 1, 297, 0}";
},
{
alignment = -1;
name = dotaccentcomb;
transform = "{0.9259, 0, 0, 0.9259, 302, 101}";
}
);
layerId = "C9A88445-F9B1-43BF-9834-532EB19954E9";
paths = (
{
closed = 1;
nodes = (
"130 0 OFFCURVE",
"137 7 OFFCURVE",
"137 21 CURVE SMOOTH",
"137 419 LINE",
"408 419 LINE SMOOTH",
"422 419 OFFCURVE",
"429 426 OFFCURVE",
"429 440 CURVE SMOOTH",
"429 454 OFFCURVE",
"422 461 OFFCURVE",
"408 461 CURVE SMOOTH",
"137 461 LINE",
"137 519 LINE SMOOTH",
"137 615 OFFCURVE",
"170 648 OFFCURVE",
"267 648 CURVE",
"389 616 LINE",
"397 690 LINE",
"267 690 LINE SMOOTH",
"147 690 OFFCURVE",
"95 638 OFFCURVE",
"95 519 CURVE SMOOTH",
"95 461 LINE",
"51 461 LINE SMOOTH",
"37 461 OFFCURVE",
"30 454 OFFCURVE",
"30 440 CURVE SMOOTH",
"30 426 OFFCURVE",
"37 419 OFFCURVE",
"51 419 CURVE SMOOTH",
"95 419 LINE",
"95 21 LINE SMOOTH",
"95 7 OFFCURVE",
"102 0 OFFCURVE",
"116 0 CURVE SMOOTH"
);
}
);
width = 516;
}
);
leftKerningGroup = f;
leftMetricsKey = f;
rightMetricsKey = i;
unicode = FB01;
},
{
color = 4;
glyphname = fl;
layers = (
{
layerId = "C9A88445-F9B1-43BF-9834-532EB19954E9";
paths = (
{
closed = 1;
nodes = (
"510 -1 OFFCURVE",
"518 7 OFFCURVE",
"518 20 CURVE SMOOTH",
"518 34 OFFCURVE",
"511 41 OFFCURVE",
"497 42 CURVE SMOOTH",
"445 45 OFFCURVE",
"429 65 OFFCURVE",
"429 111 CURVE SMOOTH",
"429 669 LINE SMOOTH",
"429 683 OFFCURVE",
"422 690 OFFCURVE",
"408 690 CURVE SMOOTH",
"267 690 LINE SMOOTH",
"147 690 OFFCURVE",
"95 638 OFFCURVE",
"95 518 CURVE SMOOTH",
"95 21 LINE SMOOTH",
"95 7 OFFCURVE",
"102 0 OFFCURVE",
"116 0 CURVE SMOOTH",
"130 0 OFFCURVE",
"137 7 OFFCURVE",
"137 21 CURVE SMOOTH",
"137 518 LINE SMOOTH",
"137 614 OFFCURVE",
"171 648 OFFCURVE",
"267 648 CURVE SMOOTH",
"387 648 LINE",
"387 111 LINE SMOOTH",
"387 40 OFFCURVE",
"421 5 OFFCURVE",
"496 0 CURVE SMOOTH"
);
},
{
closed = 1;
nodes = (
"267 419 LINE SMOOTH",
"281 419 OFFCURVE",
"288 426 OFFCURVE",
"288 440 CURVE SMOOTH",
"288 454 OFFCURVE",
"281 461 OFFCURVE",
"267 461 CURVE SMOOTH",
"51 461 LINE SMOOTH",
"37 461 OFFCURVE",
"30 454 OFFCURVE",
"30 440 CURVE SMOOTH",
"30 426 OFFCURVE",
"37 419 OFFCURVE",
"51 419 CURVE SMOOTH"
);
}
);
width = 548;
}
);
leftKerningGroup = f;
leftMetricsKey = f;
rightKerningGroup = l;
rightMetricsKey = l;
unicode = FB02;
},
{
color = 4;
glyphname = I_J.loclNLD;
lastChange = "2016-07-31 02:08:06 +0000";
layers = (
{
layerId = "C9A88445-F9B1-43BF-9834-532EB19954E9";
paths = (
{
closed = 1;
nodes = (
"124 249 OFFCURVE",
"133 258 OFFCURVE",
"133 270 CURVE SMOOTH",
"133 613 LINE SMOOTH",
"133 625 OFFCURVE",
"124 634 OFFCURVE",
"112 634 CURVE SMOOTH",
"100 634 OFFCURVE",
"91 625 OFFCURVE",
"91 613 CURVE SMOOTH",
"91 270 LINE SMOOTH",
"91 258 OFFCURVE",
"100 249 OFFCURVE",
"112 249 CURVE SMOOTH"
);
},
{
closed = 1;
nodes = (
"299 0 LINE SMOOTH",
"428 0 OFFCURVE",
"482 54 OFFCURVE",
"482 183 CURVE SMOOTH",
"482 612 LINE SMOOTH",
"482 626 OFFCURVE",
"475 633 OFFCURVE",
"461 633 CURVE SMOOTH",
"447 633 OFFCURVE",
"440 626 OFFCURVE",
"440 612 CURVE SMOOTH",
"440 183 LINE SMOOTH",
"440 77 OFFCURVE",
"405 42 OFFCURVE",
"299 42 CURVE SMOOTH",
"272 42 LINE SMOOTH",
"174 42 OFFCURVE",
"136 72 OFFCURVE",
"132 162 CURVE SMOOTH",
"131 176 OFFCURVE",
"124 183 OFFCURVE",
"110 183 CURVE SMOOTH",
"96 183 OFFCURVE",
"89 175 OFFCURVE",
"90 161 CURVE SMOOTH",
"95 48 OFFCURVE",
"150 0 OFFCURVE",
"272 0 CURVE SMOOTH"
);
}
);
width = 562;
}
);
leftKerningGroup = H;
leftMetricsKey = H;
rightKerningGroup = U;
rightMetricsKey = J;
},
{
color = 4;
glyphname = ordfeminine;
layers = (
{
layerId = "C9A88445-F9B1-43BF-9834-532EB19954E9";
paths = (
{
closed = 1;
nodes = (
"358 319 OFFCURVE",
"365 326 OFFCURVE",
"365 340 CURVE SMOOTH",
"365 519 LINE SMOOTH",
"365 605 OFFCURVE",
"326 644 OFFCURVE",
"240 644 CURVE SMOOTH",
"184 644 LINE SMOOTH",
"106 644 OFFCURVE",
"66 621 OFFCURVE",
"58 570 CURVE",
"55 556 OFFCURVE",
"64 548 OFFCURVE",
"78 548 CURVE SMOOTH",
"91 548 OFFCURVE",
"97 555 OFFCURVE",
"100 568 CURVE",
"107 593 OFFCURVE",
"129 602 OFFCURVE",
"184 602 CURVE SMOOTH",
"240 602 LINE SMOOTH",
"302 602 OFFCURVE",
"323 581 OFFCURVE",
"323 519 CURVE SMOOTH",
"323 340 LINE SMOOTH",
"323 326 OFFCURVE",
"330 319 OFFCURVE",
"344 319 CURVE SMOOTH"
);
},
{
closed = 1;
nodes = (
"210 319 LINE SMOOTH",
"289 319 OFFCURVE",
"335 354 OFFCURVE",
"344 420 CURVE",
"323 422 LINE",
"323 380 OFFCURVE",
"277 361 OFFCURVE",
"210 361 CURVE SMOOTH",
"155 361 LINE SMOOTH",
"106 361 OFFCURVE",
"92 376 OFFCURVE",
"92 424 CURVE SMOOTH",
"92 473 OFFCURVE",
"107 487 OFFCURVE",
"155 487 CURVE SMOOTH",
"323 487 LINE SMOOTH",
"337 487 OFFCURVE",
"344 494 OFFCURVE",
"344 508 CURVE SMOOTH",
"344 522 OFFCURVE",
"337 529 OFFCURVE",
"323 529 CURVE SMOOTH",
"155 529 LINE SMOOTH",
"83 529 OFFCURVE",
"50 496 OFFCURVE",
"50 424 CURVE SMOOTH",
"50 352 OFFCURVE",
"83 319 OFFCURVE",
"155 319 CURVE SMOOTH"
);
}
);
width = 415;
}
);
leftKerningGroup = ordfeminine;
rightKerningGroup = ordfemnne;
unicode = 00AA;
},
{
color = 4;
glyphname = ordmasculine;
layers = (
{
layerId = "C9A88445-F9B1-43BF-9834-532EB19954E9";
paths = (
{
closed = 1;
nodes = (
"241 319 LINE SMOOTH",
"327 319 OFFCURVE",
"366 358 OFFCURVE",
"366 445 CURVE SMOOTH",
"366 519 LINE SMOOTH",
"366 605 OFFCURVE",
"327 644 OFFCURVE",
"241 644 CURVE SMOOTH",
"175 644 LINE SMOOTH",
"89 645 OFFCURVE",
"50 606 OFFCURVE",
"50 519 CURVE SMOOTH",
"50 444 LINE SMOOTH",
"50 358 OFFCURVE",
"89 319 OFFCURVE",
"175 319 CURVE SMOOTH"
);
},
{
closed = 1;
nodes = (
"113 361 OFFCURVE",
"92 382 OFFCURVE",
"92 444 CURVE SMOOTH",
"92 519 LINE SMOOTH",
"92 583 OFFCURVE",
"113 603 OFFCURVE",
"175 602 CURVE SMOOTH",
"241 602 LINE SMOOTH",
"303 602 OFFCURVE",
"324 581 OFFCURVE",
"324 519 CURVE SMOOTH",
"324 445 LINE SMOOTH",
"324 382 OFFCURVE",
"303 361 OFFCURVE",
"241 361 CURVE SMOOTH",
"175 361 LINE SMOOTH"
);
}
);
width = 416;
}
);
leftKerningGroup = ordfeminine;
rightKerningGroup = ordfemnne;
unicode = 00BA;
},
{
color = 4;
glyphname = zero;
layers = (
{
components = (
{
name = periodcentered;
transform = "{1, 0, 0, 1, 210, 27}";
}
);
layerId = "C9A88445-F9B1-43BF-9834-532EB19954E9";
paths = (
{
closed = 1;
nodes = (
"323 -3 LINE SMOOTH",
"465 -3 OFFCURVE",
"526 58 OFFCURVE",
"526 200 CURVE SMOOTH",
"526 426 LINE SMOOTH",
"526 568 OFFCURVE",
"465 629 OFFCURVE",
"323 629 CURVE SMOOTH",
"263 629 LINE SMOOTH",
"121.996 629 OFFCURVE",
"60 569 OFFCURVE",
"60 427 CURVE SMOOTH",
"60 200 LINE SMOOTH",
"60 58 OFFCURVE",
"121 -3 OFFCURVE",
"263 -3 CURVE SMOOTH"
);
},
{
closed = 1;
nodes = (
"145 39 OFFCURVE",
"102 82 OFFCURVE",
"102 200 CURVE SMOOTH",
"102 427 LINE SMOOTH",
"102 545 OFFCURVE",
"144.996 587 OFFCURVE",
"263 587 CURVE SMOOTH",
"323 587 LINE SMOOTH",
"441 587 OFFCURVE",
"484 544 OFFCURVE",
"484 426 CURVE SMOOTH",
"484 200 LINE SMOOTH",
"484 82 OFFCURVE",
"441 39 OFFCURVE",
"323 39 CURVE SMOOTH",
"263 39 LINE SMOOTH"
);
}
);
width = 586;
}
);
leftKerningGroup = zero;
rightKerningGroup = zero;
unicode = 0030;
},
{
color = 4;
glyphname = one;
lastChange = "2016-07-31 01:33:46 +0000";
layers = (
{
layerId = "C9A88445-F9B1-43BF-9834-532EB19954E9";
paths = (
{
closed = 1;
nodes = (
"236 0 OFFCURVE",
"243 7 OFFCURVE",
"243 21 CURVE SMOOTH",
"243 612 LINE SMOOTH",
"243 626 OFFCURVE",
"237 633 OFFCURVE",
"226 633 CURVE SMOOTH",
"215 633 OFFCURVE",
"207 630 OFFCURVE",
"200 622 CURVE SMOOTH",
"87 512 LINE SMOOTH",
"78 502 OFFCURVE",
"78 492 OFFCURVE",
"87 482 CURVE SMOOTH",
"97 472 OFFCURVE",
"107 472 OFFCURVE",
"117 482 CURVE SMOOTH",
"225 589 LINE",
"201 590 LINE",
"201 21 LINE SMOOTH",
"201 7 OFFCURVE",
"208 0 OFFCURVE",
"222 0 CURVE SMOOTH"
);
}
);
width = 343;
}
);
leftKerningGroup = one;
rightKerningGroup = one;
unicode = 0031;
},
{
color = 4;
glyphname = two;
lastChange = "2016-07-31 01:33:46 +0000";
layers = (
{
layerId = "C9A88445-F9B1-43BF-9834-532EB19954E9";
paths = (
{
closed = 1;
nodes = (
"497 0 OFFCURVE",
"504 7 OFFCURVE",
"504 21 CURVE SMOOTH",
"504 35 OFFCURVE",
"497 42 OFFCURVE",
"483 42 CURVE SMOOTH",
"112 42 LINE",
"120 154 OFFCURVE",
"182 192 OFFCURVE",
"325 274 CURVE SMOOTH",
"420 328 OFFCURVE",
"494 371 OFFCURVE",
"494 469 CURVE",
"494 583 OFFCURVE",
"444 633 OFFCURVE",
"330 633 CURVE SMOOTH",
"223 633 LINE SMOOTH",
"117 633 OFFCURVE",
"66 589 OFFCURVE",
"60 492 CURVE SMOOTH",
"59 478 OFFCURVE",
"67 470 OFFCURVE",
"81 470 CURVE SMOOTH",
"94 470 OFFCURVE",
"101 477 OFFCURVE",
"102 491 CURVE SMOOTH",
"107 564 OFFCURVE",
"141 591 OFFCURVE",
"223 591 CURVE SMOOTH",
"330 591 LINE SMOOTH",
"421 591 OFFCURVE",
"452 559 OFFCURVE",
"452 469 CURVE SMOOTH",
"452 395 OFFCURVE",
"399 365 OFFCURVE",
"304 310 CURVE SMOOTH",
"140 216 OFFCURVE",
"69 165 OFFCURVE",
"69 21 CURVE SMOOTH",
"69 7 OFFCURVE",
"77 0 OFFCURVE",
"91 0 CURVE SMOOTH",
"483 0 LINE SMOOTH"
);
}
);
width = 564;
}
);
leftKerningGroup = two;
rightKerningGroup = two;
unicode = 0032;
},
{
color = 4;
glyphname = three;
lastChange = "2016-07-31 01:33:46 +0000";
layers = (
{
layerId = "C9A88445-F9B1-43BF-9834-532EB19954E9";
paths = (
{
closed = 1;
nodes = (
"337 1 LINE SMOOTH",
"458 1 OFFCURVE",
"511 54 OFFCURVE",
"511 174 CURVE SMOOTH",
"511 254 OFFCURVE",
"482 304 OFFCURVE",
"416 329 CURVE",
"470 354 OFFCURVE",
"495 400 OFFCURVE",
"495 469 CURVE SMOOTH",
"495 583 OFFCURVE",
"445 633 OFFCURVE",
"331 633 CURVE SMOOTH",
"234 633 LINE SMOOTH",
"128 633 OFFCURVE",
"77 589 OFFCURVE",
"71 492 CURVE SMOOTH",
"70 478 OFFCURVE",
"78 470 OFFCURVE",
"92 470 CURVE SMOOTH",
"105 470 OFFCURVE",
"112 477 OFFCURVE",
"113 491 CURVE SMOOTH",
"118 564 OFFCURVE",
"152 591 OFFCURVE",
"234 591 CURVE SMOOTH",
"331 591 LINE SMOOTH",
"422 591 OFFCURVE",
"453 559 OFFCURVE",
"453 469 CURVE SMOOTH",
"453 386 OFFCURVE",
"427 348 OFFCURVE",
"342 347 CURVE SMOOTH",
"239 347 LINE SMOOTH",
"226 347 OFFCURVE",
"218 340 OFFCURVE",
"218 326 CURVE SMOOTH",
"218 312 OFFCURVE",
"226 305 OFFCURVE",
"239 305 CURVE SMOOTH",
"337 305 LINE SMOOTH",
"435 305 OFFCURVE",
"469 271 OFFCURVE",
"469 174 CURVE SMOOTH",
"469 77 OFFCURVE",
"435 43 OFFCURVE",
"337 43 CURVE SMOOTH",
"223 43 LINE SMOOTH",
"133 43 OFFCURVE",
"97 72 OFFCURVE",
"92 153 CURVE SMOOTH",
"91 167 OFFCURVE",
"84 174 OFFCURVE",
"71 174 CURVE SMOOTH",
"57 174 OFFCURVE",
"49 166 OFFCURVE",
"50 152 CURVE SMOOTH",
"56 47 OFFCURVE",
"110 1 OFFCURVE",
"223 1 CURVE SMOOTH"
);
}
);
width = 571;
}
);
leftKerningGroup = three;
rightKerningGroup = three;
unicode = 0033;
},
{
color = 4;
glyphname = four;
lastChange = "2016-07-31 01:33:46 +0000";
layers = (
{
layerId = "C9A88445-F9B1-43BF-9834-532EB19954E9";
paths = (
{
closed = 1;
nodes = (
"412 0 OFFCURVE",
"419 7 OFFCURVE",
"419 21 CURVE SMOOTH",
"424 612 LINE SMOOTH",
"424 626 OFFCURVE",
"418 633 OFFCURVE",
"406 633 CURVE SMOOTH",
"394 633 OFFCURVE",
"387 629 OFFCURVE",
"380 620 CURVE SMOOTH",
"39 182 LINE SMOOTH",
"33 174 OFFCURVE",
"30 168 OFFCURVE",
"30 160 CURVE SMOOTH",
"30 146 OFFCURVE",
"37 139 OFFCURVE",
"51 139 CURVE SMOOTH",
"467 139 LINE SMOOTH",
"481 139 OFFCURVE",
"488 146 OFFCURVE",
"488 160 CURVE SMOOTH",
"488 174 OFFCURVE",
"481 181 OFFCURVE",
"467 181 CURVE SMOOTH",
"74 181 LINE",
"83 171 LINE",
"390 565 LINE",
"382 570 LINE",
"377 21 LINE SMOOTH",
"377 8 OFFCURVE",
"384 0 OFFCURVE",
"398 0 CURVE SMOOTH"
);
}
);
width = 518;
}
);
leftKerningGroup = four;
rightKerningGroup = four;
unicode = 0034;
},
{
color = 4;
glyphname = five;
lastChange = "2016-07-31 01:33:46 +0000";
layers = (
{
layerId = "C9A88445-F9B1-43BF-9834-532EB19954E9";
paths = (
{
closed = 1;
nodes = (
"337 0 LINE SMOOTH",
"458 0 OFFCURVE",
"511 53 OFFCURVE",
"511 174 CURVE SMOOTH",
"511 243 LINE SMOOTH",
"511 364 OFFCURVE",
"458 417 OFFCURVE",
"337 417 CURVE SMOOTH",
"263 417 LINE SMOOTH",
"199 417 OFFCURVE",
"152 407 OFFCURVE",
"118 386 CURVE",
"118 591 LINE",
"483 591 LINE SMOOTH",
"497 591 OFFCURVE",
"504 598 OFFCURVE",
"504 612 CURVE SMOOTH",
"504 626 OFFCURVE",
"497 633 OFFCURVE",
"483 633 CURVE SMOOTH",
"97 633 LINE SMOOTH",
"84 633 OFFCURVE",
"76 626 OFFCURVE",
"76 612 CURVE SMOOTH",
"76 354 LINE SMOOTH",
"76 342 OFFCURVE",
"82 334 OFFCURVE",
"94 331 CURVE SMOOTH",
"98 330 LINE SMOOTH",
"110 326 OFFCURVE",
"118 330 OFFCURVE",
"126 338 CURVE SMOOTH",
"151 363 OFFCURVE",
"194 375 OFFCURVE",
"263 375 CURVE SMOOTH",
"337 375 LINE SMOOTH",
"435 375 OFFCURVE",
"469 340 OFFCURVE",
"469 243 CURVE SMOOTH",
"469 174 LINE SMOOTH",
"469 77 OFFCURVE",
"435 42 OFFCURVE",
"337 42 CURVE SMOOTH",
"233 42 LINE SMOOTH",
"143 42 OFFCURVE",
"107 71 OFFCURVE",
"102 152 CURVE SMOOTH",
"101 166 OFFCURVE",
"94 173 OFFCURVE",
"81 173 CURVE SMOOTH",
"67 173 OFFCURVE",
"59 165 OFFCURVE",
"60 151 CURVE SMOOTH",
"66 46 OFFCURVE",
"120 0 OFFCURVE",
"233 0 CURVE SMOOTH"
);
}
);
width = 571;
}
);
leftKerningGroup = five;
rightKerningGroup = fve;
unicode = 0035;
},
{
color = 4;
glyphname = six;
lastChange = "2016-07-31 01:33:46 +0000";
layers = (
{
layerId = "C9A88445-F9B1-43BF-9834-532EB19954E9";
paths = (
{
closed = 1;
nodes = (
"338 1 LINE SMOOTH",
"459 1 OFFCURVE",
"512 54 OFFCURVE",
"512 175 CURVE SMOOTH",
"512 242 LINE",
"512 363 OFFCURVE",
"459 416 OFFCURVE",
"338 416 CURVE SMOOTH",
"234 416 LINE SMOOTH",
"167 416 OFFCURVE",
"124 395 OFFCURVE",
"102 348 CURVE",
"102 469 LINE",
"102 559 OFFCURVE",
"134 591 OFFCURVE",
"224 591 CURVE SMOOTH",
"348 591 LINE SMOOTH",
"431 591 OFFCURVE",
"464 564 OFFCURVE",
"469 491 CURVE SMOOTH",
"470 477 OFFCURVE",
"477 470 OFFCURVE",
"491 470 CURVE SMOOTH",
"504 470 OFFCURVE",
"512 478 OFFCURVE",
"511 492 CURVE SMOOTH",
"505 589 OFFCURVE",
"454 633 OFFCURVE",
"348 633 CURVE SMOOTH",
"224 633 LINE SMOOTH",
"110 633 OFFCURVE",
"60 583 OFFCURVE",
"60 469 CURVE",
"60 174 LINE",
"60 54 OFFCURVE",
"113 1 OFFCURVE",
"234 1 CURVE SMOOTH"
);
},
{
closed = 1;
nodes = (
"136 43 OFFCURVE",
"102 77 OFFCURVE",
"102 174 CURVE",
"102 243 LINE",
"102 340 OFFCURVE",
"136 374 OFFCURVE",
"234 374 CURVE SMOOTH",
"338 374 LINE SMOOTH",
"435 374 OFFCURVE",
"470 339 OFFCURVE",
"470 242 CURVE SMOOTH",
"470 175 LINE SMOOTH",
"470 78 OFFCURVE",
"435 43 OFFCURVE",
"338 43 CURVE SMOOTH",
"234 43 LINE SMOOTH"
);
}
);
width = 572;
}
);
leftKerningGroup = six;
rightKerningGroup = sx;
unicode = 0036;
},
{
color = 4;
glyphname = seven;
lastChange = "2016-07-31 01:33:46 +0000";
layers = (
{
layerId = "C9A88445-F9B1-43BF-9834-532EB19954E9";
paths = (
{
closed = 1;
nodes = (
"171 0 OFFCURVE",
"178 8 OFFCURVE",
"178 22 CURVE SMOOTH",
"180 214 OFFCURVE",
"205 278 OFFCURVE",
"303 346 CURVE SMOOTH",
"395 409 OFFCURVE",
"427 479 OFFCURVE",
"427 612 CURVE SMOOTH",
"427 626 OFFCURVE",
"419 633 OFFCURVE",
"406 633 CURVE SMOOTH",
"51 633 LINE SMOOTH",
"37 633 OFFCURVE",
"30 626 OFFCURVE",
"30 612 CURVE SMOOTH",
"30 598 OFFCURVE",
"37 591 OFFCURVE",
"51 591 CURVE SMOOTH",
"385 591 LINE",
"382 485 OFFCURVE",
"355 433 OFFCURVE",
"279 380 CURVE SMOOTH",
"159 297 OFFCURVE",
"137 204 OFFCURVE",
"136 22 CURVE SMOOTH",
"136 8 OFFCURVE",
"143 0 OFFCURVE",
"157 0 CURVE SMOOTH"
);
}
);
width = 457;
}
);
leftKerningGroup = seven;
rightKerningGroup = seven;
unicode = 0037;
},
{
color = 4;
glyphname = eight;
lastChange = "2016-07-31 01:33:46 +0000";
layers = (
{
layerId = "C9A88445-F9B1-43BF-9834-532EB19954E9";
paths = (
{
closed = 1;
nodes = (
"484 353 OFFCURVE",
"506 399 OFFCURVE",
"506 469 CURVE SMOOTH",
"506 583 OFFCURVE",
"456 633 OFFCURVE",
"342 633 CURVE SMOOTH",
"245 633 LINE SMOOTH",
"131 633 OFFCURVE",
"81 583 OFFCURVE",
"81 469 CURVE SMOOTH",
"81 401 OFFCURVE",
"102 355 OFFCURVE",
"148 329 CURVE",
"88 305 OFFCURVE",
"60 255 OFFCURVE",
"60 173 CURVE SMOOTH",
"60 53 OFFCURVE",
"113 0 OFFCURVE",
"234 0 CURVE SMOOTH",
"348 0 LINE SMOOTH",
"469 0 OFFCURVE",
"522 53 OFFCURVE",
"522 173 CURVE SMOOTH",
"522 253 OFFCURVE",
"495 304 OFFCURVE",
"437 328 CURVE"
);
},
{
closed = 1;
nodes = (
"342 591 LINE SMOOTH",
"432 591 OFFCURVE",
"464 559 OFFCURVE",
"464 469 CURVE SMOOTH",
"464 386 OFFCURVE",
"437 347 OFFCURVE",
"362 347 CURVE SMOOTH",
"246 346 LINE",
"155 346 OFFCURVE",
"123 378 OFFCURVE",
"123 469 CURVE SMOOTH",
"123 559 OFFCURVE",
"155 591 OFFCURVE",
"245 591 CURVE SMOOTH"
);
},
{
closed = 1;
nodes = (
"234 42 LINE SMOOTH",
"136 42 OFFCURVE",
"102 76 OFFCURVE",
"102 173 CURVE SMOOTH",
"102 270 OFFCURVE",
"136 304 OFFCURVE",
"234 304 CURVE SMOOTH",
"348 304 LINE",
"446 304 OFFCURVE",
"480 270 OFFCURVE",
"480 173 CURVE SMOOTH",
"480 76 OFFCURVE",
"446 42 OFFCURVE",
"348 42 CURVE SMOOTH"
);
}
);
width = 582;
}
);
leftKerningGroup = eight;
rightKerningGroup = eght;
unicode = 0038;
},
{
color = 4;
glyphname = onesuperior;
layers = (
{
layerId = "C9A88445-F9B1-43BF-9834-532EB19954E9";
paths = (
{
closed = 1;
nodes = (
"204 319 OFFCURVE",
"211 327 OFFCURVE",
"211 340 CURVE SMOOTH",
"211 612 LINE SMOOTH",
"211 626 OFFCURVE",
"204 633 OFFCURVE",
"190 633 CURVE SMOOTH",
"179 633 OFFCURVE",
"172 630 OFFCURVE",
"164 622 CURVE SMOOTH",
"87 548 LINE SMOOTH",
"78 538 OFFCURVE",
"78 528 OFFCURVE",
"87 518 CURVE SMOOTH",
"97 508 OFFCURVE",
"107 508 OFFCURVE",
"117 518 CURVE",
"190 591 LINE",
"169 590 LINE",
"169 340 LINE SMOOTH",
"169 327 OFFCURVE",
"177 319 OFFCURVE",
"190 319 CURVE SMOOTH"
);
}
);
width = 271;
}
);
leftKerningGroup = onesuperior;
leftMetricsKey = one;
rightKerningGroup = onesuperor;
rightMetricsKey = "=one-40";
unicode = 00B9;
},
{
color = 4;
glyphname = twosuperior;
lastChange = "2016-07-31 01:33:46 +0000";
layers = (
{
layerId = "C9A88445-F9B1-43BF-9834-532EB19954E9";
paths = (
{
closed = 1;
nodes = (
"281 319 OFFCURVE",
"289 326 OFFCURVE",
"289 340 CURVE SMOOTH",
"289 354 OFFCURVE",
"281 361 OFFCURVE",
"268 361 CURVE SMOOTH",
"108 361 LINE",
"115 400 OFFCURVE",
"145 416 OFFCURVE",
"189 441 CURVE SMOOTH",
"237 468 OFFCURVE",
"283 490 OFFCURVE",
"283 546 CURVE SMOOTH",
"283 605 OFFCURVE",
"255 633 OFFCURVE",
"196 633 CURVE SMOOTH",
"146 633 LINE SMOOTH",
"95 633 OFFCURVE",
"67 612 OFFCURVE",
"60 568 CURVE SMOOTH",
"58 554 OFFCURVE",
"67 546 OFFCURVE",
"81 546 CURVE SMOOTH",
"94 546 OFFCURVE",
"100 553 OFFCURVE",
"103 566 CURVE SMOOTH",
"107 585 OFFCURVE",
"119 591 OFFCURVE",
"146 591 CURVE SMOOTH",
"196 591 LINE SMOOTH",
"231 591 OFFCURVE",
"241 581 OFFCURVE",
"241 546 CURVE SMOOTH",
"241 516 OFFCURVE",
"218 506 OFFCURVE",
"168 477 CURVE SMOOTH",
"118 448 OFFCURVE",
"64 421 OFFCURVE",
"64 340 CURVE SMOOTH",
"64 326 OFFCURVE",
"72 319 OFFCURVE",
"85 319 CURVE SMOOTH",
"268 319 LINE SMOOTH"
);
}
);
width = 349;
}
);
leftKerningGroup = twosuperior;
leftMetricsKey = two;
rightKerningGroup = twosuperor;
rightMetricsKey = two;
unicode = 00B2;
},
{
color = 4;
glyphname = threesuperior;
layers = (
{
layerId = "C9A88445-F9B1-43BF-9834-532EB19954E9";
paths = (
{
closed = 1;
nodes = (
"193 319 LINE SMOOTH",
"255 319 OFFCURVE",
"285 348 OFFCURVE",
"285 410 CURVE SMOOTH",
"285 472 OFFCURVE",
"256 501 OFFCURVE",
"193 501 CURVE SMOOTH",
"159 501 LINE SMOOTH",
"145 501 OFFCURVE",
"138 494 OFFCURVE",
"138 480 CURVE SMOOTH",
"138 466 OFFCURVE",
"145 459 OFFCURVE",
"159 459 CURVE SMOOTH",
"193 459 LINE SMOOTH",
"232 459 OFFCURVE",
"243 449 OFFCURVE",
"243 410 CURVE SMOOTH",
"243 372 OFFCURVE",
"232 361 OFFCURVE",
"193 361 CURVE SMOOTH",
"141 361 LINE SMOOTH",
"110 361 OFFCURVE",
"96 368 OFFCURVE",
"92 390 CURVE SMOOTH",
"90 403 OFFCURVE",
"84 410 OFFCURVE",
"70 410 CURVE SMOOTH",
"56 410 OFFCURVE",
"48 402 OFFCURVE",
"50 388 CURVE SMOOTH",
"57 341 OFFCURVE",
"86 319 OFFCURVE",
"141 319 CURVE SMOOTH"
);
},
{
closed = 1;
nodes = (
"249 479 OFFCURVE",
"278 502 OFFCURVE",
"278 546 CURVE SMOOTH",
"278 605 OFFCURVE",
"249 633 OFFCURVE",
"191 633 CURVE SMOOTH",
"142 633 LINE SMOOTH",
"90 633 OFFCURVE",
"62 612 OFFCURVE",
"56 568 CURVE SMOOTH",
"54 554 OFFCURVE",
"62 546 OFFCURVE",
"76 546 CURVE SMOOTH",
"90 546 OFFCURVE",
"95 553 OFFCURVE",
"98 566 CURVE SMOOTH",
"102 585 OFFCURVE",
"114 591 OFFCURVE",
"142 591 CURVE SMOOTH",
"191 591 LINE SMOOTH",
"226 591 OFFCURVE",
"236 581 OFFCURVE",
"236 546 CURVE SMOOTH",
"236 518 OFFCURVE",
"225 501 OFFCURVE",
"190 501 CURVE",
"190 473 LINE"
);
}
);
width = 305;
}
);
leftKerningGroup = threesuperior;
leftMetricsKey = three;
rightKerningGroup = threesuperor;
rightMetricsKey = "=three-40";
unicode = 00B3;
},
{
color = 4;
glyphname = foursuperior;
layers = (
{
layerId = "C9A88445-F9B1-43BF-9834-532EB19954E9";
paths = (
{
closed = 1;
nodes = (
"226 319 OFFCURVE",
"233 326 OFFCURVE",
"233 340 CURVE SMOOTH",
"235 612 LINE SMOOTH",
"235 626 OFFCURVE",
"228 633 OFFCURVE",
"215 633 CURVE SMOOTH",
"203 633 OFFCURVE",
"196 630 OFFCURVE",
"189 620 CURVE SMOOTH",
"39 427 LINE SMOOTH",
"32 419 OFFCURVE",
"30 412 OFFCURVE",
"30 403 CURVE SMOOTH",
"30 389 OFFCURVE",
"37 382 OFFCURVE",
"51 382 CURVE SMOOTH",
"262 382 LINE SMOOTH",
"276 382 OFFCURVE",
"283 389 OFFCURVE",
"283 403 CURVE SMOOTH",
"283 417 OFFCURVE",
"276 424 OFFCURVE",
"262 424 CURVE",
"66 424 LINE",
"73 405 LINE",
"214 588 LINE",
"193 580 LINE",
"191 340 LINE SMOOTH",
"191 326 OFFCURVE",
"198 319 OFFCURVE",
"212 319 CURVE SMOOTH"
);
}
);
width = 313;
}
);
leftKerningGroup = foursuperior;
leftMetricsKey = four;
rightKerningGroup = foursuperor;
rightMetricsKey = four;
unicode = 2074;
},
{
color = 4;
glyphname = fraction;
layers = (
{
layerId = "C9A88445-F9B1-43BF-9834-532EB19954E9";
paths = (
{
closed = 1;
nodes = (
"-132 1 OFFCURVE",
"-126 4 OFFCURVE",
"-122 10 CURVE SMOOTH",
"339 620 LINE SMOOTH",
"341 624 OFFCURVE",
"343 628 OFFCURVE",
"343 633 CURVE SMOOTH",
"343 645 OFFCURVE",
"334 654 OFFCURVE",
"322 654 CURVE SMOOTH",
"315 654 OFFCURVE",
"309 651 OFFCURVE",
"305 645 CURVE SMOOTH",
"-156 35 LINE SMOOTH",
"-158 31 OFFCURVE",
"-160 27 OFFCURVE",
"-160 22 CURVE SMOOTH",
"-160 10 OFFCURVE",
"-151 1 OFFCURVE",
"-139 1 CURVE SMOOTH"
);
}
);
width = 243;
}
);
leftKerningGroup = fraction;
rightKerningGroup = fracton;
unicode = 2044;
},
{
color = 4;
glyphname = asterisk;
layers = (
{
layerId = "C9A88445-F9B1-43BF-9834-532EB19954E9";
paths = (
{
closed = 1;
nodes = (
"205 352 OFFCURVE",
"213 359 OFFCURVE",
"213 373 CURVE SMOOTH",
"213 615 LINE SMOOTH",
"213 629 OFFCURVE",
"205 636 OFFCURVE",
"192 636 CURVE SMOOTH",
"178 636 OFFCURVE",
"171 629 OFFCURVE",
"171 615 CURVE SMOOTH",
"171 373 LINE SMOOTH",
"171 359 OFFCURVE",
"178 352 OFFCURVE",
"192 352 CURVE SMOOTH"
);
},
{
closed = 1;
nodes = (
"307 536 LINE SMOOTH",
"319 543 OFFCURVE",
"322 553 OFFCURVE",
"315 565 CURVE SMOOTH",
"308 577 OFFCURVE",
"298 580 OFFCURVE",
"286 573 CURVE SMOOTH",
"76 452 LINE SMOOTH",
"65 445 OFFCURVE",
"62 435 OFFCURVE",
"69 423 CURVE SMOOTH",
"76 411 OFFCURVE",
"86 408 OFFCURVE",
"97 415 CURVE SMOOTH"
);
},
{
closed = 1;
nodes = (
"298 408 OFFCURVE",
"308 411 OFFCURVE",
"315 423 CURVE SMOOTH",
"322 435 OFFCURVE",
"319 445 OFFCURVE",
"307 452 CURVE SMOOTH",
"97 573 LINE SMOOTH",
"86 580 OFFCURVE",
"76 577 OFFCURVE",
"69 565 CURVE SMOOTH",
"62 553 OFFCURVE",
"65 543 OFFCURVE",
"76 536 CURVE SMOOTH",
"286 415 LINE SMOOTH"
);
}
);
width = 384;
}
);
leftKerningGroup = asterisk;
rightKerningGroup = astersk;
unicode = 002A;
},
{
color = 5;
glyphname = comma;
layers = (
{
components = (
{
name = period;
transform = "{1, 0, 0, 1, -19, 0}";
}
);
layerId = "C9A88445-F9B1-43BF-9834-532EB19954E9";
paths = (
{
closed = 1;
nodes = (
"59 -92 OFFCURVE",
"66 -86 OFFCURVE",
"70 -78 CURVE SMOOTH",
"114 11 LINE",
"52 51 LINE",
"29 -71 LINE SMOOTH",
"27 -84 OFFCURVE",
"38 -92 OFFCURVE",
"50 -92 CURVE SMOOTH"
);
}
);
width = 188;
}
);
leftKerningGroup = period;
rightKerningGroup = perod;
rightMetricsKey = period;
unicode = 002C;
},
{
color = 5;
glyphname = exclam;
layers = (
{
components = (
{
name = period;
}
);
layerId = "C9A88445-F9B1-43BF-9834-532EB19954E9";
paths = (
{
closed = 1;
nodes = (
"118 161 OFFCURVE",
"125 168 OFFCURVE",
"125 182 CURVE SMOOTH",
"125 670 LINE SMOOTH",
"125 684 OFFCURVE",
"118 691 OFFCURVE",
"104 691 CURVE SMOOTH",
"90 691 OFFCURVE",
"83 684 OFFCURVE",
"83 670 CURVE SMOOTH",
"83 182 LINE SMOOTH",
"83 168 OFFCURVE",
"90 161 OFFCURVE",
"104 161 CURVE SMOOTH"
);
}
);
width = 207;
}
);
leftKerningGroup = exclam;
leftMetricsKey = period;
rightKerningGroup = exclam;
rightMetricsKey = period;
unicode = 0021;
},
{
color = 5;
glyphname = numbersign;
layers = (
{
layerId = "C9A88445-F9B1-43BF-9834-532EB19954E9";
paths = (
{
closed = 1;
nodes = (
"112 1 OFFCURVE",
"120 8 OFFCURVE",
"122 17 CURVE SMOOTH",
"177 212 LINE",
"313 212 LINE",
"262 28 LINE SMOOTH",
"261 26 OFFCURVE",
"261 24 OFFCURVE",
"261 22 CURVE SMOOTH",
"261 10 OFFCURVE",
"270 1 OFFCURVE",
"282 1 CURVE SMOOTH",
"292 1 OFFCURVE",
"300 8 OFFCURVE",
"302 17 CURVE SMOOTH",
"357 212 LINE",
"478 212 LINE SMOOTH",
"490 212 OFFCURVE",
"499 221 OFFCURVE",
"499 233 CURVE SMOOTH",
"499 245 OFFCURVE",
"490 254 OFFCURVE",
"478 254 CURVE SMOOTH",
"368 254 LINE",
"412 412 LINE",
"534 412 LINE SMOOTH",
"546 412 OFFCURVE",
"555 421 OFFCURVE",
"555 433 CURVE SMOOTH",
"555 445 OFFCURVE",
"546 454 OFFCURVE",
"534 454 CURVE SMOOTH",
"424 454 LINE",
"472 627 LINE SMOOTH",
"473 629 OFFCURVE",
"473 631 OFFCURVE",
"473 633 CURVE SMOOTH",
"473 645 OFFCURVE",
"464 654 OFFCURVE",
"452 654 CURVE SMOOTH",
"442 654 OFFCURVE",
"434 647 OFFCURVE",
"432 638 CURVE SMOOTH",
"380 454 LINE",
"244 454 LINE",
"292 627 LINE SMOOTH",
"293 629 OFFCURVE",
"293 631 OFFCURVE",
"293 633 CURVE SMOOTH",
"293 645 OFFCURVE",
"284 654 OFFCURVE",
"272 654 CURVE SMOOTH",
"262 654 OFFCURVE",
"254 647 OFFCURVE",
"252 638 CURVE SMOOTH",
"200 454 LINE",
"107 454 LINE SMOOTH",
"95 454 OFFCURVE",
"86 445 OFFCURVE",
"86 433 CURVE SMOOTH",
"86 421 OFFCURVE",
"95 412 OFFCURVE",
"107 412 CURVE SMOOTH",
"189 412 LINE",
"145 254 LINE",
"51 254 LINE SMOOTH",
"39 254 OFFCURVE",
"30 245 OFFCURVE",
"30 233 CURVE SMOOTH",
"30 221 OFFCURVE",
"39 212 OFFCURVE",
"51 212 CURVE SMOOTH",
"133 212 LINE",
"82 28 LINE SMOOTH",
"81 26 OFFCURVE",
"81 24 OFFCURVE",
"81 22 CURVE SMOOTH",
"81 10 OFFCURVE",
"90 1 OFFCURVE",
"102 1 CURVE SMOOTH"
);
},
{
closed = 1;
nodes = (
"232 412 LINE",
"369 412 LINE",
"325 254 LINE",
"188 254 LINE"
);
}
);
width = 565;
}
);
leftKerningGroup = numbersign;
rightKerningGroup = numbersgn;
unicode = 0023;
},
{
color = 5;
glyphname = period;
layers = (
{
layerId = "C9A88445-F9B1-43BF-9834-532EB19954E9";
paths = (
{
closed = 1;
nodes = (
"112 0 LINE SMOOTH",
"128 0 OFFCURVE",
"137 9 OFFCURVE",
"137 26 CURVE SMOOTH",
"137 43 LINE SMOOTH",
"137 59 OFFCURVE",
"128 68 OFFCURVE",
"112 68 CURVE SMOOTH",
"95 68 LINE SMOOTH",
"79 68 OFFCURVE",
"70 59 OFFCURVE",
"70 43 CURVE SMOOTH",
"70 26 LINE SMOOTH",
"70 9 OFFCURVE",
"79 0 OFFCURVE",
"95 0 CURVE SMOOTH"
);
}
);
width = 207;
}
);
leftKerningGroup = period;
rightKerningGroup = perod;
unicode = 002E;
},
{
color = 5;
glyphname = question;
layers = (
{
components = (
{
name = period;
transform = "{1, 0, 0, 1, 115, 0}";
}
);
layerId = "C9A88445-F9B1-43BF-9834-532EB19954E9";
paths = (
{
closed = 1;
nodes = (
"231 131 OFFCURVE",
"238 138 OFFCURVE",
"238 152 CURVE SMOOTH",
"238 239 OFFCURVE",
"273 263 OFFCURVE",
"317 293 CURVE SMOOTH",
"362 323 OFFCURVE",
"415 359 OFFCURVE",
"415 469 CURVE SMOOTH",
"415 583 OFFCURVE",
"365 633 OFFCURVE",
"251 633 CURVE SMOOTH",
"184 633 LINE SMOOTH",
"71 633 OFFCURVE",
"20 582 OFFCURVE",
"20 469 CURVE SMOOTH",
"20 455 OFFCURVE",
"27 448 OFFCURVE",
"41 448 CURVE SMOOTH",
"55 448 OFFCURVE",
"62 455 OFFCURVE",
"62 469 CURVE SMOOTH",
"62 559 OFFCURVE",
"94 591 OFFCURVE",
"184 591 CURVE SMOOTH",
"251 591 LINE SMOOTH",
"341 591 OFFCURVE",
"373 559 OFFCURVE",
"373 469 CURVE SMOOTH",
"373 382 OFFCURVE",
"338 358 OFFCURVE",
"294 328 CURVE SMOOTH",
"249 298 OFFCURVE",
"196 262 OFFCURVE",
"196 152 CURVE SMOOTH",
"196 138 OFFCURVE",
"203 131 OFFCURVE",
"217 131 CURVE SMOOTH"
);
}
);
width = 475;
}
);
leftKerningGroup = quesion;
rightKerningGroup = queston;
rightMetricsKey = two;
unicode = 003F;
},
{
color = 5;
glyphname = quotesingle;
layers = (
{
layerId = "C9A88445-F9B1-43BF-9834-532EB19954E9";
paths = (
{
closed = 1;
nodes = (
"103 463 OFFCURVE",
"112 472 OFFCURVE",
"112 484 CURVE SMOOTH",
"112 688 LINE SMOOTH",
"112 700 OFFCURVE",
"103 709 OFFCURVE",
"91 709 CURVE SMOOTH",
"79 709 OFFCURVE",
"70 700 OFFCURVE",
"70 688 CURVE SMOOTH",
"70 484 LINE SMOOTH",
"70 472 OFFCURVE",
"79 463 OFFCURVE",
"91 463 CURVE SMOOTH"
);
}
);
width = 182;
}
);
leftKerningGroup = quotesingle;
leftMetricsKey = period;
rightKerningGroup = quotesngle;
rightMetricsKey = period;
unicode = 0027;
},
{
color = 5;
glyphname = slash;
layers = (
{
layerId = "C9A88445-F9B1-43BF-9834-532EB19954E9";
paths = (
{
closed = 1;
nodes = (
"82 -132 OFFCURVE",
"89 -127 OFFCURVE",
"91 -116 CURVE SMOOTH",
"297 682 LINE SMOOTH",
"300 699 OFFCURVE",
"294 709 OFFCURVE",
"276 709 CURVE SMOOTH",
"265 709 OFFCURVE",
"258 704 OFFCURVE",
"256 693 CURVE SMOOTH",
"51 -105 LINE SMOOTH",
"47 -120 OFFCURVE",
"54 -132 OFFCURVE",
"71 -132 CURVE SMOOTH"
);
}
);
width = 347;
}
);
leftKerningGroup = slash;
rightKerningGroup = slash;
unicode = 002F;
},
{
color = 5;
glyphname = braceleft;
layers = (
{
layerId = "C9A88445-F9B1-43BF-9834-532EB19954E9";
paths = (
{
closed = 1;
nodes = (
"297 -161 OFFCURVE",
"306 -152 OFFCURVE",
"306 -140 CURVE SMOOTH",
"306 -128 OFFCURVE",
"297 -119 OFFCURVE",
"285 -119 CURVE SMOOTH",
"194 -119 OFFCURVE",
"172 -95 OFFCURVE",
"172 4 CURVE SMOOTH",
"172 192 LINE SMOOTH",
"172 204 OFFCURVE",
"167 211 OFFCURVE",
"155 216 CURVE SMOOTH",
"92 240 LINE",
"92 252 LINE",
"156 277 LINE SMOOTH",
"167 282 OFFCURVE",
"172 289 OFFCURVE",
"172 301 CURVE SMOOTH",
"172 489 LINE SMOOTH",
"172 596 OFFCURVE",
"194 622 OFFCURVE",
"285 622 CURVE SMOOTH",
"297 622 OFFCURVE",
"306 631 OFFCURVE",
"306 643 CURVE SMOOTH",
"306 655 OFFCURVE",
"297 664 OFFCURVE",
"285 664 CURVE SMOOTH",
"169 664 OFFCURVE",
"130 619 OFFCURVE",
"130 489 CURVE SMOOTH",
"130 312 LINE",
"66 287 LINE SMOOTH",
"55 282 OFFCURVE",
"50 275 OFFCURVE",
"50 263 CURVE SMOOTH",
"50 229 LINE SMOOTH",
"50 217 OFFCURVE",
"55 210 OFFCURVE",
"67 205 CURVE SMOOTH",
"130 181 LINE",
"130 4 LINE SMOOTH",
"130 -118 OFFCURVE",
"170 -161 OFFCURVE",
"285 -161 CURVE SMOOTH"
);
}
);
width = 316;
}
);
leftKerningGroup = parenleft;
rightKerningGroup = parenleft;
unicode = 007B;
},
{
color = 5;
glyphname = bracketleft;
layers = (
{
layerId = "C9A88445-F9B1-43BF-9834-532EB19954E9";
paths = (
{
closed = 1;
nodes = (
"155 -161 LINE SMOOTH",
"167 -161 OFFCURVE",
"176 -152 OFFCURVE",
"176 -140 CURVE SMOOTH",
"176 -128 OFFCURVE",
"167 -119 OFFCURVE",
"155 -119 CURVE SMOOTH",
"92 -119 LINE",
"92 622 LINE",
"155 622 LINE SMOOTH",
"167 622 OFFCURVE",
"176 631 OFFCURVE",
"176 643 CURVE SMOOTH",
"176 655 OFFCURVE",
"167 664 OFFCURVE",
"155 664 CURVE SMOOTH",
"71 664 LINE SMOOTH",
"57 664 OFFCURVE",
"50 657 OFFCURVE",
"50 643 CURVE SMOOTH",
"50 -140 LINE SMOOTH",
"50 -154 OFFCURVE",
"57 -161 OFFCURVE",
"71 -161 CURVE SMOOTH"
);
}
);
width = 186;
}
);
leftKerningGroup = parenleft;
rightKerningGroup = parenleft;
unicode = 005B;
},
{
color = 5;
glyphname = parenleft;
layers = (
{
layerId = "C9A88445-F9B1-43BF-9834-532EB19954E9";
paths = (
{
closed = 1;
nodes = (
"237 -161 OFFCURVE",
"246 -152 OFFCURVE",
"246 -140 CURVE SMOOTH",
"246 -128 OFFCURVE",
"237 -119 OFFCURVE",
"225 -119 CURVE SMOOTH",
"128 -119 OFFCURVE",
"92 -74 OFFCURVE",
"92 54 CURVE SMOOTH",
"92 439 LINE SMOOTH",
"92 574 OFFCURVE",
"128 622 OFFCURVE",
"225 622 CURVE SMOOTH",
"237 622 OFFCURVE",
"246 631 OFFCURVE",
"246 643 CURVE SMOOTH",
"246 655 OFFCURVE",
"237 664 OFFCURVE",
"225 664 CURVE SMOOTH",
"102 664 OFFCURVE",
"50 596 OFFCURVE",
"50 439 CURVE SMOOTH",
"50 54 LINE SMOOTH",
"50 -96 OFFCURVE",
"102 -161 OFFCURVE",
"225 -161 CURVE SMOOTH"
);
}
);
width = 256;
}
);
leftKerningGroup = parenleft;
rightKerningGroup = parenleft;
unicode = 0028;
},
{
color = 5;
glyphname = braceleft.case;
lastChange = "2016-07-31 02:08:06 +0000";
layers = (
{
layerId = "C9A88445-F9B1-43BF-9834-532EB19954E9";
paths = (
{
closed = 1;
nodes = (
"297 -61 OFFCURVE",
"306 -52 OFFCURVE",
"306 -40 CURVE SMOOTH",
"306 -28 OFFCURVE",
"297 -19 OFFCURVE",
"285 -19 CURVE SMOOTH",
"194 -19 OFFCURVE",
"172 5 OFFCURVE",
"172 104 CURVE SMOOTH",
"172 262 LINE SMOOTH",
"172 274 OFFCURVE",
"167 281 OFFCURVE",
"155 286 CURVE SMOOTH",
"92 310 LINE",
"92 322 LINE",
"156 347 LINE SMOOTH",
"167 352 OFFCURVE",
"172 359 OFFCURVE",
"172 371 CURVE SMOOTH",
"172 529 LINE SMOOTH",
"172 636 OFFCURVE",
"194 662 OFFCURVE",
"285 662 CURVE SMOOTH",
"297 662 OFFCURVE",
"306 671 OFFCURVE",
"306 683 CURVE SMOOTH",
"306 695 OFFCURVE",
"297 704 OFFCURVE",
"285 704 CURVE SMOOTH",
"169 704 OFFCURVE",
"130 659 OFFCURVE",
"130 529 CURVE SMOOTH",
"130 382 LINE",
"66 357 LINE SMOOTH",
"55 352 OFFCURVE",
"50 345 OFFCURVE",
"50 333 CURVE SMOOTH",
"50 299 LINE SMOOTH",
"50 287 OFFCURVE",
"55 280 OFFCURVE",
"67 275 CURVE SMOOTH",
"130 251 LINE",
"130 104 LINE SMOOTH",
"130 -18 OFFCURVE",
"170 -61 OFFCURVE",
"285 -61 CURVE SMOOTH"
);
}
);
width = 316;
}
);
leftKerningGroup = parenleft;
rightKerningGroup = parenleft;
},
{
color = 5;
glyphname = bracketleft.case;
lastChange = "2016-07-31 02:08:06 +0000";
layers = (
{
layerId = "C9A88445-F9B1-43BF-9834-532EB19954E9";
paths = (
{
closed = 1;
nodes = (
"155 -61 LINE SMOOTH",
"167 -61 OFFCURVE",
"176 -52 OFFCURVE",
"176 -40 CURVE SMOOTH",
"176 -28 OFFCURVE",
"167 -19 OFFCURVE",
"155 -19 CURVE SMOOTH",
"92 -19 LINE",
"92 662 LINE",
"155 662 LINE SMOOTH",
"167 662 OFFCURVE",
"176 671 OFFCURVE",
"176 683 CURVE SMOOTH",
"176 695 OFFCURVE",
"167 704 OFFCURVE",
"155 704 CURVE SMOOTH",
"71 704 LINE SMOOTH",
"57 704 OFFCURVE",
"50 697 OFFCURVE",
"50 683 CURVE SMOOTH",
"50 -40 LINE SMOOTH",
"50 -54 OFFCURVE",
"57 -61 OFFCURVE",
"71 -61 CURVE SMOOTH"
);
}
);
width = 186;
}
);
leftKerningGroup = parenleft;
rightKerningGroup = parenleft;
},
{
color = 5;
glyphname = parenleft.case;
lastChange = "2016-07-31 02:08:06 +0000";
layers = (
{
layerId = "C9A88445-F9B1-43BF-9834-532EB19954E9";
paths = (
{
closed = 1;
nodes = (
"237 -61 OFFCURVE",
"246 -52 OFFCURVE",
"246 -40 CURVE SMOOTH",
"246 -28 OFFCURVE",
"237 -19 OFFCURVE",
"225 -19 CURVE SMOOTH",
"128 -19 OFFCURVE",
"92 26 OFFCURVE",
"92 154 CURVE SMOOTH",
"92 479 LINE SMOOTH",
"92 614 OFFCURVE",
"128 662 OFFCURVE",
"225 662 CURVE SMOOTH",
"237 662 OFFCURVE",
"246 671 OFFCURVE",
"246 683 CURVE SMOOTH",
"246 695 OFFCURVE",
"237 704 OFFCURVE",
"225 704 CURVE SMOOTH",
"102 704 OFFCURVE",
"50 636 OFFCURVE",
"50 479 CURVE SMOOTH",
"50 154 LINE SMOOTH",
"50 4 OFFCURVE",
"102 -61 OFFCURVE",
"225 -61 CURVE SMOOTH"
);
}
);
width = 256;
}
);
leftKerningGroup = parenleft;
rightKerningGroup = parenleft;
},
{
color = 5;
glyphname = emdash;
layers = (
{
layerId = "C9A88445-F9B1-43BF-9834-532EB19954E9";
paths = (
{
closed = 1;
nodes = (
"712 249 LINE SMOOTH",
"724 249 OFFCURVE",
"733 258 OFFCURVE",
"733 270 CURVE SMOOTH",
"733 282 OFFCURVE",
"724 291 OFFCURVE",
"712 291 CURVE SMOOTH",
"91 291 LINE SMOOTH",
"79 291 OFFCURVE",
"70 282 OFFCURVE",
"70 270 CURVE SMOOTH",
"70 258 OFFCURVE",
"79 249 OFFCURVE",
"91 249 CURVE SMOOTH"
);
}
);
width = 803;
}
);
leftKerningGroup = hyphen;
leftMetricsKey = period;
rightKerningGroup = hyphen;
rightMetricsKey = period;
unicode = 2014;
},
{
color = 5;
glyphname = endash;
layers = (
{
layerId = "C9A88445-F9B1-43BF-9834-532EB19954E9";
paths = (
{
closed = 1;
nodes = (
"454 250 LINE SMOOTH",
"468 250 OFFCURVE",
"475 257 OFFCURVE",
"475 271 CURVE SMOOTH",
"475 285 OFFCURVE",
"468 292 OFFCURVE",
"454 292 CURVE SMOOTH",
"91 292 LINE SMOOTH",
"77 292 OFFCURVE",
"70 285 OFFCURVE",
"70 271 CURVE SMOOTH",
"70 257 OFFCURVE",
"77 250 OFFCURVE",
"91 250 CURVE SMOOTH"
);
}
);
width = 545;
}
);
leftKerningGroup = hyphen;
leftMetricsKey = period;
rightKerningGroup = hyphen;
rightMetricsKey = period;
unicode = 2013;
},
{
color = 5;
glyphname = hyphen;
layers = (
{
layerId = "C9A88445-F9B1-43BF-9834-532EB19954E9";
paths = (
{
closed = 1;
nodes = (
"367 249 LINE SMOOTH",
"379 249 OFFCURVE",
"388 258 OFFCURVE",
"388 270 CURVE SMOOTH",
"388 282 OFFCURVE",
"379 291 OFFCURVE",
"367 291 CURVE SMOOTH",
"91 291 LINE SMOOTH",
"79 291 OFFCURVE",
"70 282 OFFCURVE",
"70 270 CURVE SMOOTH",
"70 258 OFFCURVE",
"79 249 OFFCURVE",
"91 249 CURVE SMOOTH"
);
}
);
width = 458;
}
);
leftKerningGroup = hyphen;
leftMetricsKey = period;
rightKerningGroup = hyphen;
rightMetricsKey = period;
unicode = 002D;
},
{
color = 5;
glyphname = guilsinglleft;
layers = (
{
layerId = "C9A88445-F9B1-43BF-9834-532EB19954E9";
paths = (
{
closed = 1;
nodes = (
"300 121 OFFCURVE",
"310 130 OFFCURVE",
"310 142 CURVE SMOOTH",
"310 149 OFFCURVE",
"307 154 OFFCURVE",
"302 158 CURVE SMOOTH",
"137 294 LINE",
"302 430 LINE SMOOTH",
"307 434 OFFCURVE",
"310 439 OFFCURVE",
"310 446 CURVE SMOOTH",
"310 458 OFFCURVE",
"300 467 OFFCURVE",
"289 467 CURVE SMOOTH",
"283 467 OFFCURVE",
"279 465 OFFCURVE",
"275 462 CURVE SMOOTH",
"89 309 LINE SMOOTH",
"78 300 OFFCURVE",
"78 288 OFFCURVE",
"89 279 CURVE SMOOTH",
"275 126 LINE SMOOTH",
"279 123 OFFCURVE",
"283 121 OFFCURVE",
"289 121 CURVE SMOOTH"
);
}
);
width = 389;
}
);
leftKerningGroup = guilsinglleft;
rightKerningGroup = gulsnglleft;
unicode = 2039;
},
{
color = 5;
glyphname = quotesinglbase;
layers = (
{
components = (
{
name = period;
transform = "{1, 0, 0, 1, -20, -1}";
}
);
layerId = "C9A88445-F9B1-43BF-9834-532EB19954E9";
paths = (
{
closed = 1;
nodes = (
"60 -93 OFFCURVE",
"64 -88 OFFCURVE",
"70 -76 CURVE SMOOTH",
"115 13 LINE",
"77 30 LINE",
"32 -59 LINE SMOOTH",
"24 -75 OFFCURVE",
"29 -93 OFFCURVE",
"49 -93 CURVE SMOOTH"
);
}
);
width = 187;
}
);
leftKerningGroup = period;
leftMetricsKey = comma;
rightKerningGroup = perod;
rightMetricsKey = comma;
unicode = 201A;
},
{
color = 4;
glyphname = cedi;
layers = (
{
layerId = "C9A88445-F9B1-43BF-9834-532EB19954E9";
paths = (
{
closed = 1;
nodes = (
"383 0 LINE SMOOTH",
"512 0 OFFCURVE",
"566 54 OFFCURVE",
"566 183 CURVE SMOOTH",
"566 197 OFFCURVE",
"559 204 OFFCURVE",
"545 204 CURVE SMOOTH",
"531 204 OFFCURVE",
"524 197 OFFCURVE",
"524 183 CURVE SMOOTH",
"524 77 OFFCURVE",
"489 42 OFFCURVE",
"383 42 CURVE SMOOTH",
"283 42 LINE SMOOTH",
"165 42 OFFCURVE",
"122 85 OFFCURVE",
"122 203 CURVE SMOOTH",
"122 410 LINE SMOOTH",
"122 529 OFFCURVE",
"164 571 OFFCURVE",
"282 571 CURVE SMOOTH",
"383 571 LINE SMOOTH",
"489 571 OFFCURVE",
"524 536 OFFCURVE",
"524 430 CURVE SMOOTH",
"524 416 OFFCURVE",
"531 409 OFFCURVE",
"545 409 CURVE SMOOTH",
"559 409 OFFCURVE",
"566 416 OFFCURVE",
"566 430 CURVE SMOOTH",
"566 559 OFFCURVE",
"512 613 OFFCURVE",
"383 613 CURVE SMOOTH",
"282 613 LINE SMOOTH",
"141 613 OFFCURVE",
"80 553 OFFCURVE",
"80 410 CURVE SMOOTH",
"80 203 LINE SMOOTH",
"80 61 OFFCURVE",
"141 0 OFFCURVE",
"283 0 CURVE SMOOTH"
);
},
{
closed = 1;
nodes = (
"359 -61 CURVE SMOOTH",
"359 689 LINE SMOOTH",
"359 703 OFFCURVE",
"352 710 OFFCURVE",
"338 710 CURVE SMOOTH",
"324 710 OFFCURVE",
"317 703 OFFCURVE",
"317 689 CURVE SMOOTH",
"317 -61 LINE SMOOTH",
"317 -75 OFFCURVE",
"324 -82 OFFCURVE",
"338 -82 CURVE SMOOTH",
"352 -82 OFFCURVE",
"359 -75 OFFCURVE"
);
}
);
width = 646;
}
);
leftKerningGroup = O;
leftMetricsKey = O;
rightKerningGroup = C;
rightMetricsKey = O;
unicode = 20B5;
},
{
color = 5;
glyphname = cent;
layers = (
{
layerId = "C9A88445-F9B1-43BF-9834-532EB19954E9";
paths = (
{
closed = 1;
nodes = (
"277 70 LINE SMOOTH",
"375 70 OFFCURVE",
"420 105 OFFCURVE",
"420 185 CURVE SMOOTH",
"420 197 OFFCURVE",
"411 206 OFFCURVE",
"399 206 CURVE SMOOTH",
"387 206 OFFCURVE",
"378 197 OFFCURVE",
"378 185 CURVE SMOOTH",
"378 131 OFFCURVE",
"354 112 OFFCURVE",
"277 112 CURVE SMOOTH",
"221 112 LINE SMOOTH",
"132 112 OFFCURVE",
"102 142 OFFCURVE",
"102 229 CURVE SMOOTH",
"102 312 LINE SMOOTH",
"102 401 OFFCURVE",
"133 431 OFFCURVE",
"221 430 CURVE SMOOTH",
"277 430 LINE SMOOTH",
"354 430 OFFCURVE",
"378 411 OFFCURVE",
"378 357 CURVE SMOOTH",
"378 345 OFFCURVE",
"387 336 OFFCURVE",
"399 336 CURVE SMOOTH",
"411 336 OFFCURVE",
"420 345 OFFCURVE",
"420 357 CURVE SMOOTH",
"420 437 OFFCURVE",
"375 472 OFFCURVE",
"277 472 CURVE SMOOTH",
"221 472 LINE SMOOTH",
"110 473 OFFCURVE",
"60 424 OFFCURVE",
"60 312 CURVE SMOOTH",
"60 229 LINE SMOOTH",
"60 118 OFFCURVE",
"109 70 OFFCURVE",
"221 70 CURVE SMOOTH"
);
},
{
closed = 1;
nodes = (
"270 0 CURVE SMOOTH",
"270 541 LINE SMOOTH",
"270 555 OFFCURVE",
"263 562 OFFCURVE",
"249 562 CURVE SMOOTH",
"235 562 OFFCURVE",
"228 555 OFFCURVE",
"228 541 CURVE SMOOTH",
"228 0 LINE SMOOTH",
"228 -14 OFFCURVE",
"235 -21 OFFCURVE",
"249 -21 CURVE SMOOTH",
"263 -21 OFFCURVE",
"270 -14 OFFCURVE"
);
}
);
width = 460;
}
);
leftKerningGroup = o;
leftMetricsKey = "=c-20";
rightKerningGroup = c;
rightMetricsKey = "=c-20";
unicode = 00A2;
},
{
color = 4;
glyphname = colonsign;
layers = (
{
components = (
{
name = C;
}
);
layerId = "C9A88445-F9B1-43BF-9834-532EB19954E9";
paths = (
{
closed = 1;
nodes = (
"204 -66 CURVE SMOOTH",
"393 663 LINE SMOOTH",
"397 680 OFFCURVE",
"390 690 OFFCURVE",
"372 690 CURVE SMOOTH",
"361 690 OFFCURVE",
"355 685 OFFCURVE",
"352 674 CURVE SMOOTH",
"164 -55 LINE SMOOTH",
"160 -70 OFFCURVE",
"167 -82 OFFCURVE",
"184 -82 CURVE SMOOTH",
"195 -82 OFFCURVE",
"201 -77 OFFCURVE"
);
},
{
closed = 1;
nodes = (
"324 -66 CURVE SMOOTH",
"513 663 LINE SMOOTH",
"517 680 OFFCURVE",
"510 690 OFFCURVE",
"492 690 CURVE SMOOTH",
"481 690 OFFCURVE",
"475 685 OFFCURVE",
"472 674 CURVE SMOOTH",
"284 -55 LINE SMOOTH",
"280 -70 OFFCURVE",
"287 -82 OFFCURVE",
"304 -82 CURVE SMOOTH",
"315 -82 OFFCURVE",
"321 -77 OFFCURVE"
);
}
);
width = 666;
}
);
leftKerningGroup = O;
rightKerningGroup = C;
unicode = 20A1;
},
{
color = 5;
glyphname = currency;
layers = (
{
layerId = "C9A88445-F9B1-43BF-9834-532EB19954E9";
paths = (
{
closed = 1;
nodes = (
"86 148 CURVE SMOOTH",
"141 204 LINE",
"171 180 OFFCURVE",
"210 166 OFFCURVE",
"254 166 CURVE SMOOTH",
"298 166 OFFCURVE",
"337 180 OFFCURVE",
"367 204 CURVE",
"423 148 LINE SMOOTH",
"427 144 OFFCURVE",
"432 142 OFFCURVE",
"438 142 CURVE SMOOTH",
"450 142 OFFCURVE",
"459 151 OFFCURVE",
"459 163 CURVE SMOOTH",
"459 169 OFFCURVE",
"457 174 OFFCURVE",
"453 178 CURVE SMOOTH",
"397 234 LINE",
"420 265 OFFCURVE",
"434 304 OFFCURVE",
"434 347 CURVE SMOOTH",
"434 390 OFFCURVE",
"420 429 OFFCURVE",
"397 459 CURVE",
"452 515 LINE SMOOTH",
"456 519 OFFCURVE",
"458 524 OFFCURVE",
"458 530 CURVE SMOOTH",
"458 542 OFFCURVE",
"449 551 OFFCURVE",
"437 551 CURVE SMOOTH",
"431 551 OFFCURVE",
"426 549 OFFCURVE",
"422 545 CURVE SMOOTH",
"367 489 LINE",
"336 513 OFFCURVE",
"297 527 OFFCURVE",
"254 527 CURVE SMOOTH",
"211 527 OFFCURVE",
"172 513 OFFCURVE",
"141 490 CURVE",
"86 546 LINE SMOOTH",
"82 550 OFFCURVE",
"77 552 OFFCURVE",
"71 552 CURVE SMOOTH",
"59 552 OFFCURVE",
"50 543 OFFCURVE",
"50 531 CURVE SMOOTH",
"50 525 OFFCURVE",
"52 520 OFFCURVE",
"56 516 CURVE SMOOTH",
"111 460 LINE",
"87 430 OFFCURVE",
"73 391 OFFCURVE",
"73 347 CURVE SMOOTH",
"73 303 OFFCURVE",
"87 264 OFFCURVE",
"111 233 CURVE",
"56 178 LINE SMOOTH",
"52 174 OFFCURVE",
"50 169 OFFCURVE",
"50 163 CURVE SMOOTH",
"50 151 OFFCURVE",
"59 142 OFFCURVE",
"71 142 CURVE SMOOTH",
"77 142 OFFCURVE",
"82 144 OFFCURVE"
);
},
{
closed = 1;
nodes = (
"115 347 CURVE SMOOTH",
"115 426 OFFCURVE",
"174 485 OFFCURVE",
"254 485 CURVE SMOOTH",
"333 485 OFFCURVE",
"392 426 OFFCURVE",
"392 347 CURVE SMOOTH",
"392 267 OFFCURVE",
"333 208 OFFCURVE",
"254 208 CURVE SMOOTH",
"174 208 OFFCURVE",
"115 267 OFFCURVE"
);
}
);
width = 509;
}
);
leftKerningGroup = currency;
rightKerningGroup = currency;
unicode = 00A4;
},
{
color = 5;
glyphname = dollar;
layers = (
{
layerId = "C9A88445-F9B1-43BF-9834-532EB19954E9";
paths = (
{
closed = 1;
nodes = (
"384 0 LINE SMOOTH",
"499 0 OFFCURVE",
"550 51 OFFCURVE",
"550 166 CURVE SMOOTH",
"550 281 OFFCURVE",
"499 332 OFFCURVE",
"384 332 CURVE SMOOTH",
"261 332 LINE SMOOTH",
"175 332 OFFCURVE",
"145 371 OFFCURVE",
"145 456 CURVE SMOOTH",
"145 541 OFFCURVE",
"175 571 OFFCURVE",
"260 571 CURVE SMOOTH",
"381 571 LINE SMOOTH",
"466 571 OFFCURVE",
"496 541 OFFCURVE",
"496 457 CURVE SMOOTH",
"496 443 OFFCURVE",
"503 436 OFFCURVE",
"517 436 CURVE SMOOTH",
"531 436 OFFCURVE",
"538 443 OFFCURVE",
"538 457 CURVE SMOOTH",
"538 565 OFFCURVE",
"490 613 OFFCURVE",
"381 613 CURVE SMOOTH",
"260 613 LINE SMOOTH",
"151 613 OFFCURVE",
"103 565 OFFCURVE",
"103 456 CURVE SMOOTH",
"103 347 OFFCURVE",
"151 290 OFFCURVE",
"261 290 CURVE SMOOTH",
"384 290 LINE SMOOTH",
"476 290 OFFCURVE",
"508 258 OFFCURVE",
"508 166 CURVE SMOOTH",
"508 74 OFFCURVE",
"476 42 OFFCURVE",
"384 42 CURVE SMOOTH",
"246 42 LINE SMOOTH",
"154 42 OFFCURVE",
"122 74 OFFCURVE",
"122 166 CURVE SMOOTH",
"122 180 OFFCURVE",
"115 187 OFFCURVE",
"101 187 CURVE SMOOTH",
"87 187 OFFCURVE",
"80 180 OFFCURVE",
"80 166 CURVE SMOOTH",
"80 51 OFFCURVE",
"131 0 OFFCURVE",
"246 0 CURVE SMOOTH"
);
},
{
closed = 1;
nodes = (
"339 -61 CURVE SMOOTH",
"339 302 LINE",
"343 313 LINE",
"343 689 LINE SMOOTH",
"343 703 OFFCURVE",
"336 710 OFFCURVE",
"322 710 CURVE SMOOTH",
"308 710 OFFCURVE",
"301 703 OFFCURVE",
"301 689 CURVE SMOOTH",
"301 317 LINE",
"297 308 LINE",
"297 -61 LINE SMOOTH",
"297 -75 OFFCURVE",
"304 -82 OFFCURVE",
"318 -82 CURVE SMOOTH",
"332 -82 OFFCURVE",
"339 -75 OFFCURVE"
);
}
);
width = 630;
}
);
leftKerningGroup = S;
leftMetricsKey = S;
rightKerningGroup = S;
rightMetricsKey = S;
unicode = 0024;
},
{
color = 4;
glyphname = dong;
layers = (
{
layerId = "C9A88445-F9B1-43BF-9834-532EB19954E9";
paths = (
{
closed = 1;
nodes = (
"228 115 LINE SMOOTH",
"310 115 OFFCURVE",
"358 151 OFFCURVE",
"367 219 CURVE",
"346 221 LINE",
"346 178 OFFCURVE",
"299 157 OFFCURVE",
"228 157 CURVE SMOOTH",
"209 157 LINE SMOOTH",
"143 157 OFFCURVE",
"122 178 OFFCURVE",
"122 243 CURVE SMOOTH",
"122 313 LINE SMOOTH",
"122 378 OFFCURVE",
"144 400 OFFCURVE",
"209 400 CURVE SMOOTH",
"346 400 LINE SMOOTH",
"360 400 OFFCURVE",
"367 407 OFFCURVE",
"367 421 CURVE SMOOTH",
"367 435 OFFCURVE",
"360 442 OFFCURVE",
"346 442 CURVE SMOOTH",
"209 442 LINE SMOOTH",
"120 442 OFFCURVE",
"80 402 OFFCURVE",
"80 313 CURVE SMOOTH",
"80 243 LINE SMOOTH",
"80 155 OFFCURVE",
"120 115 OFFCURVE",
"209 115 CURVE SMOOTH"
);
},
{
closed = 1;
nodes = (
"366 31 LINE SMOOTH",
"380 31 OFFCURVE",
"387 38 OFFCURVE",
"387 52 CURVE SMOOTH",
"387 66 OFFCURVE",
"380 73 OFFCURVE",
"366 73 CURVE SMOOTH",
"102 73 LINE SMOOTH",
"88 73 OFFCURVE",
"81 66 OFFCURVE",
"81 52 CURVE SMOOTH",
"81 38 OFFCURVE",
"88 31 OFFCURVE",
"102 31 CURVE SMOOTH"
);
},
{
closed = 1;
nodes = (
"388 136 CURVE SMOOTH",
"388 612 LINE SMOOTH",
"388 626 OFFCURVE",
"381 633 OFFCURVE",
"367 633 CURVE SMOOTH",
"353 633 OFFCURVE",
"346 626 OFFCURVE",
"346 612 CURVE SMOOTH",
"346 136 LINE SMOOTH",
"346 122 OFFCURVE",
"353 115 OFFCURVE",
"367 115 CURVE SMOOTH",
"381 115 OFFCURVE",
"388 122 OFFCURVE"
);
},
{
closed = 1;
nodes = (
"436 506 LINE SMOOTH",
"450 506 OFFCURVE",
"457 513 OFFCURVE",
"457 527 CURVE SMOOTH",
"457 541 OFFCURVE",
"450 548 OFFCURVE",
"436 548 CURVE SMOOTH",
"211 548 LINE SMOOTH",
"197 548 OFFCURVE",
"190 541 OFFCURVE",
"190 527 CURVE SMOOTH",
"190 513 OFFCURVE",
"197 506 OFFCURVE",
"211 506 CURVE SMOOTH"
);
}
);
width = 508;
}
);
leftKerningGroup = o;
leftMetricsKey = o;
rightKerningGroup = d;
rightMetricsKey = "=d-30";
unicode = 20AB;
},
{
color = 5;
glyphname = euro;
layers = (
{
layerId = "C9A88445-F9B1-43BF-9834-532EB19954E9";
paths = (
{
closed = 1;
nodes = (
"503 359 LINE SMOOTH",
"515 359 OFFCURVE",
"524 368 OFFCURVE",
"524 380 CURVE SMOOTH",
"524 392 OFFCURVE",
"515 401 OFFCURVE",
"503 401 CURVE SMOOTH",
"75 401 LINE SMOOTH",
"63 401 OFFCURVE",
"54 392 OFFCURVE",
"54 380 CURVE SMOOTH",
"54 368 OFFCURVE",
"63 359 OFFCURVE",
"75 359 CURVE SMOOTH"
);
},
{
closed = 1;
nodes = (
"449 253 LINE SMOOTH",
"461 253 OFFCURVE",
"470 262 OFFCURVE",
"470 274 CURVE SMOOTH",
"470 286 OFFCURVE",
"461 295 OFFCURVE",
"449 295 CURVE SMOOTH",
"75 295 LINE SMOOTH",
"63 295 OFFCURVE",
"54 286 OFFCURVE",
"54 274 CURVE SMOOTH",
"54 262 OFFCURVE",
"63 253 OFFCURVE",
"75 253 CURVE SMOOTH"
);
},
{
closed = 1;
nodes = (
"458 0 LINE SMOOTH",
"536 0 OFFCURVE",
"581 24 OFFCURVE",
"600 76 CURVE SMOOTH",
"601 78 OFFCURVE",
"601 80 OFFCURVE",
"601 83 CURVE SMOOTH",
"601 95 OFFCURVE",
"592 104 OFFCURVE",
"580 104 CURVE SMOOTH",
"571 104 OFFCURVE",
"563 98 OFFCURVE",
"560 90 CURVE SMOOTH",
"548 56 OFFCURVE",
"519 42 OFFCURVE",
"458 42 CURVE SMOOTH",
"338 42 LINE SMOOTH",
"220 42 OFFCURVE",
"177 85 OFFCURVE",
"177 203 CURVE SMOOTH",
"177 430 LINE SMOOTH",
"177 549 OFFCURVE",
"219 592 OFFCURVE",
"337 591 CURVE SMOOTH",
"458 591 LINE SMOOTH",
"514 591 OFFCURVE",
"537 580 OFFCURVE",
"574 536 CURVE SMOOTH",
"578 532 OFFCURVE",
"584 529 OFFCURVE",
"590 529 CURVE SMOOTH",
"602 529 OFFCURVE",
"611 538 OFFCURVE",
"611 550 CURVE SMOOTH",
"611 555 OFFCURVE",
"609 560 OFFCURVE",
"606 564 CURVE SMOOTH",
"562 616 OFFCURVE",
"526 633 OFFCURVE",
"458 633 CURVE SMOOTH",
"337 633 LINE SMOOTH",
"196 634 OFFCURVE",
"135 573 OFFCURVE",
"135 430 CURVE SMOOTH",
"135 203 LINE SMOOTH",
"135 61 OFFCURVE",
"196 0 OFFCURVE",
"338 0 CURVE SMOOTH"
);
}
);
width = 641;
}
);
leftKerningGroup = O;
leftMetricsKey = Hbar;
rightKerningGroup = C;
rightMetricsKey = "=C-40";
unicode = 20AC;
},
{
color = 4;
glyphname = florin;
lastChange = "2016-07-31 01:33:46 +0000";
layers = (
{
layerId = "C9A88445-F9B1-43BF-9834-532EB19954E9";
paths = (
{
closed = 1;
nodes = (
"141 89 CURVE SMOOTH",
"217 514 LINE SMOOTH",
"233 605 OFFCURVE",
"270 642 OFFCURVE",
"352 647 CURVE SMOOTH",
"366 648 OFFCURVE",
"373 655 OFFCURVE",
"373 669 CURVE SMOOTH",
"373 682 OFFCURVE",
"365 690 OFFCURVE",
"351 689 CURVE SMOOTH",
"248 683 OFFCURVE",
"196 633 OFFCURVE",
"175 522 CURVE SMOOTH",
"99 97 LINE SMOOTH",
"93 65 OFFCURVE",
"79 48 OFFCURVE",
"50 44 CURVE",
"37 41 OFFCURVE",
"30 35 OFFCURVE",
"30 22 CURVE SMOOTH",
"30 8 OFFCURVE",
"38 0 OFFCURVE",
"52 1 CURVE",
"101 8 OFFCURVE",
"131 37 OFFCURVE"
);
},
{
closed = 1;
nodes = (
"318 419 LINE SMOOTH",
"332 419 OFFCURVE",
"339 426 OFFCURVE",
"339 440 CURVE SMOOTH",
"339 454 OFFCURVE",
"332 461 OFFCURVE",
"318 461 CURVE SMOOTH",
"103 461 LINE SMOOTH",
"89 461 OFFCURVE",
"82 454 OFFCURVE",
"82 440 CURVE SMOOTH",
"82 426 OFFCURVE",
"89 419 OFFCURVE",
"103 419 CURVE SMOOTH"
);
}
);
width = 373;
}
);
leftKerningGroup = florin;
rightKerningGroup = florn;
unicode = 0192;
},
{
color = 4;
glyphname = franc;
layers = (
{
layerId = "C9A88445-F9B1-43BF-9834-532EB19954E9";
paths = (
{
closed = 1;
nodes = (
"125 0 OFFCURVE",
"132 7 OFFCURVE",
"132 21 CURVE SMOOTH",
"132 300 LINE",
"318 300 LINE",
"318 21 LINE SMOOTH",
"318 7 OFFCURVE",
"325 0 OFFCURVE",
"339 0 CURVE SMOOTH",
"353 0 OFFCURVE",
"360 7 OFFCURVE",
"360 21 CURVE SMOOTH",
"360 183 LINE",
"360 260 OFFCURVE",
"424 300 OFFCURVE",
"499 300 CURVE SMOOTH",
"513 300 OFFCURVE",
"520 307 OFFCURVE",
"520 321 CURVE SMOOTH",
"520 335 OFFCURVE",
"514 342 OFFCURVE",
"499 342 CURVE SMOOTH",
"436 342 OFFCURVE",
"389 313 OFFCURVE",
"360 261 CURVE",
"360 321 LINE SMOOTH",
"360 335 OFFCURVE",
"353 342 OFFCURVE",
"339 342 CURVE SMOOTH",
"132 342 LINE",
"132 591 LINE",
"389 591 LINE SMOOTH",
"403 591 OFFCURVE",
"410 598 OFFCURVE",
"410 612 CURVE SMOOTH",
"410 626 OFFCURVE",
"403 633 OFFCURVE",
"389 633 CURVE SMOOTH",
"111 633 LINE SMOOTH",
"97 633 OFFCURVE",
"90 626 OFFCURVE",
"90 612 CURVE SMOOTH",
"90 21 LINE SMOOTH",
"90 7 OFFCURVE",
"97 0 OFFCURVE",
"111 0 CURVE SMOOTH"
);
}
);
width = 530;
}
);
leftKerningGroup = H;
leftMetricsKey = H;
rightKerningGroup = F;
rightMetricsKey = r;
unicode = 20A3;
},
{
color = 4;
glyphname = guarani;
layers = (
{
layerId = "C9A88445-F9B1-43BF-9834-532EB19954E9";
paths = (
{
closed = 1;
nodes = (
"383 0 LINE SMOOTH",
"512 0 OFFCURVE",
"566 54 OFFCURVE",
"566 183 CURVE SMOOTH",
"566 272 LINE SMOOTH",
"566 286 OFFCURVE",
"559 293 OFFCURVE",
"545 293 CURVE SMOOTH",
"443 294 LINE SMOOTH",
"429 294 OFFCURVE",
"422 287 OFFCURVE",
"422 273 CURVE SMOOTH",
"422 259 OFFCURVE",
"429 252 OFFCURVE",
"443 252 CURVE SMOOTH",
"524 251 LINE",
"524 183 LINE SMOOTH",
"524 77 OFFCURVE",
"489 42 OFFCURVE",
"383 42 CURVE SMOOTH",
"283 42 LINE SMOOTH",
"165 42 OFFCURVE",
"122 85 OFFCURVE",
"122 203 CURVE SMOOTH",
"122 410 LINE SMOOTH",
"122 529 OFFCURVE",
"164 571 OFFCURVE",
"282 571 CURVE SMOOTH",
"383 571 LINE SMOOTH",
"489 571 OFFCURVE",
"524 536 OFFCURVE",
"524 430 CURVE SMOOTH",
"524 416 OFFCURVE",
"531 409 OFFCURVE",
"545 409 CURVE SMOOTH",
"559 409 OFFCURVE",
"566 416 OFFCURVE",
"566 430 CURVE SMOOTH",
"566 559 OFFCURVE",
"512 613 OFFCURVE",
"383 613 CURVE SMOOTH",
"282 613 LINE SMOOTH",
"141 613 OFFCURVE",
"80 553 OFFCURVE",
"80 410 CURVE SMOOTH",
"80 203 LINE SMOOTH",
"80 61 OFFCURVE",
"141 0 OFFCURVE",
"283 0 CURVE SMOOTH"
);
},
{
closed = 1;
nodes = (
"361 -61 CURVE SMOOTH",
"361 689 LINE SMOOTH",
"361 703 OFFCURVE",
"354 710 OFFCURVE",
"340 710 CURVE SMOOTH",
"326 710 OFFCURVE",
"319 703 OFFCURVE",
"319 689 CURVE SMOOTH",
"319 -61 LINE SMOOTH",
"319 -75 OFFCURVE",
"326 -82 OFFCURVE",
"340 -82 CURVE SMOOTH",
"354 -82 OFFCURVE",
"361 -75 OFFCURVE"
);
}
);
width = 646;
}
);
leftKerningGroup = O;
leftMetricsKey = O;
rightKerningGroup = C;
rightMetricsKey = O;
unicode = 20B2;
},
{
color = 4;
glyphname = kip;
layers = (
{
components = (
{
name = K;
transform = "{1, 0, 0, 1, 10, 0}";
}
);
layerId = "C9A88445-F9B1-43BF-9834-532EB19954E9";
paths = (
{
closed = 1;
nodes = (
"459 342 LINE SMOOTH",
"471 342 OFFCURVE",
"480 351 OFFCURVE",
"480 363 CURVE SMOOTH",
"480 375 OFFCURVE",
"471 384 OFFCURVE",
"459 384 CURVE SMOOTH",
"246 384 LINE SMOOTH",
"234 384 OFFCURVE",
"225 375 OFFCURVE",
"225 363 CURVE SMOOTH",
"225 351 OFFCURVE",
"234 342 OFFCURVE",
"246 342 CURVE SMOOTH"
);
},
{
closed = 1;
nodes = (
"109 342 LINE SMOOTH",
"121 342 OFFCURVE",
"130 351 OFFCURVE",
"130 363 CURVE SMOOTH",
"130 375 OFFCURVE",
"121 384 OFFCURVE",
"109 384 CURVE SMOOTH",
"36 384 LINE SMOOTH",
"24 384 OFFCURVE",
"15 375 OFFCURVE",
"15 363 CURVE SMOOTH",
"15 351 OFFCURVE",
"24 342 OFFCURVE",
"36 342 CURVE SMOOTH"
);
}
);
width = 549;
}
);
leftKerningGroup = Hbar;
rightKerningGroup = K;
unicode = 20AD;
},
{
color = 4;
glyphname = lira;
layers = (
{
layerId = "C9A88445-F9B1-43BF-9834-532EB19954E9";
paths = (
{
closed = 1;
nodes = (
"519 0 LINE SMOOTH",
"533 0 OFFCURVE",
"540 7 OFFCURVE",
"540 21 CURVE SMOOTH",
"540 35 OFFCURVE",
"533 42 OFFCURVE",
"519 42 CURVE SMOOTH",
"130 42 LINE",
"148 63 OFFCURVE",
"156 94 OFFCURVE",
"156 135 CURVE SMOOTH",
"156 430 LINE SMOOTH",
"156 549 OFFCURVE",
"198 591 OFFCURVE",
"316 591 CURVE SMOOTH",
"337 591 LINE SMOOTH",
"443 591 OFFCURVE",
"478 556 OFFCURVE",
"478 450 CURVE SMOOTH",
"478 436 OFFCURVE",
"485 429 OFFCURVE",
"499 429 CURVE SMOOTH",
"513 429 OFFCURVE",
"520 436 OFFCURVE",
"520 450 CURVE SMOOTH",
"520 579 OFFCURVE",
"466 633 OFFCURVE",
"337 633 CURVE SMOOTH",
"316 633 LINE SMOOTH",
"175 633 OFFCURVE",
"114 573 OFFCURVE",
"114 430 CURVE SMOOTH",
"114 135 LINE SMOOTH",
"114 74 OFFCURVE",
"96 42 OFFCURVE",
"40 42 CURVE",
"40 21 LINE SMOOTH",
"40 9 OFFCURVE",
"49 0 OFFCURVE",
"61 0 CURVE SMOOTH"
);
},
{
closed = 1;
nodes = (
"335 253 LINE SMOOTH",
"349 253 OFFCURVE",
"356 260 OFFCURVE",
"356 274 CURVE SMOOTH",
"356 288 OFFCURVE",
"349 295 OFFCURVE",
"335 295 CURVE SMOOTH",
"51 295 LINE SMOOTH",
"37 295 OFFCURVE",
"30 288 OFFCURVE",
"30 274 CURVE SMOOTH",
"30 260 OFFCURVE",
"37 253 OFFCURVE",
"51 253 CURVE SMOOTH"
);
},
{
closed = 1;
nodes = (
"335 163 LINE SMOOTH",
"349 163 OFFCURVE",
"356 170 OFFCURVE",
"356 184 CURVE SMOOTH",
"356 198 OFFCURVE",
"349 205 OFFCURVE",
"335 205 CURVE SMOOTH",
"51 205 LINE SMOOTH",
"37 205 OFFCURVE",
"30 198 OFFCURVE",
"30 184 CURVE SMOOTH",
"30 170 OFFCURVE",
"37 163 OFFCURVE",
"51 163 CURVE SMOOTH"
);
}
);
width = 560;
}
);
leftKerningGroup = sterling;
rightKerningGroup = sterlng;
unicode = 20A4;
},
{
color = 4;
glyphname = liraTurkish;
layers = (
{
layerId = "C9A88445-F9B1-43BF-9834-532EB19954E9";
paths = (
{
closed = 1;
nodes = (
"238 0 LINE SMOOTH",
"360 0 OFFCURVE",
"415 48 OFFCURVE",
"421 161 CURVE SMOOTH",
"421 175 OFFCURVE",
"414 183 OFFCURVE",
"400 183 CURVE SMOOTH",
"386 183 OFFCURVE",
"379 176 OFFCURVE",
"379 162 CURVE SMOOTH",
"374 72 OFFCURVE",
"337 42 OFFCURVE",
"238 42 CURVE SMOOTH",
"147 42 LINE",
"147 612 LINE SMOOTH",
"147 626 OFFCURVE",
"140 633 OFFCURVE",
"126 633 CURVE SMOOTH",
"113 633 OFFCURVE",
"105 626 OFFCURVE",
"105 612 CURVE SMOOTH",
"105 21 LINE SMOOTH",
"105 7 OFFCURVE",
"113 0 OFFCURVE",
"126 0 CURVE SMOOTH"
);
},
{
closed = 1;
nodes = (
"295 457 LINE SMOOTH",
"305 462 OFFCURVE",
"310 474 OFFCURVE",
"305 485 CURVE SMOOTH",
"300 496 OFFCURVE",
"288 500 OFFCURVE",
"277 495 CURVE SMOOTH",
"32 384 LINE SMOOTH",
"21 379 OFFCURVE",
"17 367 OFFCURVE",
"22 356 CURVE SMOOTH",
"27 345 OFFCURVE",
"39 341 OFFCURVE",
"50 346 CURVE SMOOTH"
);
},
{
closed = 1;
nodes = (
"295 357 LINE SMOOTH",
"305 362 OFFCURVE",
"310 374 OFFCURVE",
"305 385 CURVE SMOOTH",
"300 396 OFFCURVE",
"288 400 OFFCURVE",
"277 395 CURVE SMOOTH",
"32 284 LINE SMOOTH",
"21 279 OFFCURVE",
"17 267 OFFCURVE",
"22 256 CURVE SMOOTH",
"27 245 OFFCURVE",
"39 241 OFFCURVE",
"50 246 CURVE SMOOTH"
);
}
);
width = 460;
}
);
leftKerningGroup = Hbar;
rightKerningGroup = L;
unicode = 20BA;
},
{
color = 4;
glyphname = manat;
layers = (
{
layerId = "C9A88445-F9B1-43BF-9834-532EB19954E9";
paths = (
{
closed = 1;
nodes = (
"95 0 OFFCURVE",
"102 7 OFFCURVE",
"102 21 CURVE SMOOTH",
"102 330 LINE SMOOTH",
"102 521 OFFCURVE",
"152 591 OFFCURVE",
"283 591 CURVE SMOOTH",
"303 591 LINE SMOOTH",
"434 591 OFFCURVE",
"484 521 OFFCURVE",
"484 330 CURVE SMOOTH",
"484 21 LINE SMOOTH",
"484 7 OFFCURVE",
"491 0 OFFCURVE",
"505 0 CURVE SMOOTH",
"519 0 OFFCURVE",
"526 7 OFFCURVE",
"526 21 CURVE SMOOTH",
"526 330 LINE SMOOTH",
"526 542 OFFCURVE",
"460 633 OFFCURVE",
"303 633 CURVE SMOOTH",
"283 633 LINE SMOOTH",
"126 633 OFFCURVE",
"60 542 OFFCURVE",
"60 330 CURVE SMOOTH",
"60 21 LINE SMOOTH",
"60 7 OFFCURVE",
"67 0 OFFCURVE",
"81 0 CURVE SMOOTH"
);
},
{
closed = 1;
nodes = (
"314 134 CURVE SMOOTH",
"314 669 LINE SMOOTH",
"314 683 OFFCURVE",
"307 690 OFFCURVE",
"293 690 CURVE SMOOTH",
"279 690 OFFCURVE",
"272 683 OFFCURVE",
"272 669 CURVE SMOOTH",
"272 134 LINE SMOOTH",
"272 120 OFFCURVE",
"279 113 OFFCURVE",
"293 113 CURVE SMOOTH",
"307 113 OFFCURVE",
"314 120 OFFCURVE"
);
}
);
width = 586;
}
);
leftKerningGroup = U;
leftMetricsKey = "=U-20";
rightKerningGroup = U;
rightMetricsKey = "=U-20";
unicode = 20BC;
},
{
color = 4;
glyphname = naira;
layers = (
{
components = (
{
name = strokelongcomb;
transform = "{1, 0, 0, 1, 4, 57}";
}
);
layerId = "C9A88445-F9B1-43BF-9834-532EB19954E9";
paths = (
{
closed = 1;
nodes = (
"169 21 CURVE SMOOTH",
"169 589 LINE",
"144 582 LINE",
"523 9 LINE",
"527 4 OFFCURVE",
"533 0 OFFCURVE",
"542 0 CURVE",
"555 0 OFFCURVE",
"564 9 OFFCURVE",
"564 21 CURVE SMOOTH",
"564 612 LINE SMOOTH",
"564 624 OFFCURVE",
"555 633 OFFCURVE",
"543 633 CURVE SMOOTH",
"531 633 OFFCURVE",
"522 624 OFFCURVE",
"522 612 CURVE SMOOTH",
"522 44 LINE",
"547 51 LINE",
"168 624 LINE SMOOTH",
"164 630 OFFCURVE",
"158 633 OFFCURVE",
"150 633 CURVE SMOOTH",
"136 633 OFFCURVE",
"127 624 OFFCURVE",
"127 612 CURVE SMOOTH",
"127 21 LINE SMOOTH",
"127 9 OFFCURVE",
"136 0 OFFCURVE",
"148 0 CURVE SMOOTH",
"160 0 OFFCURVE",
"169 9 OFFCURVE"
);
}
);
width = 687;
}
);
leftKerningGroup = Hbar;
leftMetricsKey = Hbar;
rightKerningGroup = Hbar;
rightMetricsKey = Hbar;
unicode = 20A6;
},
{
color = 4;
glyphname = peseta;
layers = (
{
layerId = "C9A88445-F9B1-43BF-9834-532EB19954E9";
paths = (
{
closed = 1;
nodes = (
"132 21 CURVE SMOOTH",
"132 267 LINE",
"207 267 LINE SMOOTH",
"318 267 OFFCURVE",
"375 324 OFFCURVE",
"375 435 CURVE SMOOTH",
"375 465 LINE SMOOTH",
"375 576 OFFCURVE",
"318 633 OFFCURVE",
"207 633 CURVE SMOOTH",
"111 633 LINE SMOOTH",
"97 633 OFFCURVE",
"90 626 OFFCURVE",
"90 612 CURVE SMOOTH",
"90 21 LINE SMOOTH",
"90 9 OFFCURVE",
"99 0 OFFCURVE",
"111 0 CURVE SMOOTH",
"123 0 OFFCURVE",
"132 9 OFFCURVE"
);
},
{
closed = 1;
nodes = (
"553 21 CURVE SMOOTH",
"553 33 OFFCURVE",
"544 42 OFFCURVE",
"532 42 CURVE SMOOTH",
"474 42 OFFCURVE",
"456 59 OFFCURVE",
"456 118 CURVE SMOOTH",
"456 271 LINE",
"532 271 LINE SMOOTH",
"544 271 OFFCURVE",
"553 280 OFFCURVE",
"553 292 CURVE SMOOTH",
"553 304 OFFCURVE",
"544 313 OFFCURVE",
"532 313 CURVE SMOOTH",
"456 313 LINE",
"456 385 LINE SMOOTH",
"456 397 OFFCURVE",
"447 406 OFFCURVE",
"435 406 CURVE SMOOTH",
"423 406 OFFCURVE",
"414 397 OFFCURVE",
"414 385 CURVE SMOOTH",
"414 313 LINE",
"392 313 LINE SMOOTH",
"380 313 OFFCURVE",
"371 304 OFFCURVE",
"371 292 CURVE SMOOTH",
"371 280 OFFCURVE",
"380 271 OFFCURVE",
"392 271 CURVE SMOOTH",
"414 271 LINE",
"414 118 LINE SMOOTH",
"414 36 OFFCURVE",
"450 0 OFFCURVE",
"532 0 CURVE SMOOTH",
"544 0 OFFCURVE",
"553 9 OFFCURVE"
);
},
{
closed = 1;
nodes = (
"132 591 LINE",
"207 591 LINE SMOOTH",
"294 591 OFFCURVE",
"333 552 OFFCURVE",
"333 465 CURVE SMOOTH",
"333 435 LINE SMOOTH",
"333 348 OFFCURVE",
"294 309 OFFCURVE",
"207 309 CURVE SMOOTH",
"132 309 LINE"
);
},
{
closed = 1;
nodes = (
"736 0 LINE SMOOTH",
"798 0 OFFCURVE",
"827 29 OFFCURVE",
"827 91 CURVE SMOOTH",
"827 153 OFFCURVE",
"798 182 OFFCURVE",
"736 182 CURVE SMOOTH",
"675 182 LINE SMOOTH",
"641 182 OFFCURVE",
"631 192 OFFCURVE",
"631 226 CURVE SMOOTH",
"631 261 OFFCURVE",
"640 270 OFFCURVE",
"675 270 CURVE SMOOTH",
"734 270 LINE SMOOTH",
"769 270 OFFCURVE",
"778 261 OFFCURVE",
"778 226 CURVE SMOOTH",
"778 214 OFFCURVE",
"787 205 OFFCURVE",
"799 205 CURVE SMOOTH",
"811 205 OFFCURVE",
"820 214 OFFCURVE",
"820 226 CURVE SMOOTH",
"820 285 OFFCURVE",
"793 312 OFFCURVE",
"734 312 CURVE SMOOTH",
"675 312 LINE SMOOTH",
"617 312 OFFCURVE",
"589 284 OFFCURVE",
"589 226 CURVE SMOOTH",
"589 168 OFFCURVE",
"617 140 OFFCURVE",
"675 140 CURVE SMOOTH",
"736 140 LINE SMOOTH",
"774 140 OFFCURVE",
"785 129 OFFCURVE",
"785 91 CURVE SMOOTH",
"785 53 OFFCURVE",
"774 42 OFFCURVE",
"736 42 CURVE SMOOTH",
"669 42 LINE SMOOTH",
"632 42 OFFCURVE",
"621 53 OFFCURVE",
"621 91 CURVE SMOOTH",
"621 103 OFFCURVE",
"612 112 OFFCURVE",
"600 112 CURVE SMOOTH",
"588 112 OFFCURVE",
"579 103 OFFCURVE",
"579 91 CURVE SMOOTH",
"579 29 OFFCURVE",
"608 0 OFFCURVE",
"669 0 CURVE SMOOTH"
);
}
);
width = 857;
}
);
leftKerningGroup = P;
leftMetricsKey = P;
rightKerningGroup = s;
rightMetricsKey = "=s-30";
unicode = 20A7;
},
{
color = 4;
glyphname = peso;
layers = (
{
components = (
{
name = P;
}
);
layerId = "C9A88445-F9B1-43BF-9834-532EB19954E9";
paths = (
{
closed = 1;
nodes = (
"99 472 LINE",
"108 472 LINE",
"485 472 LINE",
"496 472 LINE",
"566 472 LINE SMOOTH",
"580 472 OFFCURVE",
"587 478 OFFCURVE",
"587 490 CURVE SMOOTH",
"587 502 OFFCURVE",
"580 508 OFFCURVE",
"566 508 CURVE SMOOTH",
"494 508 LINE",
"481 508 LINE",
"108 508 LINE",
"99 508 LINE",
"51 508 LINE SMOOTH",
"37 508 OFFCURVE",
"30 502 OFFCURVE",
"30 490 CURVE SMOOTH",
"30 478 OFFCURVE",
"37 472 OFFCURVE",
"51 472 CURVE SMOOTH"
);
},
{
closed = 1;
nodes = (
"99 382 LINE",
"110 382 LINE",
"478 382 LINE",
"489 382 LINE",
"566 382 LINE SMOOTH",
"580 382 OFFCURVE",
"587 388 OFFCURVE",
"587 400 CURVE SMOOTH",
"587 412 OFFCURVE",
"580 418 OFFCURVE",
"566 418 CURVE SMOOTH",
"491 418 LINE",
"480 418 LINE",
"107.992 418 LINE",
"100 418 LINE",
"51 418 LINE SMOOTH",
"37 418 OFFCURVE",
"30 412 OFFCURVE",
"30 400 CURVE SMOOTH",
"30 388 OFFCURVE",
"37 382 OFFCURVE",
"51 382 CURVE SMOOTH"
);
}
);
width = 617;
}
);
leftKerningGroup = Hbar;
rightKerningGroup = P;
unicode = 20B1;
},
{
color = 4;
glyphname = rupeeIndian;
layers = (
{
layerId = "C9A88445-F9B1-43BF-9834-532EB19954E9";
paths = (
{
closed = 1;
nodes = (
"352 21 CURVE SMOOTH",
"352 26 OFFCURVE",
"350 31 OFFCURVE",
"347 35 CURVE SMOOTH",
"105 312 LINE",
"90 278 LINE",
"197 278 LINE SMOOTH",
"308 278 OFFCURVE",
"365 335 OFFCURVE",
"365 446 CURVE SMOOTH",
"365 465 LINE SMOOTH",
"365 556 OFFCURVE",
"308 612 OFFCURVE",
"197 612 CURVE",
"178 633 LINE",
"91 633 LINE SMOOTH",
"77 633 OFFCURVE",
"70 626 OFFCURVE",
"70 612 CURVE SMOOTH",
"70 598 OFFCURVE",
"77 591 OFFCURVE",
"91 591 CURVE SMOOTH",
"197 591 LINE SMOOTH",
"284 591 OFFCURVE",
"323 552 OFFCURVE",
"323 465 CURVE SMOOTH",
"323 446 LINE SMOOTH",
"323 359 OFFCURVE",
"284 320 OFFCURVE",
"197 320 CURVE SMOOTH",
"70 320 LINE",
"70 297 LINE",
"70 292 OFFCURVE",
"72 287 OFFCURVE",
"75 283 CURVE SMOOTH",
"315 7 LINE SMOOTH",
"319 3 OFFCURVE",
"325 0 OFFCURVE",
"331 0 CURVE SMOOTH",
"343 0 OFFCURVE",
"352 9 OFFCURVE"
);
},
{
closed = 1;
nodes = (
"434 477 LINE SMOOTH",
"448 477 OFFCURVE",
"455 484 OFFCURVE",
"455 498 CURVE SMOOTH",
"455 512 OFFCURVE",
"448 519 OFFCURVE",
"434 519 CURVE SMOOTH",
"91 519 LINE SMOOTH",
"77 519 OFFCURVE",
"70 512 OFFCURVE",
"70 498 CURVE SMOOTH",
"70 484 OFFCURVE",
"77 477 OFFCURVE",
"91 477 CURVE SMOOTH"
);
},
{
closed = 1;
nodes = (
"454 591 LINE SMOOTH",
"468 591 OFFCURVE",
"475 598 OFFCURVE",
"475 612 CURVE SMOOTH",
"475 626 OFFCURVE",
"468 633 OFFCURVE",
"454 633 CURVE SMOOTH",
"158 633 LINE",
"158 591 LINE"
);
}
);
width = 475;
}
);
leftKerningGroup = H;
rightKerningGroup = rupeeIndan;
unicode = 20B9;
},
{
color = 5;
glyphname = sterling;
layers = (
{
layerId = "C9A88445-F9B1-43BF-9834-532EB19954E9";
paths = (
{
closed = 1;
nodes = (
"529 0 LINE SMOOTH",
"543 0 OFFCURVE",
"550 7 OFFCURVE",
"550 21 CURVE SMOOTH",
"550 35 OFFCURVE",
"543 42 OFFCURVE",
"529 42 CURVE SMOOTH",
"140 42 LINE",
"158 63 OFFCURVE",
"166 94 OFFCURVE",
"166 135 CURVE SMOOTH",
"166 430 LINE SMOOTH",
"166 549 OFFCURVE",
"208 591 OFFCURVE",
"326 591 CURVE SMOOTH",
"347 591 LINE SMOOTH",
"453 591 OFFCURVE",
"488 556 OFFCURVE",
"488 450 CURVE SMOOTH",
"488 436 OFFCURVE",
"495 429 OFFCURVE",
"509 429 CURVE SMOOTH",
"523 429 OFFCURVE",
"530 436 OFFCURVE",
"530 450 CURVE SMOOTH",
"530 579 OFFCURVE",
"476 633 OFFCURVE",
"347 633 CURVE SMOOTH",
"326 633 LINE SMOOTH",
"185 633 OFFCURVE",
"124 573 OFFCURVE",
"124 430 CURVE SMOOTH",
"124 135 LINE SMOOTH",
"124 74 OFFCURVE",
"106 42 OFFCURVE",
"50 42 CURVE",
"50 0 LINE"
);
},
{
closed = 1;
nodes = (
"345 223 LINE SMOOTH",
"359 223 OFFCURVE",
"366 230 OFFCURVE",
"366 244 CURVE SMOOTH",
"366 258 OFFCURVE",
"359 265 OFFCURVE",
"345 265 CURVE SMOOTH",
"61 265 LINE SMOOTH",
"47 265 OFFCURVE",
"40 258 OFFCURVE",
"40 244 CURVE SMOOTH",
"40 230 OFFCURVE",
"47 223 OFFCURVE",
"61 223 CURVE SMOOTH"
);
}
);
width = 595;
}
);
leftKerningGroup = sterling;
rightKerningGroup = sterlng;
unicode = 00A3;
},
{
color = 4;
glyphname = won;
layers = (
{
layerId = "C9A88445-F9B1-43BF-9834-532EB19954E9";
paths = (
{
closed = 1;
nodes = (
"211 0 LINE",
"222 0 OFFCURVE",
"228 5 OFFCURVE",
"231 15 CURVE SMOOTH",
"383 600 LINE",
"357 600 LINE",
"509 15 LINE SMOOTH",
"512 5 OFFCURVE",
"518 0 OFFCURVE",
"529 0 CURVE",
"535 0 LINE",
"545 0 OFFCURVE",
"552 5 OFFCURVE",
"555 15 CURVE SMOOTH",
"729 605 LINE SMOOTH",
"733 618 OFFCURVE",
"729 633 OFFCURVE",
"709 633 CURVE SMOOTH",
"699 633 OFFCURVE",
"692 628 OFFCURVE",
"689 618 CURVE SMOOTH",
"518 38 LINE",
"545 38 LINE",
"395 618 LINE SMOOTH",
"392 628 OFFCURVE",
"386 633 OFFCURVE",
"375 633 CURVE",
"365 633 LINE",
"354 633 OFFCURVE",
"348 628 OFFCURVE",
"345 618 CURVE SMOOTH",
"195 38 LINE",
"222 38 LINE",
"51 618 LINE SMOOTH",
"48 628 OFFCURVE",
"41 633 OFFCURVE",
"31 633 CURVE SMOOTH",
"13 633 OFFCURVE",
"7 617 OFFCURVE",
"11 605 CURVE SMOOTH",
"185 15 LINE SMOOTH",
"188 5 OFFCURVE",
"195 0 OFFCURVE",
"205 0 CURVE"
);
},
{
closed = 1;
nodes = (
"705 288 LINE SMOOTH",
"719 288 OFFCURVE",
"726 294 OFFCURVE",
"726 306 CURVE SMOOTH",
"726 318 OFFCURVE",
"719 324 OFFCURVE",
"705 324 CURVE SMOOTH",
"34 324 LINE SMOOTH",
"20 324 OFFCURVE",
"13 318 OFFCURVE",
"13 306 CURVE SMOOTH",
"13 294 OFFCURVE",
"20 288 OFFCURVE",
"34 288 CURVE SMOOTH"
);
}
);
width = 741;
}
);
leftKerningGroup = V;
leftMetricsKey = W;
rightKerningGroup = V;
rightMetricsKey = W;
unicode = 20A9;
},
{
color = 4;
glyphname = yen;
layers = (
{
layerId = "C9A88445-F9B1-43BF-9834-532EB19954E9";
paths = (
{
closed = 1;
nodes = (
"277 21 CURVE SMOOTH",
"277 250 LINE",
"502 600 LINE",
"510 611 OFFCURVE",
"507 622 OFFCURVE",
"496 629 CURVE SMOOTH",
"485 636 OFFCURVE",
"474 634 OFFCURVE",
"467 623 CURVE SMOOTH",
"248 283 LINE",
"263 283 LINE",
"50 623 LINE SMOOTH",
"43 634 OFFCURVE",
"33 636 OFFCURVE",
"21 629 CURVE SMOOTH",
"9 622 OFFCURVE",
"7 612 OFFCURVE",
"15 600 CURVE",
"235 250 LINE",
"235 21 LINE SMOOTH",
"235 7 OFFCURVE",
"242 0 OFFCURVE",
"256 0 CURVE SMOOTH",
"270 0 OFFCURVE",
"277 7 OFFCURVE"
);
},
{
closed = 1;
nodes = (
"401 237 LINE SMOOTH",
"413 237 OFFCURVE",
"422 246 OFFCURVE",
"422 258 CURVE SMOOTH",
"422 270 OFFCURVE",
"413 279 OFFCURVE",
"401 279 CURVE SMOOTH",
"112 279 LINE SMOOTH",
"100 279 OFFCURVE",
"91 270 OFFCURVE",
"91 258 CURVE SMOOTH",
"91 246 OFFCURVE",
"100 237 OFFCURVE",
"112 237 CURVE SMOOTH"
);
},
{
closed = 1;
nodes = (
"401 149 LINE SMOOTH",
"413 149 OFFCURVE",
"422 158 OFFCURVE",
"422 170 CURVE SMOOTH",
"422 182 OFFCURVE",
"413 191 OFFCURVE",
"401 191 CURVE SMOOTH",
"112 191 LINE SMOOTH",
"100 191 OFFCURVE",
"91 182 OFFCURVE",
"91 170 CURVE SMOOTH",
"91 158 OFFCURVE",
"100 149 OFFCURVE",
"112 149 CURVE SMOOTH"
);
}
);
width = 517;
}
);
leftKerningGroup = Y;
leftMetricsKey = Y;
rightKerningGroup = Y;
rightMetricsKey = Y;
unicode = 00A5;
},
{
color = 4;
glyphname = franc.salt;
lastChange = "2016-07-31 02:08:06 +0000";
layers = (
{
components = (
{
name = F;
}
);
layerId = "C9A88445-F9B1-43BF-9834-532EB19954E9";
paths = (
{
closed = 1;
nodes = (
"292 158 LINE SMOOTH",
"306 158 OFFCURVE",
"313 165 OFFCURVE",
"313 179 CURVE SMOOTH",
"313 193 OFFCURVE",
"306 200 OFFCURVE",
"292 200 CURVE SMOOTH",
"39 200 LINE SMOOTH",
"25 200 OFFCURVE",
"18 193 OFFCURVE",
"18 179 CURVE SMOOTH",
"18 165 OFFCURVE",
"25 158 OFFCURVE",
"39 158 CURVE SMOOTH"
);
}
);
width = 490;
}
);
leftKerningGroup = H;
rightKerningGroup = F;
rightMetricsKey = F;
},
{
color = 5;
glyphname = divisionslash;
layers = (
{
layerId = "C9A88445-F9B1-43BF-9834-532EB19954E9";
paths = (
{
closed = 1;
nodes = (
"90 -133 CURVE SMOOTH",
"449 671 LINE SMOOTH",
"450 674 OFFCURVE",
"451 677 OFFCURVE",
"451 680 CURVE SMOOTH",
"451 692 OFFCURVE",
"442 701 OFFCURVE",
"430 701 CURVE SMOOTH",
"421 701 OFFCURVE",
"414 696 OFFCURVE",
"411 688 CURVE SMOOTH",
"52 -116 LINE SMOOTH",
"51 -119 OFFCURVE",
"50 -122 OFFCURVE",
"50 -125 CURVE SMOOTH",
"50 -137 OFFCURVE",
"59 -146 OFFCURVE",
"71 -146 CURVE SMOOTH",
"80 -146 OFFCURVE",
"87 -141 OFFCURVE"
);
}
);
width = 501;
}
);
leftKerningGroup = slash;
rightKerningGroup = slash;
unicode = 2215;
},
{
color = 5;
glyphname = notequal;
layers = (
{
components = (
{
name = equal;
}
);
layerId = "C9A88445-F9B1-43BF-9834-532EB19954E9";
paths = (
{
closed = 1;
nodes = (
"224 166 CURVE SMOOTH",
"353 474 LINE",
"357 485 OFFCURVE",
"354 493 OFFCURVE",
"343 498 CURVE SMOOTH",
"332 503 OFFCURVE",
"324 499 OFFCURVE",
"319 488 CURVE SMOOTH",
"190 180 LINE SMOOTH",
"186 169 OFFCURVE",
"189 161 OFFCURVE",
"199.993 156.003 CURVE SMOOTH",
"211 151 OFFCURVE",
"219 155 OFFCURVE"
);
}
);
width = 545;
}
);
leftKerningGroup = plus;
leftMetricsKey = hyphen;
rightKerningGroup = plus;
rightMetricsKey = hyphen;
unicode = 2260;
},
{
color = 5;
glyphname = less;
layers = (
{
layerId = "C9A88445-F9B1-43BF-9834-532EB19954E9";
paths = (
{
closed = 1;
nodes = (
"440 140 CURVE SMOOTH",
"447 152 OFFCURVE",
"444 162 OFFCURVE",
"432 169 CURVE SMOOTH",
"145 331 LINE",
"145 320 LINE",
"432 479 LINE SMOOTH",
"444 486 OFFCURVE",
"447 496 OFFCURVE",
"440 508 CURVE SMOOTH",
"433 520 OFFCURVE",
"423 523 OFFCURVE",
"411 516 CURVE SMOOTH",
"115 351 LINE SMOOTH",
"104 345 OFFCURVE",
"100 337 OFFCURVE",
"100 326 CURVE SMOOTH",
"100 313 OFFCURVE",
"104 305 OFFCURVE",
"115 299 CURVE SMOOTH",
"411 132 LINE SMOOTH",
"423 125 OFFCURVE",
"433 128 OFFCURVE"
);
}
);
width = 545;
}
);
leftKerningGroup = plus;
rightKerningGroup = plus;
unicode = 003C;
},
{
color = 5;
glyphname = lessequal;
layers = (
{
layerId = "C9A88445-F9B1-43BF-9834-532EB19954E9";
paths = (
{
closed = 1;
nodes = (
"444 266 CURVE SMOOTH",
"449 279 OFFCURVE",
"444 288 OFFCURVE",
"432 293 CURVE",
"125 403 LINE",
"125 373 LINE",
"432 486 LINE SMOOTH",
"444 490 OFFCURVE",
"449 500 OFFCURVE",
"444 513 CURVE SMOOTH",
"439 526 OFFCURVE",
"430 531 OFFCURVE",
"417 526 CURVE SMOOTH",
"118 415 LINE SMOOTH",
"106 411 OFFCURVE",
"101 403 OFFCURVE",
"101 388 CURVE SMOOTH",
"101 378 OFFCURVE",
"103 369 OFFCURVE",
"118 363 CURVE SMOOTH",
"417 254 LINE SMOOTH",
"430 249 OFFCURVE",
"439 253 OFFCURVE"
);
},
{
closed = 1;
nodes = (
"425 164 LINE SMOOTH",
"439 164 OFFCURVE",
"446 171 OFFCURVE",
"446 185 CURVE SMOOTH",
"446 199 OFFCURVE",
"439 206 OFFCURVE",
"425 206 CURVE SMOOTH",
"122 206 LINE SMOOTH",
"108 206 OFFCURVE",
"101 199 OFFCURVE",
"101 185 CURVE SMOOTH",
"101 171 OFFCURVE",
"108 164 OFFCURVE",
"122 164 CURVE SMOOTH"
);
}
);
width = 545;
}
);
leftKerningGroup = plus;
rightKerningGroup = plus;
unicode = 2264;
},
{
color = 5;
glyphname = plusminus;
layers = (
{
components = (
{
name = endash;
transform = "{1, 0, 0, 1, 0, 96}";
},
{
name = endash;
transform = "{1, 0, 0, 1, 0, -104}";
}
);
layerId = "C9A88445-F9B1-43BF-9834-532EB19954E9";
paths = (
{
closed = 1;
nodes = (
"233 233 LINE SMOOTH",
"233 221 OFFCURVE",
"242 212 OFFCURVE",
"254 212 CURVE SMOOTH",
"266 212 OFFCURVE",
"275 221 OFFCURVE",
"275 233 CURVE SMOOTH",
"275 499 LINE SMOOTH",
"275 511 OFFCURVE",
"266 520 OFFCURVE",
"254 520 CURVE SMOOTH",
"242 520 OFFCURVE",
"233 511 OFFCURVE",
"233 499 CURVE SMOOTH"
);
}
);
width = 545;
}
);
leftKerningGroup = plus;
leftMetricsKey = hyphen;
rightKerningGroup = plus;
rightMetricsKey = hyphen;
unicode = 00B1;
},
{
color = 5;
glyphname = approxequal;
layers = (
{
layerId = "C9A88445-F9B1-43BF-9834-532EB19954E9";
paths = (
{
closed = 1;
nodes = (
"107 323 CURVE SMOOTH",
"125 359 OFFCURVE",
"145 371 OFFCURVE",
"186 371 CURVE SMOOTH",
"270 371 OFFCURVE",
"270 312 OFFCURVE",
"358 312 CURVE SMOOTH",
"411 312 OFFCURVE",
"450 335 OFFCURVE",
"472 380 CURVE SMOOTH",
"479 394 OFFCURVE",
"475 411 OFFCURVE",
"456 411 CURVE SMOOTH",
"447 411 OFFCURVE",
"442 407 OFFCURVE",
"437 397 CURVE SMOOTH",
"422 367 OFFCURVE",
"396 352 OFFCURVE",
"358 352 CURVE SMOOTH",
"289 352 OFFCURVE",
"279 411 OFFCURVE",
"186 411 CURVE SMOOTH",
"130 411 OFFCURVE",
"94 391 OFFCURVE",
"71 341 CURVE SMOOTH",
"63 324 OFFCURVE",
"75 312 OFFCURVE",
"89 312 CURVE SMOOTH",
"99 312 OFFCURVE",
"103 315 OFFCURVE"
);
},
{
closed = 1;
nodes = (
"107 203 CURVE SMOOTH",
"125 239 OFFCURVE",
"145 251 OFFCURVE",
"186 251 CURVE SMOOTH",
"270 251 OFFCURVE",
"270 192 OFFCURVE",
"358 192 CURVE SMOOTH",
"411 192 OFFCURVE",
"450 215 OFFCURVE",
"472 260 CURVE SMOOTH",
"479 274 OFFCURVE",
"475 291 OFFCURVE",
"456 291 CURVE SMOOTH",
"447 291 OFFCURVE",
"442 287 OFFCURVE",
"437 277 CURVE SMOOTH",
"422 247 OFFCURVE",
"396 232 OFFCURVE",
"358 232 CURVE SMOOTH",
"289 232 OFFCURVE",
"279 291 OFFCURVE",
"186 291 CURVE SMOOTH",
"130 291 OFFCURVE",
"94 271 OFFCURVE",
"71 221 CURVE SMOOTH",
"63 204 OFFCURVE",
"75 192 OFFCURVE",
"89 192 CURVE SMOOTH",
"99 192 OFFCURVE",
"103 195 OFFCURVE"
);
}
);
width = 545;
}
);
leftKerningGroup = plus;
rightKerningGroup = plus;
unicode = 2248;
},
{
color = 4;
glyphname = asciitilde;
layers = (
{
layerId = "C9A88445-F9B1-43BF-9834-532EB19954E9";
paths = (
{
closed = 1;
nodes = (
"108 273 CURVE SMOOTH",
"126 309 OFFCURVE",
"146 321 OFFCURVE",
"187 321 CURVE SMOOTH",
"271 321 OFFCURVE",
"271 262 OFFCURVE",
"359 262 CURVE SMOOTH",
"412 262 OFFCURVE",
"451 285 OFFCURVE",
"473 330 CURVE SMOOTH",
"480 344 OFFCURVE",
"476 361 OFFCURVE",
"457 361 CURVE SMOOTH",
"448 361 OFFCURVE",
"443 357 OFFCURVE",
"438 347 CURVE SMOOTH",
"423 317 OFFCURVE",
"397 302 OFFCURVE",
"359 302 CURVE SMOOTH",
"290 302 OFFCURVE",
"280 361 OFFCURVE",
"187 361 CURVE SMOOTH",
"131 361 OFFCURVE",
"95 341 OFFCURVE",
"72 291 CURVE SMOOTH",
"64 274 OFFCURVE",
"76 262 OFFCURVE",
"90 262 CURVE SMOOTH",
"100 262 OFFCURVE",
"104 265 OFFCURVE"
);
}
);
width = 545;
}
);
leftKerningGroup = plus;
rightKerningGroup = plus;
unicode = 007E;
},
{
color = 5;
glyphname = logicalnot;
lastChange = "2016-07-31 01:33:46 +0000";
layers = (
{
layerId = "C9A88445-F9B1-43BF-9834-532EB19954E9";
paths = (
{
closed = 1;
nodes = (
"480 239 CURVE SMOOTH",
"480 355 LINE SMOOTH",
"480 369 OFFCURVE",
"473 376 OFFCURVE",
"459 376 CURVE SMOOTH",
"89 376 LINE SMOOTH",
"75 376 OFFCURVE",
"68 369 OFFCURVE",
"68 355 CURVE SMOOTH",
"68 341 OFFCURVE",
"75 334 OFFCURVE",
"89 334 CURVE SMOOTH",
"438 334 LINE",
"438 239 LINE SMOOTH",
"438 225 OFFCURVE",
"445 218 OFFCURVE",
"459 218 CURVE SMOOTH",
"473 218 OFFCURVE",
"480 225 OFFCURVE"
);
}
);
width = 545;
}
);
leftKerningGroup = plus;
rightKerningGroup = plus;
unicode = 00AC;
},
{
color = 5;
glyphname = micro;
layers = (
{
layerId = "C9A88445-F9B1-43BF-9834-532EB19954E9";
paths = (
{
closed = 1;
nodes = (
"503 113 CURVE SMOOTH",
"503 440 LINE SMOOTH",
"503 454 OFFCURVE",
"496 461 OFFCURVE",
"482 461 CURVE SMOOTH",
"468 461 OFFCURVE",
"461 454 OFFCURVE",
"461 440 CURVE SMOOTH",
"461 152 LINE SMOOTH",
"461 79 OFFCURVE",
"393 43 OFFCURVE",
"284 43 CURVE SMOOTH",
"256 43 LINE SMOOTH",
"158 43 OFFCURVE",
"123 78 OFFCURVE",
"123 176 CURVE SMOOTH",
"123 440 LINE SMOOTH",
"123 454 OFFCURVE",
"116 461 OFFCURVE",
"102 461 CURVE SMOOTH",
"88 461 OFFCURVE",
"81 454 OFFCURVE",
"81 440 CURVE SMOOTH",
"81 -71 LINE SMOOTH",
"81 -85 OFFCURVE",
"88 -92 OFFCURVE",
"102 -92 CURVE SMOOTH",
"116 -92 OFFCURVE",
"123 -85 OFFCURVE",
"123 -71 CURVE SMOOTH",
"123 67 LINE",
"146 21 OFFCURVE",
"189 1 OFFCURVE",
"256 1 CURVE SMOOTH",
"284 1 LINE SMOOTH",
"371 1 OFFCURVE",
"432 26 OFFCURVE",
"465 73 CURVE",
"475 30 OFFCURVE",
"503 3 OFFCURVE",
"551 0 CURVE SMOOTH",
"565 -1 OFFCURVE",
"573 7 OFFCURVE",
"573 21 CURVE SMOOTH",
"573 34 OFFCURVE",
"566 40 OFFCURVE",
"552 42 CURVE SMOOTH",
"515 47 OFFCURVE",
"503 67 OFFCURVE"
);
}
);
width = 603;
}
);
leftKerningGroup = u;
leftMetricsKey = u;
rightKerningGroup = mcro;
rightMetricsKey = l;
unicode = 00B5;
},
{
color = 5;
glyphname = percent;
layers = (
{
components = (
{
name = fraction;
transform = "{1, 0, 0, 1, 262, 0}";
}
);
layerId = "C9A88445-F9B1-43BF-9834-532EB19954E9";
paths = (
{
closed = 1;
nodes = (
"191 308 LINE SMOOTH",
"277 308 OFFCURVE",
"316 347 OFFCURVE",
"316 434 CURVE SMOOTH",
"316 508 LINE SMOOTH",
"316 594 OFFCURVE",
"277 633 OFFCURVE",
"191 633 CURVE SMOOTH",
"175 633 LINE SMOOTH",
"89 633 OFFCURVE",
"50 595 OFFCURVE",
"50 508 CURVE SMOOTH",
"50 433 LINE SMOOTH",
"50 347 OFFCURVE",
"89 308 OFFCURVE",
"175 308 CURVE SMOOTH"
);
},
{
closed = 1;
nodes = (
"92 433 CURVE SMOOTH",
"92 508 LINE SMOOTH",
"92 572 OFFCURVE",
"113 591 OFFCURVE",
"175 591 CURVE SMOOTH",
"191 591 LINE SMOOTH",
"253 591 OFFCURVE",
"274 570 OFFCURVE",
"274 508 CURVE SMOOTH",
"274 434 LINE SMOOTH",
"274 371 OFFCURVE",
"253 350 OFFCURVE",
"191 350 CURVE SMOOTH",
"175 350 LINE SMOOTH",
"113 350 OFFCURVE",
"92 371 OFFCURVE"
);
},
{
closed = 1;
nodes = (
"541 0 LINE SMOOTH",
"627 0 OFFCURVE",
"666 39 OFFCURVE",
"666 126 CURVE SMOOTH",
"666 200 LINE SMOOTH",
"666 286 OFFCURVE",
"627 325 OFFCURVE",
"541 325 CURVE SMOOTH",
"525 325 LINE SMOOTH",
"439 325 OFFCURVE",
"400 287 OFFCURVE",
"400 200 CURVE SMOOTH",
"400 125 LINE SMOOTH",
"400 39 OFFCURVE",
"439 0 OFFCURVE",
"525 0 CURVE SMOOTH"
);
},
{
closed = 1;
nodes = (
"442 125 CURVE SMOOTH",
"442 200 LINE SMOOTH",
"442 264 OFFCURVE",
"463 283 OFFCURVE",
"525 283 CURVE SMOOTH",
"541 283 LINE SMOOTH",
"603 283 OFFCURVE",
"624 262 OFFCURVE",
"624 200 CURVE SMOOTH",
"624 126 LINE SMOOTH",
"624 63 OFFCURVE",
"603 42 OFFCURVE",
"541 42 CURVE SMOOTH",
"525 42 LINE SMOOTH",
"463 42 OFFCURVE",
"442 63 OFFCURVE"
);
}
);
width = 716;
}
);
leftKerningGroup = percent;
rightKerningGroup = percent;
unicode = 0025;
},
{
color = 5;
glyphname = perthousand;
layers = (
{
components = (
{
name = fraction;
transform = "{1, 0, 0, 1, 262, 0}";
}
);
layerId = "C9A88445-F9B1-43BF-9834-532EB19954E9";
paths = (
{
closed = 1;
nodes = (
"191 308 LINE SMOOTH",
"277 308 OFFCURVE",
"316 347 OFFCURVE",
"316 434 CURVE SMOOTH",
"316 508 LINE SMOOTH",
"316 594 OFFCURVE",
"277 633 OFFCURVE",
"191 633 CURVE SMOOTH",
"175 633 LINE SMOOTH",
"89 633 OFFCURVE",
"50 595 OFFCURVE",
"50 508 CURVE SMOOTH",
"50 433 LINE SMOOTH",
"50 347 OFFCURVE",
"89 308 OFFCURVE",
"175 308 CURVE SMOOTH"
);
},
{
closed = 1;
nodes = (
"92 433 CURVE SMOOTH",
"92 508 LINE SMOOTH",
"92 572 OFFCURVE",
"113 591 OFFCURVE",
"175 591 CURVE SMOOTH",
"191 591 LINE SMOOTH",
"253 591 OFFCURVE",
"274 570 OFFCURVE",
"274 508 CURVE SMOOTH",
"274 434 LINE SMOOTH",
"274 371 OFFCURVE",
"253 350 OFFCURVE",
"191 350 CURVE SMOOTH",
"175 350 LINE SMOOTH",
"113 350 OFFCURVE",
"92 371 OFFCURVE"
);
},
{
closed = 1;
nodes = (
"541 0 LINE SMOOTH",
"627 0 OFFCURVE",
"666 39 OFFCURVE",
"666 126 CURVE SMOOTH",
"666 200 LINE SMOOTH",
"666 286 OFFCURVE",
"627 325 OFFCURVE",
"541 325 CURVE SMOOTH",
"525 325 LINE SMOOTH",
"439 325 OFFCURVE",
"400 287 OFFCURVE",
"400 200 CURVE SMOOTH",
"400 125 LINE SMOOTH",
"400 39 OFFCURVE",
"439 0 OFFCURVE",
"525 0 CURVE SMOOTH"
);
},
{
closed = 1;
nodes = (
"442 125 CURVE SMOOTH",
"442 200 LINE SMOOTH",
"442 264 OFFCURVE",
"463 283 OFFCURVE",
"525 283 CURVE SMOOTH",
"541 283 LINE SMOOTH",
"603 283 OFFCURVE",
"624 262 OFFCURVE",
"624 200 CURVE SMOOTH",
"624 126 LINE SMOOTH",
"624 63 OFFCURVE",
"603 42 OFFCURVE",
"541 42 CURVE SMOOTH",
"525 42 LINE SMOOTH",
"463 42 OFFCURVE",
"442 63 OFFCURVE"
);
},
{
closed = 1;
nodes = (
"861 0 LINE SMOOTH",
"947 0 OFFCURVE",
"986 39 OFFCURVE",
"986 126 CURVE SMOOTH",
"986 200 LINE SMOOTH",
"986 286 OFFCURVE",
"947 325 OFFCURVE",
"861 325 CURVE SMOOTH",
"845 325 LINE SMOOTH",
"759 325 OFFCURVE",
"720 287 OFFCURVE",
"720 200 CURVE SMOOTH",
"720 125 LINE SMOOTH",
"720 39 OFFCURVE",
"759 0 OFFCURVE",
"845 0 CURVE SMOOTH"
);
},
{
closed = 1;
nodes = (
"762 125 CURVE SMOOTH",
"762 200 LINE SMOOTH",
"762 264 OFFCURVE",
"783 283 OFFCURVE",
"845 283 CURVE SMOOTH",
"861 283 LINE SMOOTH",
"923 283 OFFCURVE",
"944 262 OFFCURVE",
"944 200 CURVE SMOOTH",
"944 126 LINE SMOOTH",
"944 63 OFFCURVE",
"923 42 OFFCURVE",
"861 42 CURVE SMOOTH",
"845 42 LINE SMOOTH",
"783 42 OFFCURVE",
"762 63 OFFCURVE"
);
}
);
width = 1036;
}
);
leftKerningGroup = percent;
leftMetricsKey = percent;
rightKerningGroup = percent;
rightMetricsKey = percent;
unicode = 2030;
},
{
color = 4;
glyphname = at;
layers = (
{
layerId = "C9A88445-F9B1-43BF-9834-532EB19954E9";
paths = (
{
closed = 1;
nodes = (
"617 40 CURVE SMOOTH",
"622 44 OFFCURVE",
"625 49 OFFCURVE",
"625 56 CURVE SMOOTH",
"625 68 OFFCURVE",
"616 77 OFFCURVE",
"604 77 CURVE SMOOTH",
"599 77 OFFCURVE",
"594 75 OFFCURVE",
"590 72 CURVE SMOOTH",
"564 50 OFFCURVE",
"541 42 OFFCURVE",
"501 42 CURVE SMOOTH",
"226 42 LINE SMOOTH",
"146 41 OFFCURVE",
"122 66 OFFCURVE",
"122 150 CURVE SMOOTH",
"122 403 LINE SMOOTH",
"122 487 OFFCURVE",
"146 512 OFFCURVE",
"226 511 CURVE SMOOTH",
"486 511 LINE SMOOTH",
"567 511 OFFCURVE",
"591 486 OFFCURVE",
"591 402 CURVE SMOOTH",
"591 203 LINE SMOOTH",
"591 169 OFFCURVE",
"583 162 OFFCURVE",
"541 162 CURVE SMOOTH",
"499 162 OFFCURVE",
"492 169 OFFCURVE",
"492 203 CURVE SMOOTH",
"492 423 LINE SMOOTH",
"492 437 OFFCURVE",
"485 444 OFFCURVE",
"471 444 CURVE SMOOTH",
"460 444 OFFCURVE",
"451 436 OFFCURVE",
"450 405 CURVE",
"431 438 OFFCURVE",
"404 444 OFFCURVE",
"370 444 CURVE SMOOTH",
"329 444 LINE SMOOTH",
"244 444 OFFCURVE",
"207 407 OFFCURVE",
"207 319 CURVE SMOOTH",
"207 240 LINE SMOOTH",
"207 156 OFFCURVE",
"245 118 OFFCURVE",
"330 118 CURVE SMOOTH",
"337 118 LINE SMOOTH",
"392 118 OFFCURVE",
"433 131 OFFCURVE",
"459 176 CURVE",
"472 131 OFFCURVE",
"498 120 OFFCURVE",
"541 120 CURVE SMOOTH",
"606 120 OFFCURVE",
"633 144 OFFCURVE",
"633 203 CURVE SMOOTH",
"633 402 LINE SMOOTH",
"633 510 OFFCURVE",
"591 553 OFFCURVE",
"486 553 CURVE SMOOTH",
"226 553 LINE SMOOTH",
"123 554 OFFCURVE",
"80 510 OFFCURVE",
"80 403 CURVE SMOOTH",
"80 150 LINE SMOOTH",
"80 43 OFFCURVE",
"123 -1 OFFCURVE",
"226 0 CURVE SMOOTH",
"501 0 LINE SMOOTH",
"549 0 OFFCURVE",
"584 12 OFFCURVE"
);
},
{
closed = 1;
nodes = (
"249 240 CURVE SMOOTH",
"249 319 LINE SMOOTH",
"249 384 OFFCURVE",
"268 402 OFFCURVE",
"329 402 CURVE SMOOTH",
"370 402 LINE SMOOTH",
"432 402 OFFCURVE",
"450 384 OFFCURVE",
"450 318 CURVE SMOOTH",
"450 240 LINE SMOOTH",
"450 186 OFFCURVE",
"414 160 OFFCURVE",
"337 160 CURVE SMOOTH",
"330 160 LINE SMOOTH",
"269 160 OFFCURVE",
"249 179 OFFCURVE"
);
}
);
width = 713;
}
);
leftKerningGroup = at;
leftMetricsKey = o;
rightKerningGroup = at;
rightMetricsKey = o;
unicode = 0040;
},
{
color = 4;
glyphname = ampersand;
layers = (
{
layerId = "C9A88445-F9B1-43BF-9834-532EB19954E9";
paths = (
{
closed = 1;
nodes = (
"574 47 CURVE SMOOTH",
"583 57 OFFCURVE",
"582 68 OFFCURVE",
"572 77 CURVE SMOOTH",
"242 367 LINE SMOOTH",
"185 416 OFFCURVE",
"172 440 OFFCURVE",
"172 488 CURVE SMOOTH",
"172 565 OFFCURVE",
"198 591 OFFCURVE",
"274 591 CURVE SMOOTH",
"299 591 LINE SMOOTH",
"368 591 OFFCURVE",
"395 570 OFFCURVE",
"400 510 CURVE SMOOTH",
"401 496 OFFCURVE",
"408 489 OFFCURVE",
"422 489 CURVE SMOOTH",
"435 489 OFFCURVE",
"443 497 OFFCURVE",
"442 511 CURVE SMOOTH",
"436 595 OFFCURVE",
"391 633 OFFCURVE",
"299 633 CURVE SMOOTH",
"274 633 LINE SMOOTH",
"175 633 OFFCURVE",
"130 588 OFFCURVE",
"130 488 CURVE SMOOTH",
"130 427 OFFCURVE",
"149 392 OFFCURVE",
"214 335 CURVE SMOOTH",
"544 45 LINE",
"555 36 OFFCURVE",
"565 37 OFFCURVE"
);
},
{
closed = 1;
nodes = (
"294 0 LINE SMOOTH",
"435 0 OFFCURVE",
"496 61 OFFCURVE",
"496 202 CURVE SMOOTH",
"496 258 LINE SMOOTH",
"496 272 OFFCURVE",
"489 279 OFFCURVE",
"475 279 CURVE SMOOTH",
"461 279 OFFCURVE",
"454 272 OFFCURVE",
"454 258 CURVE SMOOTH",
"454 202 LINE SMOOTH",
"454 85 OFFCURVE",
"411 42 OFFCURVE",
"294 42 CURVE SMOOTH",
"262 42 LINE SMOOTH",
"144 42 OFFCURVE",
"102 84 OFFCURVE",
"102 202 CURVE SMOOTH",
"102 292 OFFCURVE",
"128 337 OFFCURVE",
"193 355 CURVE SMOOTH",
"206 359 OFFCURVE",
"212 364 OFFCURVE",
"209 380 CURVE SMOOTH",
"206 394 OFFCURVE",
"197 400 OFFCURVE",
"184 396 CURVE SMOOTH",
"98 373 OFFCURVE",
"60 312 OFFCURVE",
"60 202 CURVE SMOOTH",
"60 60 OFFCURVE",
"120 0 OFFCURVE",
"262 0 CURVE SMOOTH"
);
}
);
width = 600;
}
);
leftKerningGroup = ampersand;
rightKerningGroup = ampersand;
unicode = 0026;
},
{
color = 5;
glyphname = paragraph;
layers = (
{
layerId = "C9A88445-F9B1-43BF-9834-532EB19954E9";
paths = (
{
closed = 1;
nodes = (
"300 -163 CURVE SMOOTH",
"300 602 LINE",
"388 602 LINE",
"388 -163 LINE SMOOTH",
"388 -175 OFFCURVE",
"397 -184 OFFCURVE",
"409 -184 CURVE SMOOTH",
"421 -184 OFFCURVE",
"430 -175 OFFCURVE",
"430 -163 CURVE SMOOTH",
"430 623 LINE SMOOTH",
"430 637 OFFCURVE",
"423 644 OFFCURVE",
"409 644 CURVE SMOOTH",
"193 644 LINE SMOOTH",
"85 644 OFFCURVE",
"30 589 OFFCURVE",
"30 481 CURVE SMOOTH",
"30 452 LINE SMOOTH",
"30 345 OFFCURVE",
"85 290 OFFCURVE",
"193 290 CURVE SMOOTH",
"258 290 LINE",
"258 -163 LINE SMOOTH",
"258 -175 OFFCURVE",
"267 -184 OFFCURVE",
"279 -184 CURVE SMOOTH",
"291 -184 OFFCURVE",
"300 -175 OFFCURVE"
);
}
);
width = 520;
}
);
leftKerningGroup = paragraph;
leftMetricsKey = "=|P";
rightKerningGroup = H;
rightMetricsKey = H;
unicode = 00B6;
},
{
color = 5;
glyphname = section;
layers = (
{
layerId = "C9A88445-F9B1-43BF-9834-532EB19954E9";
paths = (
{
closed = 1;
nodes = (
"446 282 CURVE SMOOTH",
"446 354 OFFCURVE",
"414 393 OFFCURVE",
"334 422 CURVE SMOOTH",
"235 457 LINE SMOOTH",
"177 477 OFFCURVE",
"156 501 OFFCURVE",
"156 546 CURVE SMOOTH",
"156 585 OFFCURVE",
"175 601 OFFCURVE",
"228 601 CURVE SMOOTH",
"326 601 LINE SMOOTH",
"379 601 OFFCURVE",
"396 584 OFFCURVE",
"396 530 CURVE SMOOTH",
"396 516 OFFCURVE",
"403 509 OFFCURVE",
"417 509 CURVE SMOOTH",
"431 509 OFFCURVE",
"438 516 OFFCURVE",
"438 530 CURVE SMOOTH",
"438 607 OFFCURVE",
"402 643 OFFCURVE",
"326 643 CURVE SMOOTH",
"228 643 LINE SMOOTH",
"153 643 OFFCURVE",
"114 610 OFFCURVE",
"114 546 CURVE SMOOTH",
"114 482 OFFCURVE",
"147 443 OFFCURVE",
"221 417 CURVE SMOOTH",
"320 382 LINE SMOOTH",
"384 359 OFFCURVE",
"404 335 OFFCURVE",
"404 282 CURVE SMOOTH",
"404 216 OFFCURVE",
"380 188 OFFCURVE",
"322 188 CURVE SMOOTH",
"310 188 OFFCURVE",
"301 179 OFFCURVE",
"301 167 CURVE SMOOTH",
"301 165 OFFCURVE",
"310 164 OFFCURVE",
"322 161 CURVE SMOOTH",
"404 161 OFFCURVE",
"446 202 OFFCURVE"
);
},
{
closed = 1;
nodes = (
"327 -72 LINE SMOOTH",
"416 -72 OFFCURVE",
"456 -32 OFFCURVE",
"456 57 CURVE SMOOTH",
"456 126 OFFCURVE",
"429 154 OFFCURVE",
"333 185 CURVE SMOOTH",
"209 225 LINE SMOOTH",
"140 247 OFFCURVE",
"122 269 OFFCURVE",
"122 328 CURVE SMOOTH",
"122 397 OFFCURVE",
"145 420 OFFCURVE",
"213 420 CURVE SMOOTH",
"225 420 OFFCURVE",
"234 429 OFFCURVE",
"234 441 CURVE SMOOTH",
"234 441 OFFCURVE",
"225 441 OFFCURVE",
"213 447 CURVE SMOOTH",
"122 447 OFFCURVE",
"80 410 OFFCURVE",
"80 328 CURVE SMOOTH",
"80 249 OFFCURVE",
"110 212 OFFCURVE",
"197 185 CURVE SMOOTH",
"321 145 LINE SMOOTH",
"400 119 OFFCURVE",
"414 104 OFFCURVE",
"414 57 CURVE SMOOTH",
"414 -8 OFFCURVE",
"392 -30 OFFCURVE",
"327 -30 CURVE SMOOTH",
"213 -30 LINE SMOOTH",
"148 -30 OFFCURVE",
"126 -8 OFFCURVE",
"126 57 CURVE SMOOTH",
"126 71 OFFCURVE",
"119 78 OFFCURVE",
"105 78 CURVE SMOOTH",
"91 78 OFFCURVE",
"84 71 OFFCURVE",
"84 57 CURVE SMOOTH",
"84 -32 OFFCURVE",
"124 -72 OFFCURVE",
"213 -72 CURVE SMOOTH"
);
}
);
width = 536;
}
);
leftKerningGroup = section;
leftMetricsKey = S;
rightKerningGroup = secton;
rightMetricsKey = S;
unicode = 00A7;
},
{
color = 4;
glyphname = copyright;
layers = (
{
layerId = "C9A88445-F9B1-43BF-9834-532EB19954E9";
paths = (
{
closed = 1;
nodes = (
"710 317 CURVE SMOOTH",
"710 501 OFFCURVE",
"579 633 OFFCURVE",
"395 633 CURVE SMOOTH",
"211 633 OFFCURVE",
"80 501 OFFCURVE",
"80 317 CURVE SMOOTH",
"80 133 OFFCURVE",
"211 0 OFFCURVE",
"395 0 CURVE SMOOTH",
"579 0 OFFCURVE",
"710 133 OFFCURVE"
);
},
{
closed = 1;
nodes = (
"122 317 CURVE SMOOTH",
"122 477 OFFCURVE",
"235 591 OFFCURVE",
"395 591 CURVE SMOOTH",
"555 591 OFFCURVE",
"668 477 OFFCURVE",
"668 317 CURVE SMOOTH",
"668 157 OFFCURVE",
"555 42 OFFCURVE",
"395 42 CURVE SMOOTH",
"235 42 OFFCURVE",
"122 157 OFFCURVE"
);
},
{
closed = 1;
nodes = (
"423 142 LINE SMOOTH",
"504 142 OFFCURVE",
"542 172 OFFCURVE",
"542 239 CURVE SMOOTH",
"542 251 OFFCURVE",
"533 260 OFFCURVE",
"521 260 CURVE SMOOTH",
"509 260 OFFCURVE",
"500 251 OFFCURVE",
"500 239 CURVE SMOOTH",
"500 198 OFFCURVE",
"482 184 OFFCURVE",
"423 184 CURVE SMOOTH",
"379 184 LINE SMOOTH",
"311 184 OFFCURVE",
"288 207 OFFCURVE",
"288 274 CURVE SMOOTH",
"288 357 LINE SMOOTH",
"288 427 OFFCURVE",
"311 448 OFFCURVE",
"379 448 CURVE SMOOTH",
"423 448 LINE SMOOTH",
"482 448 OFFCURVE",
"500 434 OFFCURVE",
"500 393 CURVE SMOOTH",
"500 381 OFFCURVE",
"509 372 OFFCURVE",
"521 372 CURVE SMOOTH",
"533 372 OFFCURVE",
"542 381 OFFCURVE",
"542 393 CURVE SMOOTH",
"542 460 OFFCURVE",
"504 490 OFFCURVE",
"423 490 CURVE SMOOTH",
"379 490 LINE SMOOTH",
"287 490 OFFCURVE",
"246 450 OFFCURVE",
"246 357 CURVE SMOOTH",
"246 274 LINE SMOOTH",
"246 183 OFFCURVE",
"287 142 OFFCURVE",
"379 142 CURVE SMOOTH"
);
}
);
width = 790;
}
);
leftKerningGroup = O;
leftMetricsKey = O;
rightKerningGroup = O;
rightMetricsKey = O;
unicode = 00A9;
},
{
color = 4;
glyphname = registered;
layers = (
{
layerId = "C9A88445-F9B1-43BF-9834-532EB19954E9";
paths = (
{
closed = 1;
nodes = (
"710 315 CURVE SMOOTH",
"710 499 OFFCURVE",
"579 630 OFFCURVE",
"395 630 CURVE SMOOTH",
"211 630 OFFCURVE",
"80 499 OFFCURVE",
"80 315 CURVE SMOOTH",
"80 131 OFFCURVE",
"211 0 OFFCURVE",
"395 0 CURVE SMOOTH",
"579 0 OFFCURVE",
"710 131 OFFCURVE"
);
},
{
closed = 1;
nodes = (
"122 315 CURVE SMOOTH",
"122 475 OFFCURVE",
"235 588 OFFCURVE",
"395 588 CURVE SMOOTH",
"555 588 OFFCURVE",
"668 475 OFFCURVE",
"668 315 CURVE SMOOTH",
"668 155 OFFCURVE",
"555 42 OFFCURVE",
"395 42 CURVE SMOOTH",
"235 42 OFFCURVE",
"122 155 OFFCURVE"
);
},
{
closed = 1;
nodes = (
"326 174 CURVE SMOOTH",
"326 282 LINE",
"414 282 LINE",
"477 163 LINE SMOOTH",
"483 151 OFFCURVE",
"493 148 OFFCURVE",
"505 154 CURVE SMOOTH",
"517 160 OFFCURVE",
"520 170 OFFCURVE",
"514 182 CURVE SMOOTH",
"458 287 LINE",
"496 298 OFFCURVE",
"517 330 OFFCURVE",
"517 378 CURVE SMOOTH",
"517 393 LINE SMOOTH",
"517 454 OFFCURVE",
"483 488 OFFCURVE",
"422 488 CURVE SMOOTH",
"305 488 LINE SMOOTH",
"291 488 OFFCURVE",
"284 481 OFFCURVE",
"284 467 CURVE SMOOTH",
"284 174 LINE SMOOTH",
"284 160 OFFCURVE",
"291 153 OFFCURVE",
"305 153 CURVE SMOOTH",
"319 153 OFFCURVE",
"326 160 OFFCURVE"
);
},
{
closed = 1;
nodes = (
"326 446 LINE",
"422 446 LINE SMOOTH",
"460 446 OFFCURVE",
"475 431 OFFCURVE",
"475 393 CURVE SMOOTH",
"475 378 LINE SMOOTH",
"475 339 OFFCURVE",
"460 324 OFFCURVE",
"422 324 CURVE SMOOTH",
"326 324 LINE"
);
}
);
width = 790;
}
);
leftKerningGroup = O;
leftMetricsKey = O;
rightKerningGroup = O;
rightMetricsKey = O;
unicode = 00AE;
},
{
color = 4;
glyphname = trademark;
layers = (
{
layerId = "C9A88445-F9B1-43BF-9834-532EB19954E9";
paths = (
{
closed = 1;
nodes = (
"410 329 CURVE SMOOTH",
"410 544 LINE",
"501 407 LINE SMOOTH",
"506 400 OFFCURVE",
"512 397 OFFCURVE",
"520 397 CURVE SMOOTH",
"528 397 OFFCURVE",
"534 400 OFFCURVE",
"539 407 CURVE SMOOTH",
"628 543 LINE",
"628 329 LINE SMOOTH",
"628 315 OFFCURVE",
"635 308 OFFCURVE",
"649 308 CURVE SMOOTH",
"663 308 OFFCURVE",
"670 315 OFFCURVE",
"670 329 CURVE SMOOTH",
"670 612 LINE SMOOTH",
"670 626 OFFCURVE",
"663 633 OFFCURVE",
"648 633 CURVE SMOOTH",
"640 633 OFFCURVE",
"634 630 OFFCURVE",
"630 623 CURVE SMOOTH",
"520 455 LINE",
"408 623 LINE SMOOTH",
"404 630 OFFCURVE",
"398 633 OFFCURVE",
"390 633 CURVE SMOOTH",
"375 633 OFFCURVE",
"368 626 OFFCURVE",
"368 612 CURVE SMOOTH",
"368 329 LINE SMOOTH",
"368 315 OFFCURVE",
"375 308 OFFCURVE",
"389 308 CURVE SMOOTH",
"403 308 OFFCURVE",
"410 315 OFFCURVE"
);
},
{
closed = 1;
nodes = (
"202 329 CURVE SMOOTH",
"202 591 LINE",
"291 591 LINE SMOOTH",
"305 591 OFFCURVE",
"312 598 OFFCURVE",
"312 612 CURVE SMOOTH",
"312 626 OFFCURVE",
"305 633 OFFCURVE",
"291 633 CURVE SMOOTH",
"71 633 LINE SMOOTH",
"57 633 OFFCURVE",
"50 626 OFFCURVE",
"50 612 CURVE SMOOTH",
"50 598 OFFCURVE",
"57 591 OFFCURVE",
"71 591 CURVE SMOOTH",
"160 591 LINE",
"160 329 LINE SMOOTH",
"160 315 OFFCURVE",
"167 308 OFFCURVE",
"181 308 CURVE SMOOTH",
"195 308 OFFCURVE",
"202 315 OFFCURVE"
);
}
);
width = 720;
}
);
leftKerningGroup = ordfeminine;
rightKerningGroup = ordfemnne;
unicode = 2122;
},
{
color = 5;
glyphname = degree;
layers = (
{
layerId = "C9A88445-F9B1-43BF-9834-532EB19954E9";
paths = (
{
closed = 1;
nodes = (
"149 446 LINE SMOOTH",
"198 446 OFFCURVE",
"225 473 OFFCURVE",
"225 522 CURVE SMOOTH",
"225 594 LINE SMOOTH",
"225 643 OFFCURVE",
"198 670 OFFCURVE",
"149 670 CURVE SMOOTH",
"126 670 LINE SMOOTH",
"77 670 OFFCURVE",
"50 643 OFFCURVE",
"50 594 CURVE SMOOTH",
"50 522 LINE SMOOTH",
"50 473 OFFCURVE",
"77 446 OFFCURVE",
"126 446 CURVE SMOOTH"
);
},
{
closed = 1;
nodes = (
"92 522 CURVE SMOOTH",
"92 594 LINE SMOOTH",
"92 619 OFFCURVE",
"101 628 OFFCURVE",
"126 628 CURVE SMOOTH",
"149 628 LINE SMOOTH",
"174 628 OFFCURVE",
"183 619 OFFCURVE",
"183 594 CURVE SMOOTH",
"183 522 LINE SMOOTH",
"183 497 OFFCURVE",
"174 488 OFFCURVE",
"149 488 CURVE SMOOTH",
"126 488 LINE SMOOTH",
"101 488 OFFCURVE",
"92 497 OFFCURVE"
);
}
);
width = 275;
}
);
leftKerningGroup = ordfeminine;
rightKerningGroup = ordfemnne;
unicode = 00B0;
},
{
color = 5;
glyphname = bar;
lastChange = "2016-07-31 01:33:46 +0000";
layers = (
{
layerId = "C9A88445-F9B1-43BF-9834-532EB19954E9";
paths = (
{
closed = 1;
nodes = (
"122 -120 CURVE SMOOTH",
"122 673 LINE SMOOTH",
"122 687 OFFCURVE",
"115 694 OFFCURVE",
"101 694 CURVE SMOOTH",
"87 694 OFFCURVE",
"80 687 OFFCURVE",
"80 673 CURVE SMOOTH",
"80 -120 LINE SMOOTH",
"80 -134 OFFCURVE",
"87 -141 OFFCURVE",
"101 -141 CURVE SMOOTH",
"115 -141 OFFCURVE",
"122 -134 OFFCURVE"
);
}
);
width = 202;
}
);
leftKerningGroup = H;
rightKerningGroup = H;
unicode = 007C;
},
{
color = 5;
glyphname = brokenbar;
layers = (
{
layerId = "C9A88445-F9B1-43BF-9834-532EB19954E9";
paths = (
{
closed = 1;
nodes = (
"122 -120 CURVE SMOOTH",
"122 167 LINE SMOOTH",
"122 179 OFFCURVE",
"113 188 OFFCURVE",
"101 188 CURVE SMOOTH",
"89 188 OFFCURVE",
"80 179 OFFCURVE",
"80 167 CURVE SMOOTH",
"80 -120 LINE SMOOTH",
"80 -132 OFFCURVE",
"89 -141 OFFCURVE",
"101 -141 CURVE SMOOTH",
"113 -141 OFFCURVE",
"122 -132 OFFCURVE"
);
},
{
closed = 1;
nodes = (
"122 389 CURVE SMOOTH",
"122 674 LINE SMOOTH",
"122 686 OFFCURVE",
"113 695 OFFCURVE",
"101 695 CURVE SMOOTH",
"89 695 OFFCURVE",
"80 686 OFFCURVE",
"80 674 CURVE SMOOTH",
"80 389 LINE SMOOTH",
"80 377 OFFCURVE",
"89 368 OFFCURVE",
"101 368 CURVE SMOOTH",
"113 368 OFFCURVE",
"122 377 OFFCURVE"
);
}
);
width = 202;
}
);
leftKerningGroup = H;
leftMetricsKey = bar;
rightKerningGroup = H;
rightMetricsKey = bar;
unicode = 00A6;
},
{
color = 5;
glyphname = dagger;
layers = (
{
layerId = "C9A88445-F9B1-43BF-9834-532EB19954E9";
paths = (
{
closed = 1;
nodes = (
"200 -179 CURVE SMOOTH",
"200 419 LINE",
"287 419 LINE SMOOTH",
"301 419 OFFCURVE",
"308 426 OFFCURVE",
"308 440 CURVE SMOOTH",
"308 454 OFFCURVE",
"301 461 OFFCURVE",
"287 461 CURVE SMOOTH",
"200 461 LINE",
"200 669 LINE SMOOTH",
"200 683 OFFCURVE",
"193 690 OFFCURVE",
"179 690 CURVE SMOOTH",
"165 690 OFFCURVE",
"158 683 OFFCURVE",
"158 669 CURVE SMOOTH",
"158 461 LINE",
"71 461 LINE SMOOTH",
"57 461 OFFCURVE",
"50 454 OFFCURVE",
"50 440 CURVE SMOOTH",
"50 426 OFFCURVE",
"57 419 OFFCURVE",
"71 419 CURVE SMOOTH",
"158 419 LINE",
"158 -179 LINE SMOOTH",
"158 -193 OFFCURVE",
"165 -200 OFFCURVE",
"179 -200 CURVE SMOOTH",
"193 -200 OFFCURVE",
"200 -193 OFFCURVE"
);
}
);
width = 358;
}
);
leftKerningGroup = Hbar;
rightKerningGroup = Hbar;
unicode = 2020;
},
{
color = 5;
glyphname = daggerdbl;
layers = (
{
layerId = "C9A88445-F9B1-43BF-9834-532EB19954E9";
paths = (
{
closed = 1;
nodes = (
"200 -179 CURVE SMOOTH",
"200 0 LINE",
"287 0 LINE SMOOTH",
"301 0 OFFCURVE",
"308 7 OFFCURVE",
"308 21 CURVE SMOOTH",
"308 35 OFFCURVE",
"301 42 OFFCURVE",
"287 42 CURVE SMOOTH",
"200 42 LINE",
"200 419 LINE",
"287 419 LINE SMOOTH",
"301 419 OFFCURVE",
"308 426 OFFCURVE",
"308 440 CURVE SMOOTH",
"308 454 OFFCURVE",
"301 461 OFFCURVE",
"287 461 CURVE SMOOTH",
"200 461 LINE",
"200 669 LINE SMOOTH",
"200 683 OFFCURVE",
"193 690 OFFCURVE",
"179 690 CURVE SMOOTH",
"165 690 OFFCURVE",
"158 683 OFFCURVE",
"158 669 CURVE SMOOTH",
"158 461 LINE",
"71 461 LINE SMOOTH",
"57 461 OFFCURVE",
"50 454 OFFCURVE",
"50 440 CURVE SMOOTH",
"50 426 OFFCURVE",
"57 419 OFFCURVE",
"71 419 CURVE SMOOTH",
"158 419 LINE",
"158 42 LINE",
"71 42 LINE SMOOTH",
"57 42 OFFCURVE",
"50 35 OFFCURVE",
"50 21 CURVE SMOOTH",
"50 7 OFFCURVE",
"57 0 OFFCURVE",
"71 0 CURVE SMOOTH",
"158 0 LINE",
"158 -179 LINE SMOOTH",
"158 -193 OFFCURVE",
"165 -200 OFFCURVE",
"179 -200 CURVE SMOOTH",
"193 -200 OFFCURVE",
"200 -193 OFFCURVE"
);
}
);
width = 358;
}
);
leftKerningGroup = Hbar;
rightKerningGroup = Hbar;
unicode = 2021;
},
{
color = 4;
glyphname = asciicircum;
layers = (
{
layerId = "C9A88445-F9B1-43BF-9834-532EB19954E9";
paths = (
{
closed = 1;
nodes = (
"111 432 CURVE SMOOTH",
"186 626 LINE",
"261 432 LINE SMOOTH",
"264 424 OFFCURVE",
"272 418 OFFCURVE",
"281 418 CURVE SMOOTH",
"293 418 OFFCURVE",
"302 427 OFFCURVE",
"302 439 CURVE SMOOTH",
"302 442 OFFCURVE",
"301 445 OFFCURVE",
"300 447 CURVE SMOOTH",
"221 652 LINE SMOOTH",
"216 664 OFFCURVE",
"209 669 OFFCURVE",
"197 669 CURVE SMOOTH",
"175 669 LINE SMOOTH",
"163 669 OFFCURVE",
"156 664 OFFCURVE",
"151 652 CURVE SMOOTH",
"72 447 LINE SMOOTH",
"71 445 OFFCURVE",
"70 442 OFFCURVE",
"70 439 CURVE SMOOTH",
"70 427 OFFCURVE",
"79 418 OFFCURVE",
"91 418 CURVE SMOOTH",
"100 418 OFFCURVE",
"108 424 OFFCURVE"
);
}
);
width = 372;
}
);
leftKerningGroup = asterisk;
leftMetricsKey = period;
rightKerningGroup = astersk;
rightMetricsKey = period;
unicode = 005E;
},
{
color = 5;
glyphname = hookabovecomb;
layers = (
{
anchors = (
{
name = _top;
position = "{122, 461}";
},
{
name = top;
position = "{133, 608}";
}
);
layerId = "C9A88445-F9B1-43BF-9834-532EB19954E9";
paths = (
{
closed = 1;
nodes = (
"136 518 OFFCURVE",
"143 525 OFFCURVE",
"143 539 CURVE SMOOTH",
"143 554 OFFCURVE",
"148 560 OFFCURVE",
"170 574 CURVE SMOOTH",
"188 585 OFFCURVE",
"216 602 OFFCURVE",
"216 641 CURVE SMOOTH",
"216 697 OFFCURVE",
"189 724 OFFCURVE",
"133 724 CURVE SMOOTH",
"77 724 OFFCURVE",
"50 697 OFFCURVE",
"50 641 CURVE SMOOTH",
"50 627 OFFCURVE",
"57 620 OFFCURVE",
"71 620 CURVE SMOOTH",
"85 620 OFFCURVE",
"92 627 OFFCURVE",
"92 641 CURVE SMOOTH",
"92 673 OFFCURVE",
"101 682 OFFCURVE",
"133 682 CURVE SMOOTH",
"165 682 OFFCURVE",
"174 673 OFFCURVE",
"174 641 CURVE SMOOTH",
"174 628 OFFCURVE",
"170 623 OFFCURVE",
"148 610 CURVE SMOOTH",
"130 599 OFFCURVE",
"101 581 OFFCURVE",
"101 539 CURVE SMOOTH",
"101 525 OFFCURVE",
"108 518 OFFCURVE",
"122 518 CURVE SMOOTH"
);
}
);
width = 266;
}
);
leftKerningGroup = hookabovecomb;
rightKerningGroup = hookabovecomb;
unicode = 0309;
},
{
color = 5;
glyphname = horncomb;
layers = (
{
anchors = (
{
name = _topright;
position = "{50, 461}";
},
{
name = topright;
position = "{50, 461}";
}
);
layerId = "C9A88445-F9B1-43BF-9834-532EB19954E9";
paths = (
{
closed = 1;
nodes = (
"122 419 OFFCURVE",
"157 449 OFFCURVE",
"157 512 CURVE SMOOTH",
"157 534 LINE SMOOTH",
"157 548 OFFCURVE",
"150 555 OFFCURVE",
"136 555 CURVE SMOOTH",
"122 555 OFFCURVE",
"115 548 OFFCURVE",
"115 534 CURVE SMOOTH",
"115 512 LINE SMOOTH",
"115 474 OFFCURVE",
"100 461 OFFCURVE",
"50 461 CURVE",
"50 419 LINE"
);
}
);
width = 207;
}
);
leftKerningGroup = horncomb;
rightKerningGroup = horncomb;
unicode = 031B;
},
{
color = 5;
glyphname = ogonekcomb;
layers = (
{
anchors = (
{
name = _ogonek;
position = "{170, 0}";
}
);
layerId = "C9A88445-F9B1-43BF-9834-532EB19954E9";
paths = (
{
closed = 1;
nodes = (
"169 -210 OFFCURVE",
"201 -196 OFFCURVE",
"227 -170 CURVE SMOOTH",
"231 -166 OFFCURVE",
"233 -161 OFFCURVE",
"233 -155 CURVE SMOOTH",
"233 -143 OFFCURVE",
"224 -134 OFFCURVE",
"212 -134 CURVE SMOOTH",
"206 -134 OFFCURVE",
"201 -136 OFFCURVE",
"197 -140 CURVE SMOOTH",
"178 -159 OFFCURVE",
"159 -168 OFFCURVE",
"138 -168 CURVE SMOOTH",
"111 -168 OFFCURVE",
"92 -152 OFFCURVE",
"92 -131 CURVE SMOOTH",
"92 -120 OFFCURVE",
"97 -110 OFFCURVE",
"106 -98 CURVE SMOOTH",
"186 8 LINE SMOOTH",
"189 12 OFFCURVE",
"190 16 OFFCURVE",
"190 21 CURVE SMOOTH",
"190 33 OFFCURVE",
"181 42 OFFCURVE",
"169 42 CURVE SMOOTH",
"162 42 OFFCURVE",
"156 39 OFFCURVE",
"152 34 CURVE SMOOTH",
"72 -72 LINE SMOOTH",
"58 -90 OFFCURVE",
"50 -111 OFFCURVE",
"50 -131 CURVE SMOOTH",
"50 -176 OFFCURVE",
"89 -210 OFFCURVE",
"138 -210 CURVE SMOOTH"
);
}
);
width = 283;
}
);
leftKerningGroup = ogonekcomb;
rightKerningGroup = ogonekcomb;
unicode = 0328;
},
{
color = 5;
glyphname = strokeshortcomb;
layers = (
{
anchors = (
{
name = _center;
position = "{201, 270}";
}
);
layerId = "C9A88445-F9B1-43BF-9834-532EB19954E9";
paths = (
{
closed = 1;
nodes = (
"329 249 LINE SMOOTH",
"343 249 OFFCURVE",
"350 256 OFFCURVE",
"350 270 CURVE SMOOTH",
"350 284 OFFCURVE",
"343 291 OFFCURVE",
"329 291 CURVE SMOOTH",
"71 291 LINE SMOOTH",
"57 291 OFFCURVE",
"50 284 OFFCURVE",
"50 270 CURVE SMOOTH",
"50 256 OFFCURVE",
"57 249 OFFCURVE",
"71 249 CURVE SMOOTH"
);
}
);
width = 400;
}
);
leftKerningGroup = strokeshortcomb;
rightKerningGroup = strokeshortcomb;
unicode = 0335;
},
{
color = 5;
glyphname = strokelongcomb;
layers = (
{
anchors = (
{
name = _center;
position = "{340, 270}";
}
);
layerId = "C9A88445-F9B1-43BF-9834-532EB19954E9";
paths = (
{
closed = 1;
nodes = (
"613 251 LINE SMOOTH",
"625 251 OFFCURVE",
"631 257 OFFCURVE",
"631 269 CURVE SMOOTH",
"631 281 OFFCURVE",
"625 287 OFFCURVE",
"613 287 CURVE SMOOTH",
"68 287 LINE SMOOTH",
"56 287 OFFCURVE",
"50 281 OFFCURVE",
"50 269 CURVE SMOOTH",
"50 257 OFFCURVE",
"56 251 OFFCURVE",
"68 251 CURVE SMOOTH"
);
}
);
width = 681;
}
);
leftKerningGroup = strokelongcomb;
rightKerningGroup = strokelongcomb;
unicode = 0336;
},
{
color = 5;
glyphname = slashshortcomb;
layers = (
{
anchors = (
{
name = _center;
position = "{185, 323}";
}
);
layerId = "C9A88445-F9B1-43BF-9834-532EB19954E9";
paths = (
{
closed = 1;
nodes = (
"338 412 LINE SMOOTH",
"349 420 OFFCURVE",
"351 430 OFFCURVE",
"342 441 CURVE SMOOTH",
"334 452 OFFCURVE",
"324 453 OFFCURVE",
"313 445 CURVE SMOOTH",
"59 252 LINE SMOOTH",
"48 244 OFFCURVE",
"47 234 OFFCURVE",
"55 223 CURVE SMOOTH",
"64 212 OFFCURVE",
"74 211 OFFCURVE",
"85 219 CURVE SMOOTH"
);
}
);
width = 398;
}
);
leftKerningGroup = slashshortcomb;
rightKerningGroup = slashshortcomb;
unicode = 0337;
},
{
color = 5;
glyphname = slashlongcomb;
layers = (
{
anchors = (
{
name = _center;
position = "{281, 286}";
}
);
layerId = "C9A88445-F9B1-43BF-9834-532EB19954E9";
paths = (
{
closed = 1;
nodes = (
"73 -83 OFFCURVE",
"83 -81 OFFCURVE",
"90 -69 CURVE SMOOTH",
"513 624 LINE SMOOTH",
"520 636 OFFCURVE",
"518 646 OFFCURVE",
"506 653 CURVE SMOOTH",
"494 660 OFFCURVE",
"484 658 OFFCURVE",
"477 646 CURVE SMOOTH",
"54 -47 LINE SMOOTH",
"47 -59 OFFCURVE",
"49 -69 OFFCURVE",
"61 -76 CURVE SMOOTH"
);
}
);
width = 567;
}
);
leftKerningGroup = slashlongcomb;
rightKerningGroup = slashlongcomb;
unicode = 0338;
},
{
color = 5;
glyphname = circumflexcomb.case;
lastChange = "2016-07-31 02:08:06 +0000";
layers = (
{
anchors = (
{
name = _top;
position = "{194, 633}";
},
{
name = top;
position = "{193, 768}";
}
);
layerId = "C9A88445-F9B1-43BF-9834-532EB19954E9";
paths = (
{
closed = 1;
nodes = (
"76 698 OFFCURVE",
"81 700 OFFCURVE",
"85 703 CURVE SMOOTH",
"186 787 LINE",
"198 787 LINE",
"299 703 LINE SMOOTH",
"303 700 OFFCURVE",
"308 698 OFFCURVE",
"313 698 CURVE SMOOTH",
"325 698 OFFCURVE",
"334 707 OFFCURVE",
"334 719 CURVE SMOOTH",
"334 726 OFFCURVE",
"331 731 OFFCURVE",
"326 735 CURVE SMOOTH",
"225 820 LINE SMOOTH",
"217 826 OFFCURVE",
"209 829 OFFCURVE",
"199 829 CURVE SMOOTH",
"185 829 LINE SMOOTH",
"175 829 OFFCURVE",
"167 826 OFFCURVE",
"159 820 CURVE SMOOTH",
"58 735 LINE SMOOTH",
"53 731 OFFCURVE",
"50 726 OFFCURVE",
"50 719 CURVE SMOOTH",
"50 707 OFFCURVE",
"59 698 OFFCURVE",
"71 698 CURVE SMOOTH"
);
}
);
width = 384;
}
);
leftKerningGroup = circumflexcomb.case;
rightKerningGroup = crcumflexcomb.case;
},
{
color = 5;
glyphname = brevecomb.i;
lastChange = "2016-07-31 02:08:06 +0000";
layers = (
{
anchors = (
{
name = _top;
position = "{152, 461}";
},
{
name = top;
position = "{152, 648}";
}
);
layerId = "C9A88445-F9B1-43BF-9834-532EB19954E9";
paths = (
{
closed = 1;
nodes = (
"220 518 OFFCURVE",
"254 554 OFFCURVE",
"254 621 CURVE SMOOTH",
"254 635 OFFCURVE",
"247 642 OFFCURVE",
"233 642 CURVE SMOOTH",
"219 642 OFFCURVE",
"212 637 OFFCURVE",
"212 621 CURVE SMOOTH",
"212 581 OFFCURVE",
"199 560 OFFCURVE",
"152 560 CURVE SMOOTH",
"108 560 OFFCURVE",
"92 578 OFFCURVE",
"92 621 CURVE SMOOTH",
"92 635 OFFCURVE",
"85 642 OFFCURVE",
"71 642 CURVE SMOOTH",
"57 642 OFFCURVE",
"50 635 OFFCURVE",
"50 621 CURVE SMOOTH",
"50 557 OFFCURVE",
"81 518 OFFCURVE",
"152 518 CURVE SMOOTH"
);
}
);
width = 304;
}
);
leftKerningGroup = brevecomb.i;
rightKerningGroup = brevecomb.;
},
{
color = 5;
glyphname = tildecomb.i;
lastChange = "2016-07-31 02:08:06 +0000";
layers = (
{
anchors = (
{
name = _top;
position = "{171, 461}";
},
{
name = top;
position = "{171, 635}";
}
);
layerId = "C9A88445-F9B1-43BF-9834-532EB19954E9";
paths = (
{
closed = 1;
nodes = (
"252 550 OFFCURVE",
"278 578 OFFCURVE",
"291 622 CURVE SMOOTH",
"294 632 OFFCURVE",
"289 650 OFFCURVE",
"271 650 CURVE SMOOTH",
"261 650 OFFCURVE",
"254 644 OFFCURVE",
"251 635 CURVE SMOOTH",
"240 603 OFFCURVE",
"231 592 OFFCURVE",
"217 592 CURVE SMOOTH",
"190 592 OFFCURVE",
"179 650 OFFCURVE",
"128 650 CURVE SMOOTH",
"91 650 OFFCURVE",
"72 625 OFFCURVE",
"51 578 CURVE SMOOTH",
"47 569 OFFCURVE",
"53 550 OFFCURVE",
"71 550 CURVE SMOOTH",
"80 550 OFFCURVE",
"87 556 OFFCURVE",
"91 565 CURVE SMOOTH",
"106 599 OFFCURVE",
"112 608 OFFCURVE",
"128 608 CURVE SMOOTH",
"155 608 OFFCURVE",
"165 550 OFFCURVE",
"217 550 CURVE SMOOTH"
);
}
);
width = 342;
}
);
leftKerningGroup = tildecomb.i;
rightKerningGroup = tldecomb.;
},
{
color = 5;
glyphname = macroncomb.i;
lastChange = "2016-07-31 02:08:06 +0000";
layers = (
{
anchors = (
{
name = _top;
position = "{143, 461}";
},
{
name = top;
position = "{144, 622}";
}
);
layerId = "C9A88445-F9B1-43BF-9834-532EB19954E9";
paths = (
{
closed = 1;
nodes = (
"214 581 LINE SMOOTH",
"228 581 OFFCURVE",
"235 588 OFFCURVE",
"235 602 CURVE SMOOTH",
"235 616 OFFCURVE",
"228 623 OFFCURVE",
"214 623 CURVE SMOOTH",
"71 623 LINE SMOOTH",
"57 623 OFFCURVE",
"50 616 OFFCURVE",
"50 602 CURVE SMOOTH",
"50 588 OFFCURVE",
"57 581 OFFCURVE",
"71 581 CURVE SMOOTH"
);
}
);
width = 285;
}
);
leftKerningGroup = macroncomb.i;
rightKerningGroup = macroncomb.;
},
{
color = 5;
glyphname = ogonekcomb.i;
lastChange = "2016-07-31 02:08:06 +0000";
layers = (
{
anchors = (
{
name = _ogonek;
position = "{139, 0}";
}
);
layerId = "C9A88445-F9B1-43BF-9834-532EB19954E9";
paths = (
{
closed = 1;
nodes = (
"169 -168 OFFCURVE",
"201 -154 OFFCURVE",
"227 -128 CURVE SMOOTH",
"231 -124 OFFCURVE",
"233 -119 OFFCURVE",
"233 -113 CURVE SMOOTH",
"233 -101 OFFCURVE",
"224 -92 OFFCURVE",
"212 -92 CURVE SMOOTH",
"206 -92 OFFCURVE",
"201 -94 OFFCURVE",
"197 -98 CURVE SMOOTH",
"178 -117 OFFCURVE",
"159 -126 OFFCURVE",
"138 -126 CURVE SMOOTH",
"111 -126 OFFCURVE",
"92 -110 OFFCURVE",
"92 -89 CURVE SMOOTH",
"92 -78 OFFCURVE",
"97 -68 OFFCURVE",
"106 -56 CURVE SMOOTH",
"155 8 LINE SMOOTH",
"158 12 OFFCURVE",
"159 16 OFFCURVE",
"159 21 CURVE SMOOTH",
"159 33 OFFCURVE",
"150 42 OFFCURVE",
"138 42 CURVE SMOOTH",
"131 42 OFFCURVE",
"125 39 OFFCURVE",
"121 34 CURVE SMOOTH",
"72 -30 LINE SMOOTH",
"58 -48 OFFCURVE",
"50 -69 OFFCURVE",
"50 -89 CURVE SMOOTH",
"50 -134 OFFCURVE",
"89 -168 OFFCURVE",
"138 -168 CURVE SMOOTH"
);
}
);
width = 283;
}
);
leftKerningGroup = ogonekcomb.i;
rightKerningGroup = ogonekcomb.;
},
{
color = 5;
glyphname = breve;
layers = (
{
layerId = "C9A88445-F9B1-43BF-9834-532EB19954E9";
paths = (
{
closed = 1;
nodes = (
"250 519 OFFCURVE",
"294 557 OFFCURVE",
"294 640 CURVE SMOOTH",
"294 642 LINE SMOOTH",
"294 656 OFFCURVE",
"287 663 OFFCURVE",
"273 663 CURVE SMOOTH",
"259 663 OFFCURVE",
"252 656 OFFCURVE",
"252 642 CURVE SMOOTH",
"252 640 LINE SMOOTH",
"252 584 OFFCURVE",
"229 561 OFFCURVE",
"172 560 CURVE SMOOTH",
"116 560 OFFCURVE",
"92 584 OFFCURVE",
"92 640 CURVE SMOOTH",
"92 642 LINE SMOOTH",
"92 656 OFFCURVE",
"85 663 OFFCURVE",
"71 663 CURVE SMOOTH",
"57 663 OFFCURVE",
"50 656 OFFCURVE",
"50 642 CURVE SMOOTH",
"50 640 LINE SMOOTH",
"50 560 OFFCURVE",
"92 518 OFFCURVE",
"173 519 CURVE SMOOTH"
);
}
);
width = 344;
}
);
leftKerningGroup = breve;
rightKerningGroup = breve;
unicode = 02D8;
},
{
color = 5;
glyphname = cedilla;
layers = (
{
layerId = "C9A88445-F9B1-43BF-9834-532EB19954E9";
paths = (
{
closed = 1;
nodes = (
"204 -200 OFFCURVE",
"236 -168 OFFCURVE",
"236 -97 CURVE SMOOTH",
"236 -56 OFFCURVE",
"209 -38 OFFCURVE",
"191 -26 CURVE SMOOTH",
"168 -11 OFFCURVE",
"163 -3 OFFCURVE",
"163 15 CURVE SMOOTH",
"163 29 OFFCURVE",
"156 36 OFFCURVE",
"142 36 CURVE SMOOTH",
"128 36 OFFCURVE",
"121 29 OFFCURVE",
"121 15 CURVE SMOOTH",
"121 -29 OFFCURVE",
"149 -48 OFFCURVE",
"168 -61 CURVE SMOOTH",
"189 -76 OFFCURVE",
"194 -82 OFFCURVE",
"194 -97 CURVE SMOOTH",
"194 -144 OFFCURVE",
"180 -158 OFFCURVE",
"133 -158 CURVE SMOOTH",
"101 -158 OFFCURVE",
"92 -149 OFFCURVE",
"92 -117 CURVE SMOOTH",
"92 -103 OFFCURVE",
"85 -96 OFFCURVE",
"71 -96 CURVE SMOOTH",
"57 -96 OFFCURVE",
"50 -103 OFFCURVE",
"50 -117 CURVE SMOOTH",
"50 -173 OFFCURVE",
"77 -200 OFFCURVE",
"133 -200 CURVE SMOOTH"
);
}
);
width = 286;
}
);
leftKerningGroup = cedilla;
rightKerningGroup = cedlla;
unicode = 00B8;
},
{
color = 5;
glyphname = circumflex;
layers = (
{
layerId = "C9A88445-F9B1-43BF-9834-532EB19954E9";
paths = (
{
closed = 1;
nodes = (
"78 518 OFFCURVE",
"84 521 OFFCURVE",
"88 527 CURVE SMOOTH",
"163 627 LINE",
"169 627 LINE",
"244 527 LINE SMOOTH",
"248 521 OFFCURVE",
"254 518 OFFCURVE",
"261 518 CURVE SMOOTH",
"273 518 OFFCURVE",
"282 527 OFFCURVE",
"282 539 CURVE SMOOTH",
"282 544 OFFCURVE",
"280 548 OFFCURVE",
"278 552 CURVE SMOOTH",
"200 656 LINE SMOOTH",
"193 665 OFFCURVE",
"186 669 OFFCURVE",
"175 669 CURVE SMOOTH",
"157 669 LINE SMOOTH",
"146 669 OFFCURVE",
"139 665 OFFCURVE",
"132 656 CURVE SMOOTH",
"54 552 LINE SMOOTH",
"52 548 OFFCURVE",
"50 544 OFFCURVE",
"50 539 CURVE SMOOTH",
"50 527 OFFCURVE",
"59 518 OFFCURVE",
"71 518 CURVE SMOOTH"
);
}
);
width = 332;
}
);
leftKerningGroup = circumflex;
rightKerningGroup = crcumflex;
unicode = 02C6;
},
{
color = 5;
glyphname = grave;
layers = (
{
layerId = "C9A88445-F9B1-43BF-9834-532EB19954E9";
paths = (
{
closed = 1;
nodes = (
"185 532 OFFCURVE",
"186 542 OFFCURVE",
"178 553 CURVE",
"88 659 LINE SMOOTH",
"79 670 OFFCURVE",
"68 671 OFFCURVE",
"58 662 CURVE SMOOTH",
"48 653 OFFCURVE",
"47 643 OFFCURVE",
"55 632 CURVE",
"145 526 LINE SMOOTH",
"154 515 OFFCURVE",
"165 514 OFFCURVE",
"175 523 CURVE SMOOTH"
);
}
);
width = 233;
}
);
leftKerningGroup = grave;
rightKerningGroup = grave;
unicode = 0060;
},
